Bungee_Basic-Shade.ufo
<glyph name="exclam" format="1">
  <advance width="874"/>
  <unicode hex="0021"/>
  <outline>
    <contour>
      <point x="250.0" y="-119" type="line" smooth="yes"/>
      <point x="264.0" y="-119"/>
      <point x="275.0" y="-115"/>
      <point x="282.0" y="-109" type="curve"/>
      <point x="412.0" y="-1" type="line" smooth="yes"/>
      <point x="420.0" y="7"/>
      <point x="425.0" y="18"/>
      <point x="425.0" y="36" type="curve" smooth="yes"/>
      <point x="425.0" y="167" type="line" smooth="yes"/>
      <point x="425.0" y="200"/>
      <point x="411.0" y="213"/>
      <point x="379.0" y="213" type="curve" smooth="yes"/>
      <point x="339.0" y="213" type="line"/>
      <point x="398.0" y="262" type="line" smooth="yes"/>
      <point x="406.0" y="270"/>
      <point x="411.0" y="281"/>
      <point x="412.0" y="297" type="curve" smooth="yes"/>
      <point x="426.0" y="684" type="line" smooth="yes"/>
      <point x="427.0" y="716"/>
      <point x="414.0" y="730"/>
      <point x="382.0" y="730" type="curve" smooth="yes"/>
      <point x="191.0" y="730" type="line" smooth="yes"/>
      <point x="177.0" y="730"/>
      <point x="167.0" y="727"/>
      <point x="160.0" y="721" type="curve" smooth="yes"/>
      <point x="31.0" y="613" type="line" smooth="yes"/>
      <point x="22.0" y="605"/>
      <point x="17.0" y="593"/>
      <point x="18.0" y="574" type="curve" smooth="yes"/>
      <point x="33.0" y="189" type="line" smooth="yes"/>
      <point x="34.0" y="157"/>
      <point x="48.0" y="143"/>
      <point x="80.0" y="143" type="curve" smooth="yes"/>
      <point x="91.0" y="143" type="line"/>
      <point x="33.0" y="95" type="line" smooth="yes"/>
      <point x="25.0" y="88"/>
      <point x="20.0" y="76"/>
      <point x="20.0" y="58" type="curve" smooth="yes"/>
      <point x="20.0" y="-73" type="line" smooth="yes"/>
      <point x="20.0" y="-105"/>
      <point x="34.0" y="-119"/>
      <point x="66.0" y="-119" type="curve" smooth="yes"/>
    </contour>
    <contour>
      <point x="364.0" y="262" type="curve" smooth="yes"/>
      <point x="209.0" y="262" type="line" smooth="yes"/>
      <point x="184.0" y="262"/>
      <point x="173.0" y="273"/>
      <point x="172.0" y="298" type="curve" smooth="yes"/>
      <point x="157.0" y="684" type="line" smooth="yes"/>
      <point x="156.0" y="709"/>
      <point x="166.0" y="720"/>
      <point x="191.0" y="720" type="curve" smooth="yes"/>
      <point x="382.0" y="720" type="line" smooth="yes"/>
      <point x="407.0" y="720"/>
      <point x="417.0" y="709"/>
      <point x="416.0" y="684" type="curve" smooth="yes"/>
      <point x="402.0" y="298" type="line" smooth="yes"/>
      <point x="401.0" y="273"/>
      <point x="389.0" y="262"/>
    </contour>
    <contour>
      <point x="379.0" y="0" type="curve" smooth="yes"/>
      <point x="195.0" y="0" type="line" smooth="yes"/>
      <point x="170.0" y="0"/>
      <point x="159.0" y="11"/>
      <point x="159.0" y="36" type="curve"/>
      <point x="159.0" y="167" type="line"/>
      <point x="159.0" y="193"/>
      <point x="170.0" y="203"/>
      <point x="195.0" y="203" type="curve" smooth="yes"/>
      <point x="379.0" y="203" type="line" smooth="yes"/>
      <point x="404.0" y="203"/>
      <point x="415.0" y="193"/>
      <point x="415.0" y="167" type="curve" smooth="yes"/>
      <point x="415.0" y="36" type="line" smooth="yes"/>
      <point x="415.0" y="11"/>
      <point x="404.0" y="0"/>
    </contour>
    <contour>
      <point x="282.0" y="630" type="line"/>
      <point x="282.0" y="352" type="line"/>
      <point x="292.0" y="352" type="line"/>
      <point x="292.0" y="630" type="line"/>
    </contour>
    <contour>
      <point x="292.0" y="80" type="line"/>
      <point x="292.0" y="123" type="line"/>
      <point x="282.0" y="123" type="line"/>
      <point x="282.0" y="80" type="line"/>
    </contour>
  </outline>
</glyph>
<glyph name="quotedbl" format="1">
  <advance width="1096"/>
  <unicode hex="0022"/>
  <outline>
    <contour>
      <point x="225.0" y="235" type="curve" smooth="yes"/>
      <point x="300.0" y="298" type="line"/>
      <point x="300.0" y="277" type="line" smooth="yes"/>
      <point x="301.0" y="233"/>
      <point x="309.0" y="226"/>
      <point x="352.0" y="226" type="curve" smooth="yes"/>
      <point x="496.0" y="226" type="line" smooth="yes"/>
      <point x="516.0" y="226"/>
      <point x="527.0" y="229"/>
      <point x="535.0" y="235" type="curve" smooth="yes"/>
      <point x="664.0" y="343" type="line" smooth="yes"/>
      <point x="672.0" y="351"/>
      <point x="676.0" y="362"/>
      <point x="677.0" y="385" type="curve" smooth="yes"/>
      <point x="685.0" y="679" type="line" smooth="yes"/>
      <point x="686.0" y="723"/>
      <point x="679.0" y="730"/>
      <point x="636.0" y="730" type="curve" smooth="yes"/>
      <point x="471.0" y="730" type="line" smooth="yes"/>
      <point x="452.0" y="730"/>
      <point x="440.0" y="728"/>
      <point x="433.0" y="722" type="curve" smooth="yes"/>
      <point x="375.0" y="673" type="line"/>
      <point x="375.0" y="679" type="line" smooth="yes"/>
      <point x="376.0" y="723"/>
      <point x="369.0" y="730"/>
      <point x="326.0" y="730" type="curve" smooth="yes"/>
      <point x="161.0" y="730" type="line" smooth="yes"/>
      <point x="142.0" y="730"/>
      <point x="130.0" y="728"/>
      <point x="123.0" y="722" type="curve" smooth="yes"/>
      <point x="-7.0" y="613" type="line" smooth="yes"/>
      <point x="-16.0" y="605"/>
      <point x="-19.0" y="594"/>
      <point x="-18.0" y="569" type="curve" smooth="yes"/>
      <point x="-10.0" y="277" type="line" smooth="yes"/>
      <point x="-9.0" y="233"/>
      <point x="-1.0" y="226"/>
      <point x="42.0" y="226" type="curve" smooth="yes"/>
      <point x="186.0" y="226" type="line" smooth="yes"/>
      <point x="206.0" y="226"/>
      <point x="217.0" y="229"/>
    </contour>
    <contour>
      <point x="625.0" y="345" type="curve" smooth="yes"/>
      <point x="481.0" y="345" type="line" smooth="yes"/>
      <point x="446.0" y="345"/>
      <point x="440.0" y="351"/>
      <point x="439.0" y="386" type="curve" smooth="yes"/>
      <point x="431.0" y="679" type="line" smooth="yes"/>
      <point x="430.0" y="714"/>
      <point x="436.0" y="720"/>
      <point x="471.0" y="720" type="curve" smooth="yes"/>
      <point x="636.0" y="720" type="line" smooth="yes"/>
      <point x="670.0" y="720"/>
      <point x="676.0" y="714"/>
      <point x="675.0" y="679" type="curve" smooth="yes"/>
      <point x="667.0" y="386" type="line"/>
      <point x="665.0" y="351"/>
      <point x="660.0" y="345"/>
    </contour>
    <contour>
      <point x="315.0" y="345" type="curve" smooth="yes"/>
      <point x="171.0" y="345" type="line" smooth="yes"/>
      <point x="136.0" y="345"/>
      <point x="130.0" y="351"/>
      <point x="129.0" y="386" type="curve" smooth="yes"/>
      <point x="121.0" y="679" type="line" smooth="yes"/>
      <point x="120.0" y="714"/>
      <point x="126.0" y="720"/>
      <point x="161.0" y="720" type="curve" smooth="yes"/>
      <point x="326.0" y="720" type="line" smooth="yes"/>
      <point x="360.0" y="720"/>
      <point x="366.0" y="714"/>
      <point x="365.0" y="679" type="curve" smooth="yes"/>
      <point x="357.0" y="386" type="line"/>
      <point x="355.0" y="351"/>
      <point x="350.0" y="345"/>
    </contour>
    <contour>
      <point x="238.0" y="630" type="line"/>
      <point x="238.0" y="435" type="line"/>
      <point x="248.0" y="435" type="line"/>
      <point x="248.0" y="630" type="line"/>
    </contour>
    <contour>
      <point x="548.0" y="630" type="line"/>
      <point x="548.0" y="435" type="line"/>
      <point x="558.0" y="435" type="line"/>
      <point x="558.0" y="630" type="line"/>
    </contour>
  </outline>
</glyph>
<glyph name="numbersign" format="1">
  <advance width="1200"/>
  <unicode hex="0023"/>
  <outline>
    <contour>
      <point x="212.0" y="-110" type="curve" smooth="yes"/>
      <point x="330.0" y="-11" type="line"/>
      <point x="321.0" y="-72" type="line" smooth="yes"/>
      <point x="317.0" y="-104"/>
      <point x="334.0" y="-119"/>
      <point x="367.0" y="-119" type="curve" smooth="yes"/>
      <point x="472.0" y="-119" type="line" smooth="yes"/>
      <point x="486.0" y="-119"/>
      <point x="494.0" y="-115"/>
      <point x="502.0" y="-110" type="curve" smooth="yes"/>
      <point x="631.0" y="-1" type="line"/>
      <point x="639.0" y="5"/>
      <point x="644.0" y="17"/>
      <point x="647.0" y="35" type="curve" smooth="yes"/>
      <point x="649.0" y="49" type="line"/>
      <point x="750.0" y="134" type="line" smooth="yes"/>
      <point x="759.0" y="142"/>
      <point x="764.0" y="153"/>
      <point x="764.0" y="171" type="curve" smooth="yes"/>
      <point x="764.0" y="278" type="line" smooth="yes"/>
      <point x="764.0" y="311"/>
      <point x="750.0" y="324"/>
      <point x="718.0" y="324" type="curve" smooth="yes"/>
      <point x="689.0" y="324" type="line"/>
      <point x="689.0" y="329" type="line"/>
      <point x="786.0" y="410" type="line" smooth="yes"/>
      <point x="795.0" y="418"/>
      <point x="800.0" y="429"/>
      <point x="800.0" y="447" type="curve" smooth="yes"/>
      <point x="800.0" y="554" type="line" smooth="yes"/>
      <point x="800.0" y="587"/>
      <point x="786.0" y="600"/>
      <point x="754.0" y="600" type="curve" smooth="yes"/>
      <point x="728.0" y="600" type="line"/>
      <point x="740.0" y="683" type="line" smooth="yes"/>
      <point x="744.0" y="715"/>
      <point x="727.0" y="730"/>
      <point x="694.0" y="730" type="curve" smooth="yes"/>
      <point x="589.0" y="730" type="line" smooth="yes"/>
      <point x="575.0" y="730"/>
      <point x="565.0" y="727"/>
      <point x="558.0" y="721" type="curve"/>
      <point x="441.0" y="623" type="line"/>
      <point x="450.0" y="683" type="line" smooth="yes"/>
      <point x="454.0" y="715"/>
      <point x="437.0" y="730"/>
      <point x="404.0" y="730" type="curve" smooth="yes"/>
      <point x="299.0" y="730" type="line" smooth="yes"/>
      <point x="285.0" y="730"/>
      <point x="275.0" y="727"/>
      <point x="268.0" y="721" type="curve"/>
      <point x="139.0" y="613" type="line" smooth="yes"/>
      <point x="130.0" y="605"/>
      <point x="125.0" y="593"/>
      <point x="124.0" y="576" type="curve"/>
      <point x="123.0" y="567" type="line"/>
      <point x="21.0" y="482" type="line" smooth="yes"/>
      <point x="12.0" y="474"/>
      <point x="7.0" y="463"/>
      <point x="7.0" y="445" type="curve" smooth="yes"/>
      <point x="7.0" y="338" type="line" smooth="yes"/>
      <point x="7.0" y="305"/>
      <point x="21.0" y="292"/>
      <point x="53.0" y="292" type="curve" smooth="yes"/>
      <point x="83.0" y="292" type="line"/>
      <point x="83.0" y="288" type="line"/>
      <point x="-15.0" y="206" type="line" smooth="yes"/>
      <point x="-24.0" y="198"/>
      <point x="-29.0" y="187"/>
      <point x="-29.0" y="169" type="curve" smooth="yes"/>
      <point x="-29.0" y="62" type="line" smooth="yes"/>
      <point x="-29.0" y="29"/>
      <point x="-15.0" y="16"/>
      <point x="17.0" y="16" type="curve" smooth="yes"/>
      <point x="43.0" y="16" type="line"/>
      <point x="31.0" y="-72" type="line" smooth="yes"/>
      <point x="27.0" y="-104"/>
      <point x="44.0" y="-119"/>
      <point x="77.0" y="-119" type="curve" smooth="yes"/>
      <point x="182.0" y="-119" type="line" smooth="yes"/>
      <point x="196.0" y="-119"/>
      <point x="204.0" y="-115"/>
    </contour>
    <contour>
      <point x="500.0" y="314" type="line"/>
      <point x="387.0" y="314" type="line"/>
      <point x="401.0" y="411" type="line"/>
      <point x="514.0" y="411" type="line"/>
    </contour>
    <contour>
      <point x="347.0" y="36" type="line" smooth="yes"/>
      <point x="344.0" y="11"/>
      <point x="336.0" y="0"/>
      <point x="311.0" y="0" type="curve" smooth="yes"/>
      <point x="206.0" y="0" type="line" smooth="yes"/>
      <point x="181.0" y="0"/>
      <point x="167.0" y="11"/>
      <point x="170.0" y="36" type="curve"/>
      <point x="184.0" y="135" type="line"/>
      <point x="146.0" y="135" type="line"/>
      <point x="121.0" y="135"/>
      <point x="110.0" y="145"/>
      <point x="110.0" y="171" type="curve" smooth="yes"/>
      <point x="110.0" y="278" type="line" smooth="yes"/>
      <point x="110.0" y="303"/>
      <point x="121.0" y="314"/>
      <point x="146.0" y="314" type="curve" smooth="yes"/>
      <point x="210.0" y="314" type="line"/>
      <point x="224.0" y="411" type="line"/>
      <point x="182.0" y="411" type="line"/>
      <point x="157.0" y="411"/>
      <point x="146.0" y="421"/>
      <point x="146.0" y="447" type="curve" smooth="yes"/>
      <point x="146.0" y="554" type="line" smooth="yes"/>
      <point x="146.0" y="579"/>
      <point x="157.0" y="590"/>
      <point x="182.0" y="590" type="curve" smooth="yes"/>
      <point x="250.0" y="590" type="line"/>
      <point x="263.0" y="684" type="line" smooth="yes"/>
      <point x="266.0" y="709"/>
      <point x="274.0" y="720"/>
      <point x="299.0" y="720" type="curve" smooth="yes"/>
      <point x="404.0" y="720" type="line" smooth="yes"/>
      <point x="429.0" y="720"/>
      <point x="443.0" y="709"/>
      <point x="440.0" y="684" type="curve" smooth="yes"/>
      <point x="427.0" y="590" type="line"/>
      <point x="540.0" y="590" type="line"/>
      <point x="553.0" y="684" type="line" smooth="yes"/>
      <point x="556.0" y="709"/>
      <point x="564.0" y="720"/>
      <point x="589.0" y="720" type="curve" smooth="yes"/>
      <point x="694.0" y="720" type="line" smooth="yes"/>
      <point x="719.0" y="720"/>
      <point x="733.0" y="709"/>
      <point x="730.0" y="684" type="curve" smooth="yes"/>
      <point x="717.0" y="590" type="line"/>
      <point x="754.0" y="590" type="line" smooth="yes"/>
      <point x="779.0" y="590"/>
      <point x="790.0" y="580"/>
      <point x="790.0" y="554" type="curve" smooth="yes"/>
      <point x="790.0" y="447" type="line" smooth="yes"/>
      <point x="790.0" y="421"/>
      <point x="779.0" y="411"/>
      <point x="754.0" y="411" type="curve" smooth="yes"/>
      <point x="691.0" y="411" type="line"/>
      <point x="677.0" y="314" type="line"/>
      <point x="718.0" y="314" type="line" smooth="yes"/>
      <point x="743.0" y="314"/>
      <point x="754.0" y="304"/>
      <point x="754.0" y="278" type="curve" smooth="yes"/>
      <point x="754.0" y="171" type="line" smooth="yes"/>
      <point x="754.0" y="145"/>
      <point x="743.0" y="135"/>
      <point x="718.0" y="135" type="curve" smooth="yes"/>
      <point x="651.0" y="135" type="line"/>
      <point x="637.0" y="36" type="line" smooth="yes"/>
      <point x="634.0" y="11"/>
      <point x="626.0" y="0"/>
      <point x="601.0" y="0" type="curve" smooth="yes"/>
      <point x="496.0" y="0" type="line" smooth="yes"/>
      <point x="471.0" y="0"/>
      <point x="457.0" y="11"/>
      <point x="460.0" y="36" type="curve" smooth="yes"/>
      <point x="474.0" y="135" type="line"/>
      <point x="361.0" y="135" type="line"/>
    </contour>
    <contour>
      <point x="609.0" y="495" type="line"/>
      <point x="571.0" y="230" type="line"/>
      <point x="292.0" y="230" type="line"/>
      <point x="330.0" y="495" type="line"/>
    </contour>
    <contour>
      <point x="262.0" y="90" type="line"/>
      <point x="272.0" y="90" type="line"/>
      <point x="291.0" y="220" type="line"/>
      <point x="570.0" y="220" type="line"/>
      <point x="551.0" y="90" type="line"/>
      <point x="561.0" y="90" type="line"/>
      <point x="580.0" y="220" type="line"/>
      <point x="664.0" y="220" type="line"/>
      <point x="664.0" y="230" type="line"/>
      <point x="581.0" y="230" type="line"/>
      <point x="619.0" y="495" type="line"/>
      <point x="700.0" y="495" type="line"/>
      <point x="700.0" y="505" type="line"/>
      <point x="620.0" y="505" type="line"/>
      <point x="638.0" y="630" type="line"/>
      <point x="628.0" y="630" type="line"/>
      <point x="610.0" y="505" type="line"/>
      <point x="331.0" y="505" type="line"/>
      <point x="349.0" y="630" type="line"/>
      <point x="339.0" y="630" type="line"/>
      <point x="321.0" y="505" type="line"/>
      <point x="236.0" y="505" type="line"/>
      <point x="236.0" y="495" type="line"/>
      <point x="320.0" y="495" type="line"/>
      <point x="282.0" y="230" type="line"/>
      <point x="200.0" y="230" type="line"/>
      <point x="200.0" y="220" type="line"/>
      <point x="281.0" y="220" type="line"/>
    </contour>
  </outline>
</glyph>
<glyph name="dollar" format="1">
  <advance width="1100"/>
  <unicode hex="0024"/>
  <outline>
    <contour>
      <point x="526.0" y="612" type="line"/>
      <point x="526.0" y="774" type="line" smooth="yes"/>
      <point x="526.0" y="806"/>
      <point x="512.0" y="820"/>
      <point x="480.0" y="820" type="curve" smooth="yes"/>
      <point x="335.0" y="820" type="line" smooth="yes"/>
      <point x="321.0" y="820"/>
      <point x="310.0" y="817"/>
      <point x="303.0" y="811" type="curve" smooth="yes"/>
      <point x="174.0" y="702" type="line" smooth="yes"/>
      <point x="166.0" y="695"/>
      <point x="160.0" y="685"/>
      <point x="160.0" y="666" type="curve" smooth="yes"/>
      <point x="160.0" y="612" type="line"/>
    </contour>
    <contour>
      <point x="289.0" y="93" type="line"/>
      <point x="160.0" y="19" type="line"/>
      <point x="160.0" y="-163" type="line" smooth="yes"/>
      <point x="160.0" y="-195"/>
      <point x="174.0" y="-209"/>
      <point x="206.0" y="-209" type="curve" smooth="yes"/>
      <point x="351.0" y="-209" type="line" smooth="yes"/>
      <point x="365.0" y="-209"/>
      <point x="376.0" y="-205"/>
      <point x="382.0" y="-199" type="curve"/>
      <point x="512.0" y="-91" type="line" smooth="yes"/>
      <point x="521.0" y="-83"/>
      <point x="526.0" y="-73"/>
      <point x="526.0" y="-55" type="curve"/>
      <point x="526.0" y="93" type="line"/>
    </contour>
    <contour>
      <point x="516.0" y="622" type="line"/>
      <point x="299.0" y="622" type="line"/>
      <point x="299.0" y="774" type="line" smooth="yes"/>
      <point x="299.0" y="799"/>
      <point x="310.0" y="810"/>
      <point x="335.0" y="810" type="curve" smooth="yes"/>
      <point x="480.0" y="810" type="line" smooth="yes"/>
      <point x="505.0" y="810"/>
      <point x="516.0" y="799"/>
      <point x="516.0" y="774" type="curve" smooth="yes"/>
    </contour>
    <contour>
      <point x="299.0" y="83" type="line"/>
      <point x="516.0" y="83" type="line"/>
      <point x="516.0" y="-54" type="line" smooth="yes"/>
      <point x="516.0" y="-79"/>
      <point x="505.0" y="-90"/>
      <point x="480.0" y="-90" type="curve" smooth="yes"/>
      <point x="335.0" y="-90" type="line" smooth="yes"/>
      <point x="310.0" y="-90"/>
      <point x="299.0" y="-79"/>
      <point x="299.0" y="-54" type="curve" smooth="yes"/>
    </contour>
    <contour>
      <point x="403.0" y="720" type="line"/>
      <point x="403.0" y="626" type="line"/>
      <point x="413.0" y="626" type="line"/>
      <point x="413.0" y="720" type="line"/>
    </contour>
    <contour>
      <point x="403.0" y="94" type="line"/>
      <point x="403.0" y="0" type="line"/>
      <point x="413.0" y="0" type="line"/>
      <point x="413.0" y="94" type="line"/>
    </contour>
    <component base="S"/>
  </outline>
</glyph>
<glyph name="percent" format="1">
  <advance width="1481"/>
  <unicode hex="0025"/>
  <outline>
    <contour>
      <point x="765.0" y="-125" type="curve" smooth="yes"/>
      <point x="842.0" y="-125"/>
      <point x="888.0" y="-111"/>
      <point x="915.0" y="-88" type="curve" smooth="yes"/>
      <point x="1044.0" y="21" type="line" smooth="yes"/>
      <point x="1072.0" y="43"/>
      <point x="1081.0" y="75"/>
      <point x="1081.0" y="113" type="curve" smooth="yes"/>
      <point x="1081.0" y="303" type="line" smooth="yes"/>
      <point x="1081.0" y="378"/>
      <point x="1049.0" y="432"/>
      <point x="894.0" y="432" type="curve" smooth="yes"/>
      <point x="817.0" y="432"/>
      <point x="770.0" y="418"/>
      <point x="742.0" y="395" type="curve" smooth="yes"/>
      <point x="693.0" y="354" type="line"/>
      <point x="774.0" y="682" type="line" smooth="yes"/>
      <point x="782.0" y="713"/>
      <point x="767.0" y="730"/>
      <point x="733.0" y="730" type="curve" smooth="yes"/>
      <point x="628.0" y="730" type="line" smooth="yes"/>
      <point x="613.0" y="730"/>
      <point x="603.0" y="726"/>
      <point x="596.0" y="720" type="curve" smooth="yes"/>
      <point x="482.0" y="625" type="line"/>
      <point x="477.0" y="690"/>
      <point x="438.0" y="735"/>
      <point x="296.0" y="735" type="curve" smooth="yes"/>
      <point x="219.0" y="735"/>
      <point x="172.0" y="721"/>
      <point x="144.0" y="698" type="curve" smooth="yes"/>
      <point x="15.0" y="589" type="line" smooth="yes"/>
      <point x="-13.0" y="567"/>
      <point x="-22.0" y="535"/>
      <point x="-22.0" y="497" type="curve" smooth="yes"/>
      <point x="-22.0" y="307" type="line" smooth="yes"/>
      <point x="-22.0" y="232"/>
      <point x="12.0" y="178"/>
      <point x="167.0" y="178" type="curve" smooth="yes"/>
      <point x="244.0" y="178"/>
      <point x="290.0" y="192"/>
      <point x="317.0" y="215" type="curve" smooth="yes"/>
      <point x="370.0" y="260" type="line"/>
      <point x="288.0" y="-71" type="line" smooth="yes"/>
      <point x="280.0" y="-102"/>
      <point x="295.0" y="-119"/>
      <point x="329.0" y="-119" type="curve" smooth="yes"/>
      <point x="434.0" y="-119" type="line" smooth="yes"/>
      <point x="448.0" y="-119"/>
      <point x="459.0" y="-115"/>
      <point x="466.0" y="-109" type="curve" smooth="yes"/>
      <point x="577.0" y="-16" type="line"/>
      <point x="583.0" y="-80"/>
      <point x="624.0" y="-125"/>
    </contour>
    <contour>
      <point x="473.0" y="416" type="line"/>
      <point x="473.0" y="345"/>
      <point x="439.0" y="297"/>
      <point x="296.0" y="297" type="curve" smooth="yes"/>
      <point x="153.0" y="297"/>
      <point x="117.0" y="345"/>
      <point x="117.0" y="416" type="curve" smooth="yes"/>
      <point x="117.0" y="606" type="line" smooth="yes"/>
      <point x="117.0" y="677"/>
      <point x="153.0" y="725"/>
      <point x="296.0" y="725" type="curve" smooth="yes"/>
      <point x="439.0" y="725"/>
      <point x="473.0" y="677"/>
      <point x="473.0" y="606" type="curve" smooth="yes"/>
    </contour>
    <contour>
      <point x="427.0" y="36" type="curve" smooth="yes"/>
      <point x="587.0" y="684" type="line" smooth="yes"/>
      <point x="593.0" y="708"/>
      <point x="603.0" y="720"/>
      <point x="628.0" y="720" type="curve" smooth="yes"/>
      <point x="733.0" y="720" type="line" smooth="yes"/>
      <point x="758.0" y="720"/>
      <point x="770.0" y="708"/>
      <point x="764.0" y="684" type="curve" smooth="yes"/>
      <point x="604.0" y="36" type="line" smooth="yes"/>
      <point x="598.0" y="12"/>
      <point x="588.0" y="0"/>
      <point x="563.0" y="0" type="curve" smooth="yes"/>
      <point x="458.0" y="0" type="line" smooth="yes"/>
      <point x="433.0" y="0"/>
      <point x="421.0" y="12"/>
    </contour>
    <contour>
      <point x="262.0" y="447" type="line"/>
      <point x="262.0" y="437"/>
      <point x="267.0" y="429"/>
      <point x="296.0" y="429" type="curve" smooth="yes"/>
      <point x="324.0" y="429"/>
      <point x="329.0" y="437"/>
      <point x="329.0" y="447" type="curve" smooth="yes"/>
      <point x="329.0" y="575" type="line" smooth="yes"/>
      <point x="329.0" y="583"/>
      <point x="324.0" y="592"/>
      <point x="296.0" y="592" type="curve" smooth="yes"/>
      <point x="267.0" y="592"/>
      <point x="262.0" y="583"/>
      <point x="262.0" y="575" type="curve" smooth="yes"/>
    </contour>
    <contour>
      <point x="1071.0" y="113" type="line"/>
      <point x="1071.0" y="42"/>
      <point x="1037.0" y="-6"/>
      <point x="894.0" y="-6" type="curve" smooth="yes"/>
      <point x="751.0" y="-6"/>
      <point x="715.0" y="42"/>
      <point x="715.0" y="113" type="curve" smooth="yes"/>
      <point x="715.0" y="303" type="line" smooth="yes"/>
      <point x="715.0" y="374"/>
      <point x="751.0" y="422"/>
      <point x="894.0" y="422" type="curve" smooth="yes"/>
      <point x="1037.0" y="422"/>
      <point x="1071.0" y="374"/>
      <point x="1071.0" y="303" type="curve" smooth="yes"/>
    </contour>
    <contour>
      <point x="860.0" y="144" type="line"/>
      <point x="860.0" y="134"/>
      <point x="865.0" y="126"/>
      <point x="894.0" y="126" type="curve" smooth="yes"/>
      <point x="922.0" y="126"/>
      <point x="927.0" y="134"/>
      <point x="927.0" y="144" type="curve" smooth="yes"/>
      <point x="927.0" y="272" type="line" smooth="yes"/>
      <point x="927.0" y="280"/>
      <point x="922.0" y="289"/>
      <point x="894.0" y="289" type="curve" smooth="yes"/>
      <point x="865.0" y="289"/>
      <point x="860.0" y="280"/>
      <point x="860.0" y="272" type="curve" smooth="yes"/>
    </contour>
    <contour>
      <point x="406.0" y="583" type="line" smooth="yes"/>
      <point x="406.0" y="641"/>
      <point x="375.0" y="663"/>
      <point x="296.0" y="663" type="curve" smooth="yes"/>
      <point x="218.0" y="663"/>
      <point x="185.0" y="641"/>
      <point x="185.0" y="583" type="curve" smooth="yes"/>
      <point x="185.0" y="437" type="line" smooth="yes"/>
      <point x="185.0" y="379"/>
      <point x="218.0" y="358"/>
      <point x="296.0" y="358" type="curve" smooth="yes"/>
      <point x="375.0" y="358"/>
      <point x="406.0" y="379"/>
      <point x="406.0" y="437" type="curve" smooth="yes"/>
    </contour>
    <contour>
      <point x="296.0" y="368" type="curve" smooth="yes"/>
      <point x="228.0" y="368"/>
      <point x="195.0" y="385"/>
      <point x="195.0" y="437" type="curve" smooth="yes"/>
      <point x="195.0" y="583" type="line" smooth="yes"/>
      <point x="195.0" y="635"/>
      <point x="228.0" y="653"/>
      <point x="296.0" y="653" type="curve" smooth="yes"/>
      <point x="365.0" y="653"/>
      <point x="396.0" y="635"/>
      <point x="396.0" y="583" type="curve" smooth="yes"/>
      <point x="396.0" y="437" type="line" smooth="yes"/>
      <point x="396.0" y="385"/>
      <point x="365.0" y="368"/>
    </contour>
    <contour>
      <point x="534.0" y="90" type="line"/>
      <point x="667.0" y="630" type="line"/>
      <point x="657.0" y="630" type="line"/>
      <point x="524.0" y="90" type="line"/>
    </contour>
    <contour>
      <point x="1006.0" y="280" type="line" smooth="yes"/>
      <point x="1006.0" y="338"/>
      <point x="975.0" y="360"/>
      <point x="896.0" y="360" type="curve" smooth="yes"/>
      <point x="818.0" y="360"/>
      <point x="785.0" y="338"/>
      <point x="785.0" y="280" type="curve" smooth="yes"/>
      <point x="785.0" y="134" type="line" smooth="yes"/>
      <point x="785.0" y="76"/>
      <point x="818.0" y="55"/>
      <point x="896.0" y="55" type="curve" smooth="yes"/>
      <point x="975.0" y="55"/>
      <point x="1006.0" y="76"/>
      <point x="1006.0" y="134" type="curve" smooth="yes"/>
    </contour>
    <contour>
      <point x="896.0" y="65" type="curve" smooth="yes"/>
      <point x="828.0" y="65"/>
      <point x="795.0" y="82"/>
      <point x="795.0" y="134" type="curve" smooth="yes"/>
      <point x="795.0" y="280" type="line" smooth="yes"/>
      <point x="795.0" y="332"/>
      <point x="828.0" y="350"/>
      <point x="896.0" y="350" type="curve" smooth="yes"/>
      <point x="965.0" y="350"/>
      <point x="996.0" y="332"/>
      <point x="996.0" y="280" type="curve" smooth="yes"/>
      <point x="996.0" y="134" type="line" smooth="yes"/>
      <point x="996.0" y="82"/>
      <point x="965.0" y="65"/>
    </contour>
  </outline>
</glyph>
<glyph name="ampersand" format="1">
  <advance width="1216"/>
  <unicode hex="0026"/>
  <outline>
    <contour>
      <point x="172.0" y="-119" type="curve" smooth="yes"/>
      <point x="450.0" y="-119" type="line" smooth="yes"/>
      <point x="505.0" y="-119"/>
      <point x="548.0" y="-104"/>
      <point x="579.0" y="-78" type="curve" smooth="yes"/>
      <point x="708.0" y="31" type="line" smooth="yes"/>
      <point x="747.0" y="64"/>
      <point x="768.0" y="114"/>
      <point x="768.0" y="176" type="curve" smooth="yes"/>
      <point x="768.0" y="182" type="line"/>
      <point x="813.0" y="220" type="line" smooth="yes"/>
      <point x="822.0" y="228"/>
      <point x="827.0" y="239"/>
      <point x="827.0" y="257" type="curve" smooth="yes"/>
      <point x="827.0" y="365" type="line" smooth="yes"/>
      <point x="827.0" y="398"/>
      <point x="813.0" y="411"/>
      <point x="781.0" y="411" type="curve" smooth="yes"/>
      <point x="587.0" y="411" type="line" smooth="yes"/>
      <point x="573.0" y="411"/>
      <point x="562.0" y="408"/>
      <point x="555.0" y="402" type="curve" smooth="yes"/>
      <point x="497.0" y="353" type="line"/>
      <point x="497.0" y="416" type="line" smooth="yes"/>
      <point x="497.0" y="422"/>
      <point x="496.0" y="428"/>
      <point x="495.0" y="433" type="curve"/>
      <point x="614.0" y="532" type="line" smooth="yes"/>
      <point x="623.0" y="540"/>
      <point x="628.0" y="551"/>
      <point x="628.0" y="569" type="curve" smooth="yes"/>
      <point x="628.0" y="684" type="line" smooth="yes"/>
      <point x="628.0" y="716"/>
      <point x="614.0" y="730"/>
      <point x="582.0" y="730" type="curve" smooth="yes"/>
      <point x="371.0" y="730" type="line" smooth="yes"/>
      <point x="302.0" y="730"/>
      <point x="252.0" y="714"/>
      <point x="219.0" y="686" type="curve" smooth="yes"/>
      <point x="91.0" y="578" type="line" smooth="yes"/>
      <point x="55.0" y="548"/>
      <point x="40.0" y="506"/>
      <point x="40.0" y="458" type="curve" smooth="yes"/>
      <point x="40.0" y="410" type="line" smooth="yes"/>
      <point x="40.0" y="371"/>
      <point x="48.0" y="339"/>
      <point x="71.0" y="316" type="curve"/>
      <point x="27.0" y="280" type="line" smooth="yes"/>
      <point x="-6.0" y="252"/>
      <point x="-27.0" y="208"/>
      <point x="-27.0" y="147" type="curve" smooth="yes"/>
      <point x="-27.0" y="67" type="line" smooth="yes"/>
      <point x="-27.0" y="-46"/>
      <point x="42.0" y="-119"/>
    </contour>
    <contour>
      <point x="412.0" y="197" type="line"/>
      <point x="388.0" y="197" type="line"/>
      <point x="412.0" y="217" type="line"/>
    </contour>
    <contour>
      <point x="371.0" y="187" type="curve" smooth="yes"/>
      <point x="513.0" y="187" type="line" smooth="yes"/>
      <point x="542.0" y="187"/>
      <point x="551.0" y="200"/>
      <point x="551.0" y="227" type="curve" smooth="yes"/>
      <point x="551.0" y="365" type="line" smooth="yes"/>
      <point x="551.0" y="390"/>
      <point x="562.0" y="401"/>
      <point x="587.0" y="401" type="curve" smooth="yes"/>
      <point x="781.0" y="401" type="line" smooth="yes"/>
      <point x="806.0" y="401"/>
      <point x="817.0" y="391"/>
      <point x="817.0" y="365" type="curve" smooth="yes"/>
      <point x="817.0" y="257" type="line" smooth="yes"/>
      <point x="817.0" y="232"/>
      <point x="806.0" y="221"/>
      <point x="781.0" y="221" type="curve" smooth="yes"/>
      <point x="758.0" y="221" type="line"/>
      <point x="758.0" y="176" type="line" smooth="yes"/>
      <point x="758.0" y="69"/>
      <point x="695.0" y="0"/>
      <point x="579.0" y="0" type="curve" smooth="yes"/>
      <point x="301.0" y="0" type="line" smooth="yes"/>
      <point x="178.0" y="0"/>
      <point x="112.0" y="69"/>
      <point x="112.0" y="176" type="curve" smooth="yes"/>
      <point x="112.0" y="256" type="line" smooth="yes"/>
      <point x="112.0" y="350"/>
      <point x="166.0" y="404"/>
      <point x="238.0" y="411" type="curve"/>
      <point x="194.0" y="430"/>
      <point x="179.0" y="468"/>
      <point x="179.0" y="519" type="curve" smooth="yes"/>
      <point x="179.0" y="567" type="line" smooth="yes"/>
      <point x="179.0" y="655"/>
      <point x="235.0" y="720"/>
      <point x="371.0" y="720" type="curve" smooth="yes"/>
      <point x="582.0" y="720" type="line" smooth="yes"/>
      <point x="607.0" y="720"/>
      <point x="618.0" y="709"/>
      <point x="618.0" y="684" type="curve" smooth="yes"/>
      <point x="618.0" y="569" type="line" smooth="yes"/>
      <point x="618.0" y="544"/>
      <point x="607.0" y="533"/>
      <point x="582.0" y="533" type="curve" smooth="yes"/>
      <point x="436.0" y="533" type="line" smooth="yes"/>
      <point x="404.0" y="533"/>
      <point x="398.0" y="519"/>
      <point x="398.0" y="503" type="curve" smooth="yes"/>
      <point x="398.0" y="482" type="line" smooth="yes"/>
      <point x="398.0" y="466"/>
      <point x="404.0" y="452"/>
      <point x="436.0" y="452" type="curve" smooth="yes"/>
      <point x="451.0" y="452" type="line" smooth="yes"/>
      <point x="476.0" y="452"/>
      <point x="487.0" y="441"/>
      <point x="487.0" y="416" type="curve" smooth="yes"/>
      <point x="487.0" y="313" type="line" smooth="yes"/>
      <point x="487.0" y="288"/>
      <point x="476.0" y="277"/>
      <point x="451.0" y="277" type="curve" smooth="yes"/>
      <point x="371.0" y="277" type="line" smooth="yes"/>
      <point x="339.0" y="277"/>
      <point x="333.0" y="264"/>
      <point x="333.0" y="248" type="curve" smooth="yes"/>
      <point x="333.0" y="217" type="line" smooth="yes"/>
      <point x="333.0" y="201"/>
      <point x="339.0" y="187"/>
    </contour>
    <contour>
      <point x="325.0" y="90" type="curve" smooth="yes"/>
      <point x="566.0" y="90" type="line" smooth="yes"/>
      <point x="625.0" y="90"/>
      <point x="659.0" y="119"/>
      <point x="659.0" y="181" type="curve" smooth="yes"/>
      <point x="659.0" y="306" type="line"/>
      <point x="724.0" y="306" type="line"/>
      <point x="724.0" y="316" type="line"/>
      <point x="649.0" y="316" type="line"/>
      <point x="649.0" y="181" type="line" smooth="yes"/>
      <point x="649.0" y="127"/>
      <point x="619.0" y="100"/>
      <point x="566.0" y="100" type="curve" smooth="yes"/>
      <point x="331.0" y="100" type="line" smooth="yes"/>
      <point x="252.0" y="100"/>
      <point x="218.0" y="130"/>
      <point x="218.0" y="198" type="curve" smooth="yes"/>
      <point x="218.0" y="259" type="line" smooth="yes"/>
      <point x="218.0" y="319"/>
      <point x="254.0" y="363"/>
      <point x="330.0" y="363" type="curve" smooth="yes"/>
      <point x="397.0" y="363" type="line"/>
      <point x="397.0" y="373" type="line"/>
      <point x="387.0" y="373" type="line" smooth="yes"/>
      <point x="324.0" y="373"/>
      <point x="295.0" y="404"/>
      <point x="295.0" y="469" type="curve" smooth="yes"/>
      <point x="295.0" y="523" type="line" smooth="yes"/>
      <point x="295.0" y="591"/>
      <point x="328.0" y="620"/>
      <point x="403.0" y="620" type="curve" smooth="yes"/>
      <point x="528.0" y="620" type="line"/>
      <point x="528.0" y="630" type="line"/>
      <point x="403.0" y="630" type="line" smooth="yes"/>
      <point x="322.0" y="630"/>
      <point x="285.0" y="599"/>
      <point x="285.0" y="525" type="curve" smooth="yes"/>
      <point x="285.0" y="469" type="line" smooth="yes"/>
      <point x="285.0" y="417"/>
      <point x="302.0" y="386"/>
      <point x="337.0" y="372" type="curve"/>
      <point x="330.0" y="372" type="line" smooth="yes"/>
      <point x="247.0" y="372"/>
      <point x="208.0" y="325"/>
      <point x="208.0" y="259" type="curve" smooth="yes"/>
      <point x="208.0" y="198" type="line" smooth="yes"/>
      <point x="208.0" y="124"/>
      <point x="246.0" y="90"/>
    </contour>
  </outline>
</glyph>
<glyph name="quotesingle" format="1">
  <advance width="806"/>
  <unicode hex="0027"/>
  <outline>
    <contour>
      <point x="196.0" y="226" type="line" smooth="yes"/>
      <point x="216.0" y="226"/>
      <point x="227.0" y="229"/>
      <point x="235.0" y="235" type="curve" smooth="yes"/>
      <point x="364.0" y="343" type="line" smooth="yes"/>
      <point x="372.0" y="351"/>
      <point x="376.0" y="362"/>
      <point x="377.0" y="385" type="curve" smooth="yes"/>
      <point x="385.0" y="679" type="line" smooth="yes"/>
      <point x="386.0" y="723"/>
      <point x="379.0" y="730"/>
      <point x="336.0" y="730" type="curve" smooth="yes"/>
      <point x="171.0" y="730" type="line" smooth="yes"/>
      <point x="152.0" y="730"/>
      <point x="140.0" y="728"/>
      <point x="133.0" y="722" type="curve" smooth="yes"/>
      <point x="3.0" y="613" type="line" smooth="yes"/>
      <point x="-6.0" y="605"/>
      <point x="-9.0" y="594"/>
      <point x="-8.0" y="569" type="curve" smooth="yes"/>
      <point x="0.0" y="277" type="line" smooth="yes"/>
      <point x="1.0" y="233"/>
      <point x="9.0" y="226"/>
      <point x="52.0" y="226" type="curve" smooth="yes"/>
    </contour>
    <contour>
      <point x="325.0" y="345" type="curve" smooth="yes"/>
      <point x="181.0" y="345" type="line" smooth="yes"/>
      <point x="146.0" y="345"/>
      <point x="140.0" y="351"/>
      <point x="139.0" y="386" type="curve" smooth="yes"/>
      <point x="131.0" y="679" type="line" smooth="yes"/>
      <point x="130.0" y="714"/>
      <point x="136.0" y="720"/>
      <point x="171.0" y="720" type="curve" smooth="yes"/>
      <point x="336.0" y="720" type="line" smooth="yes"/>
      <point x="370.0" y="720"/>
      <point x="376.0" y="714"/>
      <point x="375.0" y="679" type="curve" smooth="yes"/>
      <point x="367.0" y="386" type="line" smooth="yes"/>
      <point x="365.0" y="351"/>
      <point x="360.0" y="345"/>
    </contour>
    <contour>
      <point x="248.0" y="630" type="line"/>
      <point x="248.0" y="435" type="line"/>
      <point x="258.0" y="435" type="line"/>
      <point x="258.0" y="630" type="line"/>
    </contour>
  </outline>
</glyph>
<glyph name="parenleft" format="1">
  <advance width="879"/>
  <unicode hex="0028"/>
  <outline>
    <contour>
      <point x="294.0" y="-199" type="line" smooth="yes"/>
      <point x="308.0" y="-199"/>
      <point x="319.0" y="-195"/>
      <point x="325.0" y="-189" type="curve"/>
      <point x="455.0" y="-81" type="line" smooth="yes"/>
      <point x="464.0" y="-73"/>
      <point x="469.0" y="-62"/>
      <point x="469.0" y="-44" type="curve" smooth="yes"/>
      <point x="469.0" y="75" type="line" smooth="yes"/>
      <point x="469.0" y="107"/>
      <point x="455.0" y="121"/>
      <point x="423.0" y="121" type="curve" smooth="yes"/>
      <point x="392.0" y="121" type="line" smooth="yes"/>
      <point x="366.0" y="121"/>
      <point x="361.0" y="135"/>
      <point x="361.0" y="161" type="curve" smooth="yes"/>
      <point x="361.0" y="527" type="line"/>
      <point x="455.0" y="606" type="line" smooth="yes"/>
      <point x="464.0" y="614"/>
      <point x="469.0" y="625"/>
      <point x="469.0" y="643" type="curve" smooth="yes"/>
      <point x="469.0" y="764" type="line" smooth="yes"/>
      <point x="469.0" y="796"/>
      <point x="455.0" y="810"/>
      <point x="423.0" y="810" type="curve" smooth="yes"/>
      <point x="369.0" y="810" type="line" smooth="yes"/>
      <point x="277.0" y="810"/>
      <point x="215.0" y="791"/>
      <point x="176.0" y="758" type="curve" smooth="yes"/>
      <point x="47.0" y="649" type="line" smooth="yes"/>
      <point x="1.0" y="611"/>
      <point x="-16.0" y="554"/>
      <point x="-16.0" y="486" type="curve" smooth="yes"/>
      <point x="-16.0" y="15" type="line" smooth="yes"/>
      <point x="-16.0" y="-111"/>
      <point x="42.0" y="-199"/>
      <point x="240.0" y="-199" type="curve" smooth="yes"/>
    </contour>
    <contour>
      <point x="423.0" y="-80" type="curve" smooth="yes"/>
      <point x="369.0" y="-80" type="line" smooth="yes"/>
      <point x="180.0" y="-80"/>
      <point x="123.0" y="3"/>
      <point x="123.0" y="124" type="curve" smooth="yes"/>
      <point x="123.0" y="595" type="line" smooth="yes"/>
      <point x="123.0" y="717"/>
      <point x="180.0" y="800"/>
      <point x="369.0" y="800" type="curve" smooth="yes"/>
      <point x="423.0" y="800" type="line" smooth="yes"/>
      <point x="448.0" y="800"/>
      <point x="459.0" y="789"/>
      <point x="459.0" y="764" type="curve" smooth="yes"/>
      <point x="459.0" y="643" type="line" smooth="yes"/>
      <point x="459.0" y="618"/>
      <point x="448.0" y="607"/>
      <point x="423.0" y="607" type="curve" smooth="yes"/>
      <point x="392.0" y="607" type="line" smooth="yes"/>
      <point x="360.0" y="607"/>
      <point x="351.0" y="592"/>
      <point x="351.0" y="557" type="curve" smooth="yes"/>
      <point x="351.0" y="161" type="line"/>
      <point x="351.0" y="126"/>
      <point x="360.0" y="111"/>
      <point x="392.0" y="111" type="curve" smooth="yes"/>
      <point x="423.0" y="111" type="line" smooth="yes"/>
      <point x="448.0" y="111"/>
      <point x="459.0" y="100"/>
      <point x="459.0" y="75" type="curve" smooth="yes"/>
      <point x="459.0" y="-44" type="line" smooth="yes"/>
      <point x="459.0" y="-69"/>
      <point x="448.0" y="-80"/>
    </contour>
    <contour>
      <point x="369.0" y="21" type="line"/>
      <point x="290.0" y="21"/>
      <point x="242.0" y="42"/>
      <point x="242.0" y="124" type="curve" smooth="yes"/>
      <point x="242.0" y="595" type="line" smooth="yes"/>
      <point x="242.0" y="677"/>
      <point x="289.0" y="698"/>
      <point x="369.0" y="698" type="curve"/>
      <point x="369.0" y="708" type="line"/>
      <point x="281.0" y="708"/>
      <point x="232.0" y="683"/>
      <point x="232.0" y="595" type="curve" smooth="yes"/>
      <point x="232.0" y="124" type="line" smooth="yes"/>
      <point x="232.0" y="36"/>
      <point x="282.0" y="11"/>
      <point x="369.0" y="11" type="curve"/>
    </contour>
  </outline>
</glyph>
<glyph name="parenright" format="1">
  <advance width="879"/>
  <unicode hex="0029"/>
  <outline>
    <contour>
      <point x="27.0" y="-199" type="curve" smooth="yes"/>
      <point x="81.0" y="-199" type="line" smooth="yes"/>
      <point x="173.0" y="-199"/>
      <point x="234.0" y="-179"/>
      <point x="274.0" y="-146" type="curve" smooth="yes"/>
      <point x="403.0" y="-37" type="line" smooth="yes"/>
      <point x="449.0" y="1"/>
      <point x="466.0" y="57"/>
      <point x="466.0" y="124" type="curve" smooth="yes"/>
      <point x="466.0" y="595" type="line" smooth="yes"/>
      <point x="466.0" y="722"/>
      <point x="408.0" y="810"/>
      <point x="210.0" y="810" type="curve" smooth="yes"/>
      <point x="156.0" y="810" type="line" smooth="yes"/>
      <point x="142.0" y="810"/>
      <point x="131.0" y="807"/>
      <point x="124.0" y="801" type="curve" smooth="yes"/>
      <point x="-5.0" y="692" type="line" smooth="yes"/>
      <point x="-14.0" y="684"/>
      <point x="-19.0" y="673"/>
      <point x="-19.0" y="655" type="curve" smooth="yes"/>
      <point x="-19.0" y="534" type="line" smooth="yes"/>
      <point x="-19.0" y="502"/>
      <point x="-5.0" y="488"/>
      <point x="27.0" y="488" type="curve" smooth="yes"/>
      <point x="58.0" y="488" type="line" smooth="yes"/>
      <point x="84.0" y="488"/>
      <point x="89.0" y="474"/>
      <point x="89.0" y="448" type="curve" smooth="yes"/>
      <point x="89.0" y="82" type="line"/>
      <point x="-5.0" y="3" type="line" smooth="yes"/>
      <point x="-14.0" y="-5"/>
      <point x="-19.0" y="-16"/>
      <point x="-19.0" y="-34" type="curve" smooth="yes"/>
      <point x="-19.0" y="-153" type="line" smooth="yes"/>
      <point x="-19.0" y="-185"/>
      <point x="-5.0" y="-199"/>
    </contour>
    <contour>
      <point x="210.0" y="-80" type="curve" smooth="yes"/>
      <point x="156.0" y="-80" type="line" smooth="yes"/>
      <point x="131.0" y="-80"/>
      <point x="120.0" y="-69"/>
      <point x="120.0" y="-44" type="curve" smooth="yes"/>
      <point x="120.0" y="75" type="line" smooth="yes"/>
      <point x="120.0" y="100"/>
      <point x="131.0" y="111"/>
      <point x="156.0" y="111" type="curve" smooth="yes"/>
      <point x="187.0" y="111" type="line" smooth="yes"/>
      <point x="219.0" y="111"/>
      <point x="228.0" y="126"/>
      <point x="228.0" y="161" type="curve"/>
      <point x="228.0" y="557" type="line" smooth="yes"/>
      <point x="228.0" y="592"/>
      <point x="219.0" y="607"/>
      <point x="187.0" y="607" type="curve" smooth="yes"/>
      <point x="156.0" y="607" type="line" smooth="yes"/>
      <point x="131.0" y="607"/>
      <point x="120.0" y="618"/>
      <point x="120.0" y="643" type="curve" smooth="yes"/>
      <point x="120.0" y="764" type="line" smooth="yes"/>
      <point x="120.0" y="789"/>
      <point x="131.0" y="800"/>
      <point x="156.0" y="800" type="curve" smooth="yes"/>
      <point x="210.0" y="800" type="line" smooth="yes"/>
      <point x="399.0" y="800"/>
      <point x="456.0" y="717"/>
      <point x="456.0" y="595" type="curve" smooth="yes"/>
      <point x="456.0" y="124" type="line" smooth="yes"/>
      <point x="456.0" y="3"/>
      <point x="399.0" y="-80"/>
    </contour>
    <contour>
      <point x="347.0" y="124" type="curve" smooth="yes"/>
      <point x="347.0" y="595" type="line" smooth="yes"/>
      <point x="347.0" y="683"/>
      <point x="298.0" y="708"/>
      <point x="210.0" y="708" type="curve"/>
      <point x="210.0" y="698" type="line"/>
      <point x="290.0" y="698"/>
      <point x="337.0" y="677"/>
      <point x="337.0" y="595" type="curve" smooth="yes"/>
      <point x="337.0" y="124" type="line" smooth="yes"/>
      <point x="337.0" y="42"/>
      <point x="289.0" y="21"/>
      <point x="210.0" y="21" type="curve"/>
      <point x="210.0" y="11" type="line"/>
      <point x="297.0" y="11"/>
      <point x="347.0" y="36"/>
    </contour>
  </outline>
</glyph>
<glyph name="asterisk" format="1">
  <advance width="1168"/>
  <unicode hex="002A"/>
  <outline>
    <contour>
      <point x="437.0" y="36" type="curve" smooth="yes"/>
      <point x="532.0" y="104" type="line"/>
      <point x="533.0" y="104" type="line"/>
      <point x="533.0" y="105" type="line" smooth="yes"/>
      <point x="536.0" y="108"/>
      <point x="539.0" y="110"/>
      <point x="542.0" y="112" type="curve"/>
      <point x="671.0" y="220" type="line" smooth="yes"/>
      <point x="694.0" y="241"/>
      <point x="695.0" y="252"/>
      <point x="668.0" y="282" type="curve" smooth="yes"/>
      <point x="628.0" y="324" type="line"/>
      <point x="739.0" y="417" type="line" smooth="yes"/>
      <point x="748.0" y="426"/>
      <point x="751.0" y="437"/>
      <point x="741.0" y="464" type="curve" smooth="yes"/>
      <point x="704.0" y="575" type="line" smooth="yes"/>
      <point x="690.0" y="618"/>
      <point x="680.0" y="622"/>
      <point x="642.0" y="603" type="curve" smooth="yes"/>
      <point x="521.0" y="547" type="line"/>
      <point x="539.0" y="678" type="line" smooth="yes"/>
      <point x="547.0" y="721"/>
      <point x="539.0" y="730"/>
      <point x="495.0" y="730" type="curve" smooth="yes"/>
      <point x="378.0" y="730" type="line" smooth="yes"/>
      <point x="360.0" y="730"/>
      <point x="348.0" y="728"/>
      <point x="341.0" y="722" type="curve" smooth="yes"/>
      <point x="211.0" y="613" type="line"/>
      <point x="210.0" y="612" type="line" smooth="yes"/>
      <point x="209.0" y="612"/>
      <point x="209.0" y="611"/>
      <point x="209.0" y="611" type="curve"/>
      <point x="196.0" y="614"/>
      <point x="187.0" y="612"/>
      <point x="181.0" y="607" type="curve" smooth="yes"/>
      <point x="52.0" y="498" type="line" smooth="yes"/>
      <point x="46.0" y="493"/>
      <point x="40.0" y="483"/>
      <point x="35.0" y="466" type="curve" smooth="yes"/>
      <point x="-1.0" y="355" type="line" smooth="yes"/>
      <point x="-15.0" y="313"/>
      <point x="-8.0" y="304"/>
      <point x="35.0" y="296" type="curve" smooth="yes"/>
      <point x="169.0" y="274" type="line"/>
      <point x="73.0" y="173" type="line" smooth="yes"/>
      <point x="43.0" y="141"/>
      <point x="44.0" y="129"/>
      <point x="80.0" y="104" type="curve" smooth="yes"/>
      <point x="174.0" y="36" type="line"/>
      <point x="201.0" y="19"/>
      <point x="213.0" y="19"/>
      <point x="225.0" y="30" type="curve" smooth="yes"/>
      <point x="334.0" y="121" type="line"/>
      <point x="371.0" y="51" type="line" smooth="yes"/>
      <point x="392.0" y="15"/>
      <point x="400.0" y="11"/>
    </contour>
    <contour>
      <point x="361.0" y="165" type="line" smooth="yes"/>
      <point x="345.0" y="137"/>
      <point x="337.0" y="134"/>
      <point x="308.0" y="153" type="curve"/>
      <point x="214.0" y="221" type="line" smooth="yes"/>
      <point x="186.0" y="241"/>
      <point x="185.0" y="250"/>
      <point x="208.0" y="275" type="curve" smooth="yes"/>
      <point x="317.0" y="390" type="line"/>
      <point x="165.0" y="415" type="line" smooth="yes"/>
      <point x="131.0" y="421"/>
      <point x="126.0" y="428"/>
      <point x="137.0" y="461" type="curve" smooth="yes"/>
      <point x="173.0" y="572" type="line" smooth="yes"/>
      <point x="183.0" y="605"/>
      <point x="192.0" y="609"/>
      <point x="222.0" y="594" type="curve" smooth="yes"/>
      <point x="364.0" y="530" type="line"/>
      <point x="341.0" y="679" type="line" smooth="yes"/>
      <point x="336.0" y="713"/>
      <point x="343.0" y="720"/>
      <point x="377.0" y="720" type="curve" smooth="yes"/>
      <point x="494.0" y="720" type="line" smooth="yes"/>
      <point x="528.0" y="720"/>
      <point x="534.0" y="713"/>
      <point x="528.0" y="679" type="curve" smooth="yes"/>
      <point x="508.0" y="530" type="line"/>
      <point x="645.0" y="594" type="line" smooth="yes"/>
      <point x="675.0" y="609"/>
      <point x="683.0" y="605"/>
      <point x="694.0" y="572" type="curve" smooth="yes"/>
      <point x="731.0" y="461" type="line" smooth="yes"/>
      <point x="742.0" y="428"/>
      <point x="737.0" y="421"/>
      <point x="703.0" y="415" type="curve" smooth="yes"/>
      <point x="550.0" y="390" type="line"/>
      <point x="660.0" y="275" type="line" smooth="yes"/>
      <point x="683.0" y="250"/>
      <point x="682.0" y="241"/>
      <point x="654.0" y="221" type="curve" smooth="yes"/>
      <point x="560.0" y="153" type="line" smooth="yes"/>
      <point x="531.0" y="134"/>
      <point x="524.0" y="137"/>
      <point x="508.0" y="165" type="curve" smooth="yes"/>
      <point x="434.0" y="306" type="line"/>
    </contour>
    <contour>
      <point x="545.0" y="268" type="line"/>
      <point x="553.0" y="274" type="line"/>
      <point x="447.0" y="426" type="line"/>
      <point x="619.0" y="482" type="line"/>
      <point x="615.0" y="492" type="line"/>
      <point x="441.0" y="435" type="line"/>
      <point x="441.0" y="630" type="line"/>
      <point x="431.0" y="630" type="line"/>
      <point x="431.0" y="435" type="line"/>
      <point x="257.0" y="492" type="line"/>
      <point x="253.0" y="482" type="line"/>
      <point x="425.0" y="426" type="line"/>
      <point x="319.0" y="274" type="line"/>
      <point x="327.0" y="268" type="line"/>
      <point x="436.0" y="423" type="line"/>
    </contour>
  </outline>
</glyph>
<glyph name="plus" format="1">
  <advance width="1184"/>
  <unicode hex="002B"/>
  <outline>
    <contour>
      <point x="375.0" y="-56" type="line" smooth="yes"/>
      <point x="388.0" y="-56"/>
      <point x="399.0" y="-52"/>
      <point x="407.0" y="-47" type="curve" smooth="yes"/>
      <point x="536.0" y="62" type="line" smooth="yes"/>
      <point x="545.0" y="70"/>
      <point x="550.0" y="81"/>
      <point x="550.0" y="99" type="curve" smooth="yes"/>
      <point x="550.0" y="148" type="line"/>
      <point x="574.0" y="148" type="line" smooth="yes"/>
      <point x="587.0" y="148"/>
      <point x="598.0" y="152"/>
      <point x="606.0" y="157" type="curve" smooth="yes"/>
      <point x="735.0" y="266" type="line" smooth="yes"/>
      <point x="744.0" y="274"/>
      <point x="749.0" y="285"/>
      <point x="749.0" y="303" type="curve" smooth="yes"/>
      <point x="749.0" y="417" type="line" smooth="yes"/>
      <point x="749.0" y="450"/>
      <point x="735.0" y="463"/>
      <point x="703.0" y="463" type="curve" smooth="yes"/>
      <point x="550.0" y="463" type="line"/>
      <point x="550.0" y="621" type="line" smooth="yes"/>
      <point x="550.0" y="653"/>
      <point x="536.0" y="667"/>
      <point x="504.0" y="667" type="curve" smooth="yes"/>
      <point x="380.0" y="667" type="line" smooth="yes"/>
      <point x="365.0" y="667"/>
      <point x="355.0" y="664"/>
      <point x="348.0" y="658" type="curve" smooth="yes"/>
      <point x="218.0" y="549" type="line"/>
      <point x="217.0" y="548" type="line" smooth="yes"/>
      <point x="209.0" y="541"/>
      <point x="205.0" y="530"/>
      <point x="205.0" y="512" type="curve" smooth="yes"/>
      <point x="205.0" y="463" type="line"/>
      <point x="181.0" y="463" type="line" smooth="yes"/>
      <point x="167.0" y="463"/>
      <point x="156.0" y="460"/>
      <point x="149.0" y="454" type="curve" smooth="yes"/>
      <point x="20.0" y="345" type="line" smooth="yes"/>
      <point x="11.0" y="337"/>
      <point x="6.0" y="326"/>
      <point x="6.0" y="308" type="curve" smooth="yes"/>
      <point x="6.0" y="194" type="line" smooth="yes"/>
      <point x="6.0" y="161"/>
      <point x="20.0" y="148"/>
      <point x="52.0" y="148" type="curve" smooth="yes"/>
      <point x="205.0" y="148" type="line"/>
      <point x="205.0" y="-10" type="line" smooth="yes"/>
      <point x="205.0" y="-42"/>
      <point x="218.0" y="-56"/>
      <point x="251.0" y="-56" type="curve" smooth="yes"/>
    </contour>
    <contour>
      <point x="540.0" y="99" type="line" smooth="yes"/>
      <point x="540.0" y="74"/>
      <point x="530.0" y="63"/>
      <point x="504.0" y="63" type="curve" smooth="yes"/>
      <point x="380.0" y="63" type="line" smooth="yes"/>
      <point x="354.0" y="63"/>
      <point x="344.0" y="74"/>
      <point x="344.0" y="99" type="curve" smooth="yes"/>
      <point x="344.0" y="267" type="line"/>
      <point x="181.0" y="267" type="line"/>
      <point x="156.0" y="267"/>
      <point x="145.0" y="277"/>
      <point x="145.0" y="303" type="curve" smooth="yes"/>
      <point x="145.0" y="417" type="line" smooth="yes"/>
      <point x="145.0" y="442"/>
      <point x="156.0" y="453"/>
      <point x="181.0" y="453" type="curve" smooth="yes"/>
      <point x="344.0" y="453" type="line"/>
      <point x="344.0" y="621" type="line"/>
      <point x="344.0" y="646"/>
      <point x="354.0" y="657"/>
      <point x="380.0" y="657" type="curve" smooth="yes"/>
      <point x="504.0" y="657" type="line" smooth="yes"/>
      <point x="529.0" y="657"/>
      <point x="540.0" y="646"/>
      <point x="540.0" y="621" type="curve" smooth="yes"/>
      <point x="540.0" y="453" type="line"/>
      <point x="703.0" y="453" type="line" smooth="yes"/>
      <point x="728.0" y="453"/>
      <point x="739.0" y="443"/>
      <point x="739.0" y="417" type="curve" smooth="yes"/>
      <point x="739.0" y="303" type="line" smooth="yes"/>
      <point x="739.0" y="277"/>
      <point x="728.0" y="267"/>
      <point x="703.0" y="267" type="curve" smooth="yes"/>
      <point x="540.0" y="267" type="line"/>
    </contour>
    <contour>
      <point x="437.0" y="153" type="line"/>
      <point x="447.0" y="153" type="line"/>
      <point x="447.0" y="355" type="line"/>
      <point x="649.0" y="355" type="line"/>
      <point x="649.0" y="365" type="line"/>
      <point x="447.0" y="365" type="line"/>
      <point x="447.0" y="567" type="line"/>
      <point x="437.0" y="567" type="line"/>
      <point x="437.0" y="365" type="line"/>
      <point x="235.0" y="365" type="line"/>
      <point x="235.0" y="355" type="line"/>
      <point x="437.0" y="355" type="line"/>
    </contour>
  </outline>
</glyph>
<glyph name="comma" format="1">
  <advance width="834"/>
  <unicode hex="002C"/>
  <outline>
    <contour>
      <point x="50.0" y="-219" type="curve" smooth="yes"/>
      <point x="127.0" y="-219" type="line" smooth="yes"/>
      <point x="171.0" y="-219"/>
      <point x="208.0" y="-207"/>
      <point x="234.0" y="-185" type="curve" smooth="yes"/>
      <point x="364.0" y="-76" type="line" smooth="yes"/>
      <point x="395.0" y="-49"/>
      <point x="414.0" y="-8"/>
      <point x="414.0" y="51" type="curve" smooth="yes"/>
      <point x="414.0" y="239" type="line" smooth="yes"/>
      <point x="414.0" y="271"/>
      <point x="400.0" y="285"/>
      <point x="368.0" y="285" type="curve" smooth="yes"/>
      <point x="166.0" y="285" type="line" smooth="yes"/>
      <point x="152.0" y="285"/>
      <point x="141.0" y="282"/>
      <point x="134.0" y="276" type="curve" smooth="yes"/>
      <point x="5.0" y="167" type="line" smooth="yes"/>
      <point x="-4.0" y="159"/>
      <point x="-9.0" y="148"/>
      <point x="-9.0" y="130" type="curve" smooth="yes"/>
      <point x="-9.0" y="-18" type="line" smooth="yes"/>
      <point x="-9.0" y="-50"/>
      <point x="5.0" y="-64"/>
      <point x="37.0" y="-64" type="curve" smooth="yes"/>
      <point x="56.0" y="-64" type="line"/>
      <point x="18.0" y="-96" type="line" smooth="yes"/>
      <point x="9.0" y="-104"/>
      <point x="4.0" y="-115"/>
      <point x="4.0" y="-133" type="curve" smooth="yes"/>
      <point x="4.0" y="-173" type="line" smooth="yes"/>
      <point x="4.0" y="-206"/>
      <point x="18.0" y="-219"/>
    </contour>
    <contour>
      <point x="256.0" y="-100" type="curve" smooth="yes"/>
      <point x="179.0" y="-100" type="line" smooth="yes"/>
      <point x="154.0" y="-100"/>
      <point x="143.0" y="-90"/>
      <point x="143.0" y="-64" type="curve" smooth="yes"/>
      <point x="143.0" y="-24" type="line" smooth="yes"/>
      <point x="143.0" y="1"/>
      <point x="154.0" y="12"/>
      <point x="179.0" y="12" type="curve" smooth="yes"/>
      <point x="248.0" y="12" type="line" smooth="yes"/>
      <point x="266.0" y="12"/>
      <point x="275.0" y="22"/>
      <point x="275.0" y="40" type="curve" smooth="yes"/>
      <point x="275.0" y="55" type="line"/>
      <point x="166.0" y="55" type="line" smooth="yes"/>
      <point x="141.0" y="55"/>
      <point x="130.0" y="66"/>
      <point x="130.0" y="91" type="curve" smooth="yes"/>
      <point x="130.0" y="239" type="line" smooth="yes"/>
      <point x="130.0" y="264"/>
      <point x="141.0" y="275"/>
      <point x="166.0" y="275" type="curve" smooth="yes"/>
      <point x="368.0" y="275" type="line" smooth="yes"/>
      <point x="393.0" y="275"/>
      <point x="404.0" y="264"/>
      <point x="404.0" y="239" type="curve" smooth="yes"/>
      <point x="404.0" y="51" type="line" smooth="yes"/>
      <point x="404.0" y="-51"/>
      <point x="346.0" y="-100"/>
    </contour>
    <contour>
      <point x="334.0" y="170" type="line"/>
      <point x="200.0" y="170" type="line"/>
      <point x="200.0" y="160" type="line"/>
      <point x="324.0" y="160" type="line"/>
      <point x="324.0" y="51" type="line" smooth="yes"/>
      <point x="324.0" y="-3"/>
      <point x="294.0" y="-30"/>
      <point x="246.0" y="-30" type="curve" smooth="yes"/>
      <point x="200.0" y="-30" type="line"/>
      <point x="200.0" y="-40" type="line"/>
      <point x="246.0" y="-40" type="line" smooth="yes"/>
      <point x="300.0" y="-40"/>
      <point x="334.0" y="-10"/>
      <point x="334.0" y="51" type="curve" smooth="yes"/>
    </contour>
  </outline>
</glyph>
<glyph name="hyphen" format="1">
  <advance width="870"/>
  <unicode hex="002D"/>
  <unicode hex="00AD"/>
  <unicode hex="2010"/>
  <outline>
    <contour>
      <point x="290.0" y="138" type="line" smooth="yes"/>
      <point x="303.0" y="138"/>
      <point x="314.0" y="142"/>
      <point x="322.0" y="147" type="curve" smooth="yes"/>
      <point x="451.0" y="256" type="line" smooth="yes"/>
      <point x="460.0" y="264"/>
      <point x="465.0" y="275"/>
      <point x="465.0" y="293" type="curve" smooth="yes"/>
      <point x="465.0" y="427" type="line" smooth="yes"/>
      <point x="465.0" y="460"/>
      <point x="451.0" y="473"/>
      <point x="419.0" y="473" type="curve" smooth="yes"/>
      <point x="151.0" y="473" type="line" smooth="yes"/>
      <point x="137.0" y="473"/>
      <point x="126.0" y="470"/>
      <point x="119.0" y="464" type="curve" smooth="yes"/>
      <point x="-10.0" y="355" type="line" smooth="yes"/>
      <point x="-19.0" y="347"/>
      <point x="-24.0" y="336"/>
      <point x="-24.0" y="318" type="curve" smooth="yes"/>
      <point x="-24.0" y="184" type="line" smooth="yes"/>
      <point x="-24.0" y="151"/>
      <point x="-10.0" y="138"/>
      <point x="22.0" y="138" type="curve" smooth="yes"/>
    </contour>
    <contour>
      <point x="151.0" y="257" type="line"/>
      <point x="126.0" y="257"/>
      <point x="115.0" y="267"/>
      <point x="115.0" y="293" type="curve" smooth="yes"/>
      <point x="115.0" y="427" type="line" smooth="yes"/>
      <point x="115.0" y="452"/>
      <point x="126.0" y="463"/>
      <point x="151.0" y="463" type="curve" smooth="yes"/>
      <point x="419.0" y="463" type="line" smooth="yes"/>
      <point x="444.0" y="463"/>
      <point x="455.0" y="453"/>
      <point x="455.0" y="427" type="curve" smooth="yes"/>
      <point x="455.0" y="293" type="line" smooth="yes"/>
      <point x="455.0" y="267"/>
      <point x="444.0" y="257"/>
      <point x="419.0" y="257" type="curve" smooth="yes"/>
    </contour>
    <contour>
      <point x="365.0" y="365" type="line"/>
      <point x="205.0" y="365" type="line"/>
      <point x="205.0" y="355" type="line"/>
      <point x="365.0" y="355" type="line"/>
    </contour>
  </outline>
</glyph>
<glyph name="period" format="1">
  <advance width="834"/>
  <unicode hex="002E"/>
  <outline>
    <contour>
      <point x="239.0" y="-119" type="line" smooth="yes"/>
      <point x="253.0" y="-119"/>
      <point x="264.0" y="-115"/>
      <point x="270.0" y="-109" type="curve"/>
      <point x="400.0" y="-1" type="line" smooth="yes"/>
      <point x="409.0" y="7"/>
      <point x="414.0" y="18"/>
      <point x="414.0" y="36" type="curve" smooth="yes"/>
      <point x="414.0" y="239" type="line" smooth="yes"/>
      <point x="414.0" y="272"/>
      <point x="400.0" y="285"/>
      <point x="368.0" y="285" type="curve" smooth="yes"/>
      <point x="166.0" y="285" type="line" smooth="yes"/>
      <point x="151.0" y="285"/>
      <point x="141.0" y="282"/>
      <point x="134.0" y="276" type="curve" smooth="yes"/>
      <point x="4.0" y="167" type="line" smooth="yes"/>
      <point x="-4.0" y="160"/>
      <point x="-9.0" y="148"/>
      <point x="-9.0" y="130" type="curve" smooth="yes"/>
      <point x="-9.0" y="-73" type="line" smooth="yes"/>
      <point x="-9.0" y="-105"/>
      <point x="5.0" y="-119"/>
      <point x="37.0" y="-119" type="curve" smooth="yes"/>
    </contour>
    <contour>
      <point x="368.0" y="0" type="curve" smooth="yes"/>
      <point x="166.0" y="0" type="line" smooth="yes"/>
      <point x="141.0" y="0"/>
      <point x="130.0" y="11"/>
      <point x="130.0" y="36" type="curve"/>
      <point x="130.0" y="239" type="line"/>
      <point x="130.0" y="265"/>
      <point x="141.0" y="275"/>
      <point x="166.0" y="275" type="curve" smooth="yes"/>
      <point x="368.0" y="275" type="line" smooth="yes"/>
      <point x="393.0" y="275"/>
      <point x="404.0" y="265"/>
      <point x="404.0" y="239" type="curve" smooth="yes"/>
      <point x="404.0" y="36" type="line" smooth="yes"/>
      <point x="404.0" y="11"/>
      <point x="393.0" y="0"/>
    </contour>
    <contour>
      <point x="262.0" y="90" type="line"/>
      <point x="272.0" y="90" type="line"/>
      <point x="272.0" y="185" type="line"/>
      <point x="262.0" y="185" type="line"/>
    </contour>
  </outline>
</glyph>
<glyph name="slash" format="1">
  <advance width="797"/>
  <unicode hex="002F"/>
  <outline>
    <contour>
      <point x="132.0" y="-209" type="line" smooth="yes"/>
      <point x="146.0" y="-209"/>
      <point x="154.0" y="-205"/>
      <point x="162.0" y="-200" type="curve" smooth="yes"/>
      <point x="291.0" y="-91" type="line"/>
      <point x="300.0" y="-85"/>
      <point x="304.0" y="-73"/>
      <point x="307.0" y="-55" type="curve" smooth="yes"/>
      <point x="427.0" y="773" type="line" smooth="yes"/>
      <point x="431.0" y="805"/>
      <point x="414.0" y="820"/>
      <point x="381.0" y="820" type="curve" smooth="yes"/>
      <point x="236.0" y="820" type="line" smooth="yes"/>
      <point x="222.0" y="820"/>
      <point x="212.0" y="817"/>
      <point x="205.0" y="811" type="curve"/>
      <point x="76.0" y="703" type="line" smooth="yes"/>
      <point x="67.0" y="695"/>
      <point x="62.0" y="683"/>
      <point x="61.0" y="666" type="curve"/>
      <point x="-59.0" y="-162" type="line" smooth="yes"/>
      <point x="-63.0" y="-194"/>
      <point x="-46.0" y="-209"/>
      <point x="-13.0" y="-209" type="curve" smooth="yes"/>
    </contour>
    <contour>
      <point x="80.0" y="-54" type="curve"/>
      <point x="200.0" y="774" type="line" smooth="yes"/>
      <point x="203.0" y="799"/>
      <point x="211.0" y="810"/>
      <point x="236.0" y="810" type="curve" smooth="yes"/>
      <point x="381.0" y="810" type="line" smooth="yes"/>
      <point x="406.0" y="810"/>
      <point x="420.0" y="799"/>
      <point x="417.0" y="774" type="curve" smooth="yes"/>
      <point x="297.0" y="-54" type="line" smooth="yes"/>
      <point x="294.0" y="-79"/>
      <point x="286.0" y="-90"/>
      <point x="261.0" y="-90" type="curve" smooth="yes"/>
      <point x="116.0" y="-90" type="line" smooth="yes"/>
      <point x="91.0" y="-90"/>
      <point x="77.0" y="-79"/>
    </contour>
    <contour>
      <point x="296.0" y="720" type="line"/>
      <point x="192.0" y="0" type="line"/>
      <point x="202.0" y="0" type="line"/>
      <point x="306.0" y="720" type="line"/>
    </contour>
  </outline>
</glyph>
<glyph name="zero" format="1">
  <advance width="1177"/>
  <unicode hex="0030"/>
  <outline>
    <contour>
      <point x="564.0" y="-72" type="curve" smooth="yes"/>
      <point x="694.0" y="36" type="line" smooth="yes"/>
      <point x="739.0" y="74"/>
      <point x="754.0" y="127"/>
      <point x="754.0" y="189" type="curve" smooth="yes"/>
      <point x="754.0" y="530" type="line" smooth="yes"/>
      <point x="754.0" y="656"/>
      <point x="697.0" y="745"/>
      <point x="439.0" y="745" type="curve" smooth="yes"/>
      <point x="308.0" y="745"/>
      <point x="230.0" y="722"/>
      <point x="184.0" y="683" type="curve" smooth="yes"/>
      <point x="54.0" y="574" type="line" smooth="yes"/>
      <point x="9.0" y="537"/>
      <point x="-6.0" y="484"/>
      <point x="-6.0" y="421" type="curve" smooth="yes"/>
      <point x="-6.0" y="80" type="line" smooth="yes"/>
      <point x="-6.0" y="-46"/>
      <point x="52.0" y="-134"/>
      <point x="310.0" y="-134" type="curve" smooth="yes"/>
      <point x="440.0" y="-134"/>
      <point x="518.0" y="-111"/>
    </contour>
    <contour>
      <point x="369.0" y="225" type="curve" smooth="yes"/>
      <point x="369.0" y="410" type="line"/>
      <point x="378.0" y="404"/>
      <point x="380.0" y="395"/>
      <point x="380.0" y="385" type="curve" smooth="yes"/>
      <point x="380.0" y="200" type="line"/>
      <point x="371.0" y="206"/>
      <point x="369.0" y="215"/>
    </contour>
    <contour>
      <point x="744.0" y="189" type="line" smooth="yes"/>
      <point x="744.0" y="67"/>
      <point x="685.0" y="-15"/>
      <point x="439.0" y="-15" type="curve" smooth="yes"/>
      <point x="193.0" y="-15"/>
      <point x="133.0" y="67"/>
      <point x="133.0" y="189" type="curve" smooth="yes"/>
      <point x="133.0" y="530" type="line" smooth="yes"/>
      <point x="133.0" y="652"/>
      <point x="193.0" y="735"/>
      <point x="439.0" y="735" type="curve" smooth="yes"/>
      <point x="685.0" y="735"/>
      <point x="744.0" y="652"/>
      <point x="744.0" y="530" type="curve" smooth="yes"/>
    </contour>
    <contour>
      <point x="359.0" y="225" type="line" smooth="yes"/>
      <point x="359.0" y="198"/>
      <point x="371.0" y="178"/>
      <point x="439.0" y="178" type="curve" smooth="yes"/>
      <point x="508.0" y="178"/>
      <point x="519.0" y="198"/>
      <point x="519.0" y="225" type="curve" smooth="yes"/>
      <point x="519.0" y="494" type="line" smooth="yes"/>
      <point x="519.0" y="520"/>
      <point x="508.0" y="540"/>
      <point x="439.0" y="540" type="curve" smooth="yes"/>
      <point x="371.0" y="540"/>
      <point x="359.0" y="520"/>
      <point x="359.0" y="494" type="curve" smooth="yes"/>
    </contour>
    <contour>
      <point x="241.0" y="212" type="line" smooth="yes"/>
      <point x="241.0" y="132"/>
      <point x="282.0" y="77"/>
      <point x="438.0" y="77" type="curve" smooth="yes"/>
      <point x="594.0" y="77"/>
      <point x="637.0" y="132"/>
      <point x="637.0" y="212" type="curve" smooth="yes"/>
      <point x="637.0" y="507" type="line" smooth="yes"/>
      <point x="637.0" y="586"/>
      <point x="594.0" y="642"/>
      <point x="438.0" y="642" type="curve" smooth="yes"/>
      <point x="282.0" y="642"/>
      <point x="241.0" y="587"/>
      <point x="241.0" y="507" type="curve" smooth="yes"/>
    </contour>
    <contour>
      <point x="438.0" y="632" type="curve" smooth="yes"/>
      <point x="582.0" y="632"/>
      <point x="627.0" y="582"/>
      <point x="627.0" y="507" type="curve" smooth="yes"/>
      <point x="627.0" y="212" type="line" smooth="yes"/>
      <point x="627.0" y="136"/>
      <point x="582.0" y="87"/>
      <point x="438.0" y="87" type="curve" smooth="yes"/>
      <point x="294.0" y="87"/>
      <point x="251.0" y="136"/>
      <point x="251.0" y="212" type="curve" smooth="yes"/>
      <point x="251.0" y="507" type="line" smooth="yes"/>
      <point x="251.0" y="583"/>
      <point x="294.0" y="632"/>
    </contour>
    <contour>
      <point x="363.0" y="747.0" type="move" name="top"/>
    </contour>
    <contour>
      <point x="363.0" y="0.0" type="move" name="bottom"/>
    </contour>
  </outline>
</glyph>
<glyph name="one" format="1">
  <advance width="1051"/>
  <unicode hex="0031"/>
  <outline>
    <contour>
      <point x="472.0" y="-119" type="line" smooth="yes"/>
      <point x="486.0" y="-119"/>
      <point x="497.0" y="-115"/>
      <point x="503.0" y="-109" type="curve"/>
      <point x="633.0" y="-1" type="line" smooth="yes"/>
      <point x="642.0" y="7"/>
      <point x="647.0" y="18"/>
      <point x="647.0" y="36" type="curve" smooth="yes"/>
      <point x="647.0" y="157" type="line" smooth="yes"/>
      <point x="647.0" y="189"/>
      <point x="633.0" y="203"/>
      <point x="601.0" y="203" type="curve" smooth="yes"/>
      <point x="515.0" y="203" type="line"/>
      <point x="515.0" y="684" type="line" smooth="yes"/>
      <point x="515.0" y="716"/>
      <point x="501.0" y="730"/>
      <point x="469.0" y="730" type="curve" smooth="yes"/>
      <point x="179.0" y="730" type="line" smooth="yes"/>
      <point x="165.0" y="730"/>
      <point x="154.0" y="727"/>
      <point x="147.0" y="721" type="curve" smooth="yes"/>
      <point x="18.0" y="612" type="line" smooth="yes"/>
      <point x="9.0" y="604"/>
      <point x="4.0" y="593"/>
      <point x="4.0" y="575" type="curve" smooth="yes"/>
      <point x="4.0" y="454" type="line" smooth="yes"/>
      <point x="4.0" y="422"/>
      <point x="18.0" y="408"/>
      <point x="50.0" y="408" type="curve" smooth="yes"/>
      <point x="132.0" y="408" type="line"/>
      <point x="132.0" y="197" type="line"/>
      <point x="131.0" y="196"/>
      <point x="129.0" y="195"/>
      <point x="127.0" y="194" type="curve" smooth="yes"/>
      <point x="-2.0" y="85" type="line" smooth="yes"/>
      <point x="-11.0" y="77"/>
      <point x="-16.0" y="66"/>
      <point x="-16.0" y="48" type="curve" smooth="yes"/>
      <point x="-16.0" y="-73" type="line" smooth="yes"/>
      <point x="-16.0" y="-105"/>
      <point x="-2.0" y="-119"/>
      <point x="30.0" y="-119" type="curve" smooth="yes"/>
    </contour>
    <contour>
      <point x="601.0" y="0" type="curve" smooth="yes"/>
      <point x="159.0" y="0" type="line" smooth="yes"/>
      <point x="134.0" y="0"/>
      <point x="123.0" y="11"/>
      <point x="123.0" y="36" type="curve"/>
      <point x="123.0" y="157" type="line"/>
      <point x="123.0" y="182"/>
      <point x="134.0" y="193"/>
      <point x="159.0" y="193" type="curve" smooth="yes"/>
      <point x="271.0" y="193" type="line"/>
      <point x="271.0" y="527" type="line"/>
      <point x="179.0" y="527" type="line" smooth="yes"/>
      <point x="154.0" y="527"/>
      <point x="143.0" y="538"/>
      <point x="143.0" y="563" type="curve" smooth="yes"/>
      <point x="143.0" y="684" type="line" smooth="yes"/>
      <point x="143.0" y="709"/>
      <point x="154.0" y="720"/>
      <point x="179.0" y="720" type="curve" smooth="yes"/>
      <point x="469.0" y="720" type="line" smooth="yes"/>
      <point x="494.0" y="720"/>
      <point x="505.0" y="709"/>
      <point x="505.0" y="684" type="curve" smooth="yes"/>
      <point x="505.0" y="193" type="line"/>
      <point x="601.0" y="193" type="line"/>
      <point x="626.0" y="193"/>
      <point x="637.0" y="182"/>
      <point x="637.0" y="157" type="curve" smooth="yes"/>
      <point x="637.0" y="36" type="line"/>
      <point x="637.0" y="11"/>
      <point x="626.0" y="0"/>
    </contour>
    <contour>
      <point x="213.0" y="85" type="line"/>
      <point x="547.0" y="85" type="line"/>
      <point x="547.0" y="95" type="line"/>
      <point x="393.0" y="95" type="line"/>
      <point x="393.0" y="630" type="line"/>
      <point x="233.0" y="630" type="line"/>
      <point x="233.0" y="620" type="line"/>
      <point x="383.0" y="620" type="line"/>
      <point x="383.0" y="95" type="line"/>
      <point x="213.0" y="95" type="line"/>
    </contour>
  </outline>
</glyph>
<glyph name="two" format="1">
  <advance width="1089"/>
  <unicode hex="0032"/>
  <outline>
    <contour>
      <point x="498.0" y="-119" type="line" smooth="yes"/>
      <point x="512.0" y="-119"/>
      <point x="523.0" y="-115"/>
      <point x="529.0" y="-109" type="curve"/>
      <point x="659.0" y="-1" type="line" smooth="yes"/>
      <point x="668.0" y="7"/>
      <point x="673.0" y="18"/>
      <point x="673.0" y="36" type="curve" smooth="yes"/>
      <point x="673.0" y="153" type="line" smooth="yes"/>
      <point x="673.0" y="185"/>
      <point x="659.0" y="199"/>
      <point x="627.0" y="199" type="curve" smooth="yes"/>
      <point x="457.0" y="199" type="line"/>
      <point x="467.0" y="205"/>
      <point x="475.0" y="211"/>
      <point x="483.0" y="217" type="curve" smooth="yes"/>
      <point x="612.0" y="325" type="line" smooth="yes"/>
      <point x="650.0" y="356"/>
      <point x="670.0" y="398"/>
      <point x="670.0" y="460" type="curve" smooth="yes"/>
      <point x="670.0" y="554" type="line" smooth="yes"/>
      <point x="670.0" y="668"/>
      <point x="605.0" y="730"/>
      <point x="484.0" y="730" type="curve" smooth="yes"/>
      <point x="189.0" y="730" type="line" smooth="yes"/>
      <point x="175.0" y="730"/>
      <point x="164.0" y="727"/>
      <point x="157.0" y="721" type="curve" smooth="yes"/>
      <point x="28.0" y="612" type="line" smooth="yes"/>
      <point x="19.0" y="604"/>
      <point x="14.0" y="593"/>
      <point x="14.0" y="575" type="curve" smooth="yes"/>
      <point x="14.0" y="458" type="line" smooth="yes"/>
      <point x="14.0" y="426"/>
      <point x="28.0" y="412"/>
      <point x="60.0" y="412" type="curve" smooth="yes"/>
      <point x="205.0" y="412" type="line"/>
      <point x="192.0" y="405"/>
      <point x="180.0" y="398"/>
      <point x="169.0" y="389" type="curve" smooth="yes"/>
      <point x="40.0" y="280" type="line" smooth="yes"/>
      <point x="0.0" y="247"/>
      <point x="-24.0" y="196"/>
      <point x="-24.0" y="99" type="curve" smooth="yes"/>
      <point x="-24.0" y="-73" type="line" smooth="yes"/>
      <point x="-24.0" y="-105"/>
      <point x="-10.0" y="-119"/>
      <point x="22.0" y="-119" type="curve" smooth="yes"/>
    </contour>
    <contour>
      <point x="627.0" y="0" type="curve" smooth="yes"/>
      <point x="151.0" y="0" type="line" smooth="yes"/>
      <point x="126.0" y="0"/>
      <point x="115.0" y="11"/>
      <point x="115.0" y="36" type="curve" smooth="yes"/>
      <point x="115.0" y="208" type="line" smooth="yes"/>
      <point x="115.0" y="363"/>
      <point x="180.0" y="399"/>
      <point x="272.0" y="427" type="curve" smooth="yes"/>
      <point x="406.0" y="469" type="line" smooth="yes"/>
      <point x="427.0" y="475"/>
      <point x="433.0" y="483"/>
      <point x="433.0" y="505" type="curve" smooth="yes"/>
      <point x="433.0" y="525"/>
      <point x="426.0" y="531"/>
      <point x="406.0" y="531" type="curve" smooth="yes"/>
      <point x="189.0" y="531" type="line" smooth="yes"/>
      <point x="164.0" y="531"/>
      <point x="153.0" y="542"/>
      <point x="153.0" y="567" type="curve" smooth="yes"/>
      <point x="153.0" y="684" type="line" smooth="yes"/>
      <point x="153.0" y="709"/>
      <point x="164.0" y="720"/>
      <point x="189.0" y="720" type="curve" smooth="yes"/>
      <point x="484.0" y="720" type="line" smooth="yes"/>
      <point x="598.0" y="720"/>
      <point x="660.0" y="662"/>
      <point x="660.0" y="554" type="curve" smooth="yes"/>
      <point x="660.0" y="460" type="line" smooth="yes"/>
      <point x="660.0" y="359"/>
      <point x="601.0" y="313"/>
      <point x="504.0" y="283" type="curve" smooth="yes"/>
      <point x="368.0" y="240" type="line" smooth="yes"/>
      <point x="348.0" y="234"/>
      <point x="342.0" y="232"/>
      <point x="342.0" y="210" type="curve" smooth="yes"/>
      <point x="342.0" y="189" type="line"/>
      <point x="627.0" y="189" type="line"/>
      <point x="652.0" y="189"/>
      <point x="663.0" y="178"/>
      <point x="663.0" y="153" type="curve" smooth="yes"/>
      <point x="663.0" y="36" type="line" smooth="yes"/>
      <point x="663.0" y="11"/>
      <point x="652.0" y="0"/>
    </contour>
    <contour>
      <point x="279.0" y="328" type="line" smooth="yes"/>
      <point x="238.0" y="314"/>
      <point x="224.0" y="295"/>
      <point x="224.0" y="246" type="curve" smooth="yes"/>
      <point x="224.0" y="90" type="line"/>
      <point x="573.0" y="90" type="line"/>
      <point x="573.0" y="100" type="line"/>
      <point x="233.0" y="100" type="line"/>
      <point x="233.0" y="246" type="line" smooth="yes"/>
      <point x="233.0" y="291"/>
      <point x="245.0" y="306"/>
      <point x="283.0" y="319" type="curve" smooth="yes"/>
      <point x="516.0" y="396" type="line"/>
      <point x="537.0" y="405"/>
      <point x="551.0" y="421"/>
      <point x="551.0" y="452" type="curve" smooth="yes"/>
      <point x="551.0" y="543" type="line" smooth="yes"/>
      <point x="551.0" y="610"/>
      <point x="512.0" y="630"/>
      <point x="444.0" y="630" type="curve" smooth="yes"/>
      <point x="243.0" y="630" type="line"/>
      <point x="243.0" y="620" type="line"/>
      <point x="444.0" y="620" type="line" smooth="yes"/>
      <point x="504.0" y="620"/>
      <point x="541.0" y="604"/>
      <point x="541.0" y="543" type="curve" smooth="yes"/>
      <point x="541.0" y="452" type="line" smooth="yes"/>
      <point x="541.0" y="427"/>
      <point x="529.0" y="412"/>
      <point x="512.0" y="405" type="curve"/>
    </contour>
  </outline>
</glyph>
<glyph name="three" format="1">
  <advance width="1087"/>
  <unicode hex="0033"/>
  <outline>
    <contour>
      <point x="31.0" y="-119" type="curve" smooth="yes"/>
      <point x="347.0" y="-119" type="line" smooth="yes"/>
      <point x="412.0" y="-119"/>
      <point x="462.0" y="-103"/>
      <point x="496.0" y="-74" type="curve" smooth="yes"/>
      <point x="624.0" y="34" type="line" smooth="yes"/>
      <point x="662.0" y="65"/>
      <point x="680.0" y="110"/>
      <point x="680.0" y="166" type="curve" smooth="yes"/>
      <point x="680.0" y="266" type="line" smooth="yes"/>
      <point x="680.0" y="351"/>
      <point x="652.0" y="399"/>
      <point x="573.0" y="416" type="curve"/>
      <point x="575.0" y="418" type="line" smooth="yes"/>
      <point x="602.0" y="441"/>
      <point x="613.0" y="475"/>
      <point x="613.0" y="519" type="curve" smooth="yes"/>
      <point x="613.0" y="577" type="line" smooth="yes"/>
      <point x="613.0" y="670"/>
      <point x="558.0" y="730"/>
      <point x="439.0" y="730" type="curve" smooth="yes"/>
      <point x="160.0" y="730" type="line" smooth="yes"/>
      <point x="146.0" y="730"/>
      <point x="135.0" y="727"/>
      <point x="128.0" y="721" type="curve" smooth="yes"/>
      <point x="-1.0" y="612" type="line" smooth="yes"/>
      <point x="-10.0" y="604"/>
      <point x="-15.0" y="593"/>
      <point x="-15.0" y="575" type="curve" smooth="yes"/>
      <point x="-15.0" y="456" type="line" smooth="yes"/>
      <point x="-15.0" y="424"/>
      <point x="-1.0" y="410"/>
      <point x="31.0" y="410" type="curve" smooth="yes"/>
      <point x="156.0" y="410" type="line"/>
      <point x="80.0" y="346" type="line" smooth="yes"/>
      <point x="71.0" y="338"/>
      <point x="66.0" y="327"/>
      <point x="66.0" y="309" type="curve" smooth="yes"/>
      <point x="66.0" y="202" type="line"/>
      <point x="66.0" y="178"/>
      <point x="74.0" y="164"/>
      <point x="92.0" y="159" type="curve"/>
      <point x="-1.0" y="81" type="line" smooth="yes"/>
      <point x="-10.0" y="73"/>
      <point x="-15.0" y="62"/>
      <point x="-15.0" y="44" type="curve" smooth="yes"/>
      <point x="-15.0" y="-73" type="line" smooth="yes"/>
      <point x="-15.0" y="-105"/>
      <point x="-1.0" y="-119"/>
    </contour>
    <contour>
      <point x="160.0" y="189" type="curve" smooth="yes"/>
      <point x="411.0" y="189" type="line" smooth="yes"/>
      <point x="443.0" y="189"/>
      <point x="449.0" y="203"/>
      <point x="449.0" y="219" type="curve" smooth="yes"/>
      <point x="449.0" y="246" type="line" smooth="yes"/>
      <point x="449.0" y="262"/>
      <point x="443.0" y="275"/>
      <point x="411.0" y="275" type="curve" smooth="yes"/>
      <point x="241.0" y="275" type="line" smooth="yes"/>
      <point x="216.0" y="275"/>
      <point x="205.0" y="286"/>
      <point x="205.0" y="311" type="curve" smooth="yes"/>
      <point x="205.0" y="418" type="line" smooth="yes"/>
      <point x="205.0" y="443"/>
      <point x="216.0" y="454"/>
      <point x="241.0" y="454" type="curve" smooth="yes"/>
      <point x="346.0" y="454" type="line" smooth="yes"/>
      <point x="378.0" y="454"/>
      <point x="384.0" y="468"/>
      <point x="384.0" y="484" type="curve" smooth="yes"/>
      <point x="384.0" y="499" type="line" smooth="yes"/>
      <point x="384.0" y="515"/>
      <point x="378.0" y="529"/>
      <point x="346.0" y="529" type="curve" smooth="yes"/>
      <point x="160.0" y="529" type="line" smooth="yes"/>
      <point x="135.0" y="529"/>
      <point x="124.0" y="540"/>
      <point x="124.0" y="565" type="curve" smooth="yes"/>
      <point x="124.0" y="684" type="line" smooth="yes"/>
      <point x="124.0" y="709"/>
      <point x="135.0" y="720"/>
      <point x="160.0" y="720" type="curve" smooth="yes"/>
      <point x="439.0" y="720" type="line" smooth="yes"/>
      <point x="550.0" y="720"/>
      <point x="603.0" y="665"/>
      <point x="603.0" y="577" type="curve" smooth="yes"/>
      <point x="603.0" y="519" type="line" smooth="yes"/>
      <point x="603.0" y="468"/>
      <point x="588.0" y="430"/>
      <point x="544.0" y="411" type="curve"/>
      <point x="639.0" y="400"/>
      <point x="670.0" y="354"/>
      <point x="670.0" y="266" type="curve" smooth="yes"/>
      <point x="670.0" y="166" type="line" smooth="yes"/>
      <point x="670.0" y="63"/>
      <point x="604.0" y="0"/>
      <point x="476.0" y="0" type="curve" smooth="yes"/>
      <point x="160.0" y="0" type="line" smooth="yes"/>
      <point x="135.0" y="0"/>
      <point x="124.0" y="11"/>
      <point x="124.0" y="36" type="curve" smooth="yes"/>
      <point x="124.0" y="153" type="line" smooth="yes"/>
      <point x="124.0" y="178"/>
      <point x="135.0" y="189"/>
    </contour>
    <contour>
      <point x="295.0" y="359" type="line"/>
      <point x="447.0" y="359" type="line" smooth="yes"/>
      <point x="524.0" y="359"/>
      <point x="555.0" y="326"/>
      <point x="555.0" y="259" type="curve" smooth="yes"/>
      <point x="555.0" y="190" type="line" smooth="yes"/>
      <point x="555.0" y="135"/>
      <point x="534.0" y="100"/>
      <point x="434.0" y="100" type="curve" smooth="yes"/>
      <point x="214.0" y="100" type="line"/>
      <point x="214.0" y="90" type="line"/>
      <point x="434.0" y="90" type="line" smooth="yes"/>
      <point x="546.0" y="90"/>
      <point x="565.0" y="131"/>
      <point x="565.0" y="190" type="curve" smooth="yes"/>
      <point x="565.0" y="259" type="line" smooth="yes"/>
      <point x="565.0" y="329"/>
      <point x="532.0" y="367"/>
      <point x="449.0" y="367" type="curve" smooth="yes"/>
      <point x="433.0" y="367" type="line"/>
      <point x="493.0" y="380"/>
      <point x="499.0" y="422"/>
      <point x="499.0" y="460" type="curve" smooth="yes"/>
      <point x="499.0" y="524" type="line" smooth="yes"/>
      <point x="499.0" y="582"/>
      <point x="479.0" y="630"/>
      <point x="368.0" y="630" type="curve" smooth="yes"/>
      <point x="214.0" y="630" type="line"/>
      <point x="214.0" y="620" type="line"/>
      <point x="368.0" y="620" type="line"/>
      <point x="466.0" y="620"/>
      <point x="489.0" y="580"/>
      <point x="489.0" y="528" type="curve" smooth="yes"/>
      <point x="489.0" y="460" type="line" smooth="yes"/>
      <point x="489.0" y="412"/>
      <point x="479.0" y="369"/>
      <point x="378.0" y="369" type="curve" smooth="yes"/>
      <point x="295.0" y="369" type="line"/>
    </contour>
  </outline>
</glyph>
<glyph name="four" format="1">
  <advance width="1159"/>
  <unicode hex="0034"/>
  <outline>
    <contour>
      <point x="550.0" y="-119" type="line" smooth="yes"/>
      <point x="564.0" y="-119"/>
      <point x="575.0" y="-115"/>
      <point x="581.0" y="-109" type="curve"/>
      <point x="711.0" y="-1" type="line" smooth="yes"/>
      <point x="720.0" y="7"/>
      <point x="725.0" y="18"/>
      <point x="725.0" y="36" type="curve" smooth="yes"/>
      <point x="725.0" y="684" type="line" smooth="yes"/>
      <point x="725.0" y="716"/>
      <point x="711.0" y="730"/>
      <point x="679.0" y="730" type="curve" smooth="yes"/>
      <point x="525.0" y="730" type="line" smooth="yes"/>
      <point x="511.0" y="730"/>
      <point x="500.0" y="727"/>
      <point x="493.0" y="721" type="curve" smooth="yes"/>
      <point x="375.0" y="621" type="line"/>
      <point x="375.0" y="684" type="line" smooth="yes"/>
      <point x="375.0" y="716"/>
      <point x="361.0" y="730"/>
      <point x="329.0" y="730" type="curve" smooth="yes"/>
      <point x="174.0" y="730" type="line" smooth="yes"/>
      <point x="160.0" y="730"/>
      <point x="149.0" y="727"/>
      <point x="142.0" y="721" type="curve" smooth="yes"/>
      <point x="13.0" y="612" type="line" smooth="yes"/>
      <point x="4.0" y="604"/>
      <point x="-1.0" y="593"/>
      <point x="-1.0" y="575" type="curve" smooth="yes"/>
      <point x="-1.0" y="224" type="line" smooth="yes"/>
      <point x="-1.0" y="104"/>
      <point x="53.0" y="48"/>
      <point x="191.0" y="48" type="curve" smooth="yes"/>
      <point x="350.0" y="48" type="line"/>
      <point x="350.0" y="-73" type="line" smooth="yes"/>
      <point x="350.0" y="-105"/>
      <point x="364.0" y="-119"/>
      <point x="396.0" y="-119" type="curve" smooth="yes"/>
    </contour>
    <contour>
      <point x="489.0" y="167" type="line"/>
      <point x="320.0" y="167" type="line" smooth="yes"/>
      <point x="190.0" y="167"/>
      <point x="138.0" y="219"/>
      <point x="138.0" y="333" type="curve" smooth="yes"/>
      <point x="138.0" y="684" type="line" smooth="yes"/>
      <point x="138.0" y="709"/>
      <point x="149.0" y="720"/>
      <point x="174.0" y="720" type="curve" smooth="yes"/>
      <point x="329.0" y="720" type="line" smooth="yes"/>
      <point x="354.0" y="720"/>
      <point x="365.0" y="709"/>
      <point x="365.0" y="684" type="curve" smooth="yes"/>
      <point x="365.0" y="410" type="line" smooth="yes"/>
      <point x="365.0" y="389"/>
      <point x="377.0" y="376"/>
      <point x="396.0" y="376" type="curve" smooth="yes"/>
      <point x="489.0" y="376" type="line"/>
      <point x="489.0" y="684" type="line" smooth="yes"/>
      <point x="489.0" y="709"/>
      <point x="500.0" y="720"/>
      <point x="525.0" y="720" type="curve" smooth="yes"/>
      <point x="679.0" y="720" type="line" smooth="yes"/>
      <point x="704.0" y="720"/>
      <point x="715.0" y="709"/>
      <point x="715.0" y="684" type="curve" smooth="yes"/>
      <point x="715.0" y="36" type="line" smooth="yes"/>
      <point x="715.0" y="11"/>
      <point x="704.0" y="0"/>
      <point x="679.0" y="0" type="curve" smooth="yes"/>
      <point x="525.0" y="0" type="line" smooth="yes"/>
      <point x="500.0" y="0"/>
      <point x="489.0" y="11"/>
      <point x="489.0" y="36" type="curve" smooth="yes"/>
    </contour>
    <contour>
      <point x="597.0" y="90" type="line"/>
      <point x="607.0" y="90" type="line"/>
      <point x="607.0" y="630" type="line"/>
      <point x="597.0" y="630" type="line"/>
      <point x="597.0" y="277" type="line"/>
      <point x="358.0" y="277" type="line" smooth="yes"/>
      <point x="289.0" y="277"/>
      <point x="257.0" y="308"/>
      <point x="257.0" y="372" type="curve" smooth="yes"/>
      <point x="257.0" y="630" type="line"/>
      <point x="247.0" y="630" type="line"/>
      <point x="247.0" y="372" type="line" smooth="yes"/>
      <point x="247.0" y="302"/>
      <point x="281.0" y="267"/>
      <point x="358.0" y="267" type="curve" smooth="yes"/>
      <point x="597.0" y="267" type="line"/>
    </contour>
  </outline>
</glyph>
<glyph name="five" format="1">
  <advance width="1097"/>
  <unicode hex="0035"/>
  <outline>
    <contour>
      <point x="37.0" y="-119" type="curve" smooth="yes"/>
      <point x="355.0" y="-119" type="line" smooth="yes"/>
      <point x="417.0" y="-119"/>
      <point x="467.0" y="-102"/>
      <point x="502.0" y="-73" type="curve" smooth="yes"/>
      <point x="632.0" y="36" type="line" smooth="yes"/>
      <point x="669.0" y="67"/>
      <point x="689.0" y="112"/>
      <point x="689.0" y="166" type="curve" smooth="yes"/>
      <point x="689.0" y="305" type="line" smooth="yes"/>
      <point x="689.0" y="395"/>
      <point x="643.0" y="449"/>
      <point x="567.0" y="467" type="curve"/>
      <point x="639.0" y="528" type="line" smooth="yes"/>
      <point x="648.0" y="536"/>
      <point x="653.0" y="547"/>
      <point x="653.0" y="565" type="curve" smooth="yes"/>
      <point x="653.0" y="684" type="line" smooth="yes"/>
      <point x="653.0" y="716"/>
      <point x="639.0" y="730"/>
      <point x="607.0" y="730" type="curve" smooth="yes"/>
      <point x="176.0" y="730" type="line" smooth="yes"/>
      <point x="162.0" y="730"/>
      <point x="151.0" y="727"/>
      <point x="144.0" y="721" type="curve" smooth="yes"/>
      <point x="15.0" y="612" type="line" smooth="yes"/>
      <point x="6.0" y="604"/>
      <point x="1.0" y="593"/>
      <point x="1.0" y="575" type="curve" smooth="yes"/>
      <point x="1.0" y="201" type="line" smooth="yes"/>
      <point x="1.0" y="169"/>
      <point x="15.0" y="155"/>
      <point x="47.0" y="155" type="curve" smooth="yes"/>
      <point x="93.0" y="155" type="line"/>
      <point x="5.0" y="81" type="line" smooth="yes"/>
      <point x="-4.0" y="73"/>
      <point x="-9.0" y="62"/>
      <point x="-9.0" y="44" type="curve" smooth="yes"/>
      <point x="-9.0" y="-73" type="line" smooth="yes"/>
      <point x="-9.0" y="-105"/>
      <point x="5.0" y="-119"/>
    </contour>
    <contour>
      <point x="484.0" y="0" type="curve" smooth="yes"/>
      <point x="166.0" y="0" type="line" smooth="yes"/>
      <point x="141.0" y="0"/>
      <point x="130.0" y="11"/>
      <point x="130.0" y="36" type="curve" smooth="yes"/>
      <point x="130.0" y="153" type="line" smooth="yes"/>
      <point x="130.0" y="178"/>
      <point x="141.0" y="189"/>
      <point x="166.0" y="189" type="curve" smooth="yes"/>
      <point x="424.0" y="189" type="line" smooth="yes"/>
      <point x="440.0" y="189"/>
      <point x="451.0" y="196"/>
      <point x="451.0" y="212" type="curve" smooth="yes"/>
      <point x="451.0" y="251" type="line" smooth="yes"/>
      <point x="451.0" y="267"/>
      <point x="440.0" y="274"/>
      <point x="424.0" y="274" type="curve" smooth="yes"/>
      <point x="176.0" y="274" type="line" smooth="yes"/>
      <point x="151.0" y="274"/>
      <point x="140.0" y="285"/>
      <point x="140.0" y="310" type="curve" smooth="yes"/>
      <point x="140.0" y="684" type="line" smooth="yes"/>
      <point x="140.0" y="709"/>
      <point x="151.0" y="720"/>
      <point x="176.0" y="720" type="curve" smooth="yes"/>
      <point x="607.0" y="720" type="line" smooth="yes"/>
      <point x="632.0" y="720"/>
      <point x="643.0" y="709"/>
      <point x="643.0" y="684" type="curve" smooth="yes"/>
      <point x="643.0" y="565" type="line" smooth="yes"/>
      <point x="643.0" y="540"/>
      <point x="632.0" y="529"/>
      <point x="607.0" y="529" type="curve" smooth="yes"/>
      <point x="367.0" y="529" type="line"/>
      <point x="367.0" y="464" type="line"/>
      <point x="504.0" y="464" type="line" smooth="yes"/>
      <point x="612.0" y="464"/>
      <point x="679.0" y="411"/>
      <point x="679.0" y="305" type="curve" smooth="yes"/>
      <point x="679.0" y="166" type="line" smooth="yes"/>
      <point x="679.0" y="64"/>
      <point x="604.0" y="0"/>
    </contour>
    <contour>
      <point x="220.0" y="90" type="line"/>
      <point x="456.0" y="90" type="line" smooth="yes"/>
      <point x="539.0" y="90"/>
      <point x="570.0" y="120"/>
      <point x="570.0" y="188" type="curve" smooth="yes"/>
      <point x="570.0" y="276" type="line" smooth="yes"/>
      <point x="570.0" y="345"/>
      <point x="535.0" y="374"/>
      <point x="465.0" y="374" type="curve" smooth="yes"/>
      <point x="259.0" y="374" type="line"/>
      <point x="259.0" y="620" type="line"/>
      <point x="553.0" y="620" type="line"/>
      <point x="553.0" y="630" type="line"/>
      <point x="249.0" y="630" type="line"/>
      <point x="249.0" y="364" type="line"/>
      <point x="465.0" y="364" type="line" smooth="yes"/>
      <point x="527.0" y="364"/>
      <point x="560.0" y="339"/>
      <point x="560.0" y="276" type="curve" smooth="yes"/>
      <point x="560.0" y="188" type="line" smooth="yes"/>
      <point x="560.0" y="126"/>
      <point x="531.0" y="100"/>
      <point x="456.0" y="100" type="curve" smooth="yes"/>
      <point x="220.0" y="100" type="line"/>
    </contour>
  </outline>
</glyph>
<glyph name="six" format="1">
  <advance width="1143"/>
  <unicode hex="0036"/>
  <outline>
    <contour>
      <point x="304.0" y="-134" type="curve" smooth="yes"/>
      <point x="423.0" y="-134"/>
      <point x="497.0" y="-112"/>
      <point x="541.0" y="-75" type="curve" smooth="yes"/>
      <point x="671.0" y="34" type="line" smooth="yes"/>
      <point x="716.0" y="71"/>
      <point x="731.0" y="124"/>
      <point x="731.0" y="187" type="curve" smooth="yes"/>
      <point x="731.0" y="283" type="line" smooth="yes"/>
      <point x="731.0" y="387"/>
      <point x="692.0" y="450"/>
      <point x="568.0" y="468" type="curve"/>
      <point x="641.0" y="529" type="line" smooth="yes"/>
      <point x="650.0" y="537"/>
      <point x="655.0" y="548"/>
      <point x="655.0" y="566" type="curve" smooth="yes"/>
      <point x="655.0" y="684" type="line" smooth="yes"/>
      <point x="655.0" y="716"/>
      <point x="642.0" y="730"/>
      <point x="609.0" y="730" type="curve" smooth="yes"/>
      <point x="379.0" y="730" type="line" smooth="yes"/>
      <point x="287.0" y="730"/>
      <point x="225.0" y="711"/>
      <point x="186.0" y="678" type="curve" smooth="yes"/>
      <point x="57.0" y="569" type="line" smooth="yes"/>
      <point x="11.0" y="531"/>
      <point x="-6.0" y="474"/>
      <point x="-6.0" y="406" type="curve" smooth="yes"/>
      <point x="-6.0" y="78" type="line" smooth="yes"/>
      <point x="-6.0" y="-48"/>
      <point x="46.0" y="-134"/>
    </contour>
    <contour>
      <point x="433.0" y="-15" type="curve" smooth="yes"/>
      <point x="187.0" y="-15"/>
      <point x="133.0" y="65"/>
      <point x="133.0" y="187" type="curve" smooth="yes"/>
      <point x="133.0" y="515" type="line" smooth="yes"/>
      <point x="133.0" y="637"/>
      <point x="190.0" y="720"/>
      <point x="379.0" y="720" type="curve" smooth="yes"/>
      <point x="609.0" y="720" type="line" smooth="yes"/>
      <point x="635.0" y="720"/>
      <point x="645.0" y="709"/>
      <point x="645.0" y="684" type="curve" smooth="yes"/>
      <point x="645.0" y="566" type="line" smooth="yes"/>
      <point x="645.0" y="541"/>
      <point x="634.0" y="530"/>
      <point x="609.0" y="530" type="curve" smooth="yes"/>
      <point x="422.0" y="530" type="line" smooth="yes"/>
      <point x="373.0" y="530"/>
      <point x="359.0" y="519"/>
      <point x="359.0" y="470" type="curve" smooth="yes"/>
      <point x="359.0" y="448" type="line"/>
      <point x="391.0" y="458"/>
      <point x="433.0" y="463"/>
      <point x="486.0" y="463" type="curve" smooth="yes"/>
      <point x="667.0" y="463"/>
      <point x="721.0" y="402"/>
      <point x="721.0" y="283" type="curve" smooth="yes"/>
      <point x="721.0" y="187" type="line" smooth="yes"/>
      <point x="721.0" y="65"/>
      <point x="663.0" y="-15"/>
    </contour>
    <contour>
      <point x="359.0" y="262" type="curve" smooth="yes"/>
      <point x="359.0" y="203" type="line" smooth="yes"/>
      <point x="359.0" y="182"/>
      <point x="368.0" y="166"/>
      <point x="426.0" y="166" type="curve" smooth="yes"/>
      <point x="486.0" y="166"/>
      <point x="495.0" y="182"/>
      <point x="495.0" y="203" type="curve" smooth="yes"/>
      <point x="495.0" y="262" type="line" smooth="yes"/>
      <point x="495.0" y="282"/>
      <point x="486.0" y="298"/>
      <point x="426.0" y="298" type="curve" smooth="yes"/>
      <point x="368.0" y="298"/>
      <point x="359.0" y="282"/>
    </contour>
    <contour>
      <point x="436.0" y="71" type="curve" smooth="yes"/>
      <point x="536.0" y="71"/>
      <point x="613.0" y="86"/>
      <point x="613.0" y="187" type="curve" smooth="yes"/>
      <point x="613.0" y="275" type="line" smooth="yes"/>
      <point x="613.0" y="378"/>
      <point x="537.0" y="383"/>
      <point x="439.0" y="383" type="curve" smooth="yes"/>
      <point x="350.0" y="383"/>
      <point x="279.0" y="380"/>
      <point x="255.0" y="327" type="curve"/>
      <point x="255.0" y="515" type="line" smooth="yes"/>
      <point x="255.0" y="598"/>
      <point x="302.0" y="620"/>
      <point x="379.0" y="620" type="curve" smooth="yes"/>
      <point x="555.0" y="620" type="line"/>
      <point x="555.0" y="630" type="line"/>
      <point x="379.0" y="630" type="line" smooth="yes"/>
      <point x="294.0" y="630"/>
      <point x="245.0" y="604"/>
      <point x="245.0" y="515" type="curve" smooth="yes"/>
      <point x="245.0" y="187" type="line" smooth="yes"/>
      <point x="245.0" y="84"/>
      <point x="328.0" y="71"/>
    </contour>
    <contour>
      <point x="436.0" y="81" type="curve" smooth="yes"/>
      <point x="338.0" y="81"/>
      <point x="255.0" y="90"/>
      <point x="255.0" y="187" type="curve" smooth="yes"/>
      <point x="255.0" y="278" type="line"/>
      <point x="255.0" y="375"/>
      <point x="350.0" y="373"/>
      <point x="439.0" y="373" type="curve" smooth="yes"/>
      <point x="527.0" y="373"/>
      <point x="603.0" y="372"/>
      <point x="603.0" y="275" type="curve" smooth="yes"/>
      <point x="603.0" y="187" type="line" smooth="yes"/>
      <point x="603.0" y="92"/>
      <point x="528.0" y="81"/>
    </contour>
  </outline>
</glyph>
<glyph name="seven" format="1">
  <advance width="1077"/>
  <unicode hex="0037"/>
  <outline>
    <contour>
      <point x="255.0" y="-119" type="line" smooth="yes"/>
      <point x="269.0" y="-119"/>
      <point x="280.0" y="-115"/>
      <point x="286.0" y="-109" type="curve"/>
      <point x="416.0" y="-1" type="line" smooth="yes"/>
      <point x="425.0" y="7"/>
      <point x="430.0" y="18"/>
      <point x="430.0" y="36" type="curve" smooth="yes"/>
      <point x="430.0" y="138" type="line"/>
      <point x="447.0" y="146"/>
      <point x="461.0" y="155"/>
      <point x="473.0" y="165" type="curve" smooth="yes"/>
      <point x="603.0" y="273" type="line" smooth="yes"/>
      <point x="641.0" y="306"/>
      <point x="660.0" y="352"/>
      <point x="660.0" y="431" type="curve" smooth="yes"/>
      <point x="660.0" y="684" type="line" smooth="yes"/>
      <point x="660.0" y="716"/>
      <point x="646.0" y="730"/>
      <point x="614.0" y="730" type="curve" smooth="yes"/>
      <point x="149.0" y="730" type="line" smooth="yes"/>
      <point x="135.0" y="730"/>
      <point x="124.0" y="727"/>
      <point x="117.0" y="721" type="curve" smooth="yes"/>
      <point x="-12.0" y="612" type="line" smooth="yes"/>
      <point x="-21.0" y="604"/>
      <point x="-26.0" y="593"/>
      <point x="-26.0" y="575" type="curve" smooth="yes"/>
      <point x="-26.0" y="454" type="line" smooth="yes"/>
      <point x="-26.0" y="422"/>
      <point x="-12.0" y="408"/>
      <point x="20.0" y="408" type="curve" smooth="yes"/>
      <point x="284.0" y="408" type="line"/>
      <point x="284.0" y="405" type="line"/>
      <point x="264.0" y="396"/>
      <point x="247.0" y="386"/>
      <point x="233.0" y="375" type="curve" smooth="yes"/>
      <point x="104.0" y="266" type="line" smooth="yes"/>
      <point x="66.0" y="234"/>
      <point x="47.0" y="187"/>
      <point x="47.0" y="108" type="curve" smooth="yes"/>
      <point x="47.0" y="-73" type="line"/>
      <point x="47.0" y="-105"/>
      <point x="61.0" y="-119"/>
      <point x="93.0" y="-119" type="curve" smooth="yes"/>
    </contour>
    <contour>
      <point x="614.0" y="720" type="line"/>
      <point x="639.0" y="720"/>
      <point x="650.0" y="709"/>
      <point x="650.0" y="684" type="curve" smooth="yes"/>
      <point x="650.0" y="431" type="line" smooth="yes"/>
      <point x="650.0" y="304"/>
      <point x="601.0" y="265"/>
      <point x="494.0" y="233" type="curve" smooth="yes"/>
      <point x="420.0" y="211" type="line"/>
      <point x="420.0" y="36" type="line" smooth="yes"/>
      <point x="420.0" y="11"/>
      <point x="409.0" y="0"/>
      <point x="384.0" y="0" type="curve" smooth="yes"/>
      <point x="222.0" y="0" type="line" smooth="yes"/>
      <point x="197.0" y="0"/>
      <point x="186.0" y="11"/>
      <point x="186.0" y="36" type="curve" smooth="yes"/>
      <point x="186.0" y="217" type="line" smooth="yes"/>
      <point x="186.0" y="344"/>
      <point x="235.0" y="383"/>
      <point x="342.0" y="415" type="curve" smooth="yes"/>
      <point x="423.0" y="437" type="line"/>
      <point x="423.0" y="527" type="line"/>
      <point x="149.0" y="527" type="line" smooth="yes"/>
      <point x="124.0" y="527"/>
      <point x="113.0" y="538"/>
      <point x="113.0" y="563" type="curve" smooth="yes"/>
      <point x="113.0" y="684" type="line" smooth="yes"/>
      <point x="113.0" y="709"/>
      <point x="124.0" y="720"/>
      <point x="149.0" y="720" type="curve" smooth="yes"/>
    </contour>
    <contour>
      <point x="298.0" y="90" type="line"/>
      <point x="308.0" y="90" type="line"/>
      <point x="308.0" y="240" type="line" smooth="yes"/>
      <point x="308.0" y="265"/>
      <point x="320.0" y="279"/>
      <point x="337.0" y="286" type="curve" smooth="yes"/>
      <point x="507.0" y="354" type="line" smooth="yes"/>
      <point x="531.0" y="364"/>
      <point x="542.0" y="379"/>
      <point x="542.0" y="410" type="curve" smooth="yes"/>
      <point x="542.0" y="630" type="line"/>
      <point x="203.0" y="630" type="line"/>
      <point x="203.0" y="620" type="line"/>
      <point x="532.0" y="620" type="line"/>
      <point x="532.0" y="410" type="line" smooth="yes"/>
      <point x="532.0" y="385"/>
      <point x="523.0" y="372"/>
      <point x="503.0" y="364" type="curve" smooth="yes"/>
      <point x="333.0" y="296" type="line" smooth="yes"/>
      <point x="312.0" y="287"/>
      <point x="298.0" y="271"/>
      <point x="298.0" y="240" type="curve" smooth="yes"/>
    </contour>
  </outline>
</glyph>
<glyph name="eight" format="1">
  <advance width="1161"/>
  <unicode hex="0038"/>
  <outline>
    <contour>
      <point x="302.0" y="-134" type="curve" smooth="yes"/>
      <point x="440.0" y="-134"/>
      <point x="522.0" y="-111"/>
      <point x="568.0" y="-72" type="curve" smooth="yes"/>
      <point x="697.0" y="36" type="line" smooth="yes"/>
      <point x="735.0" y="68"/>
      <point x="749.0" y="110"/>
      <point x="749.0" y="159" type="curve" smooth="yes"/>
      <point x="749.0" y="256" type="line" smooth="yes"/>
      <point x="749.0" y="344"/>
      <point x="711.0" y="394"/>
      <point x="659.0" y="414" type="curve"/>
      <point x="664.0" y="418" type="line" smooth="yes"/>
      <point x="691.0" y="441"/>
      <point x="702.0" y="475"/>
      <point x="702.0" y="519" type="curve" smooth="yes"/>
      <point x="702.0" y="577" type="line" smooth="yes"/>
      <point x="702.0" y="679"/>
      <point x="646.0" y="745"/>
      <point x="432.0" y="745" type="curve" smooth="yes"/>
      <point x="317.0" y="745"/>
      <point x="247.0" y="726"/>
      <point x="207.0" y="692" type="curve" smooth="yes"/>
      <point x="78.0" y="583" type="line" smooth="yes"/>
      <point x="43.0" y="555"/>
      <point x="30.0" y="515"/>
      <point x="30.0" y="468" type="curve" smooth="yes"/>
      <point x="30.0" y="410" type="line" smooth="yes"/>
      <point x="30.0" y="367"/>
      <point x="40.0" y="333"/>
      <point x="67.0" y="310" type="curve"/>
      <point x="36.0" y="284" type="line" smooth="yes"/>
      <point x="4.0" y="257"/>
      <point x="-17.0" y="213"/>
      <point x="-17.0" y="147" type="curve" smooth="yes"/>
      <point x="-17.0" y="50" type="line" smooth="yes"/>
      <point x="-17.0" y="-57"/>
      <point x="47.0" y="-134"/>
    </contour>
    <contour>
      <point x="739.0" y="256" type="curve" smooth="yes"/>
      <point x="739.0" y="159" type="line" smooth="yes"/>
      <point x="739.0" y="55"/>
      <point x="672.0" y="-15"/>
      <point x="431.0" y="-15" type="curve" smooth="yes"/>
      <point x="190.0" y="-15"/>
      <point x="122.0" y="55"/>
      <point x="122.0" y="159" type="curve" smooth="yes"/>
      <point x="122.0" y="256" type="line" smooth="yes"/>
      <point x="122.0" y="350"/>
      <point x="168.0" y="399"/>
      <point x="228.0" y="411" type="curve"/>
      <point x="184.0" y="430"/>
      <point x="169.0" y="468"/>
      <point x="169.0" y="519" type="curve" smooth="yes"/>
      <point x="169.0" y="577" type="line" smooth="yes"/>
      <point x="169.0" y="675"/>
      <point x="231.0" y="735"/>
      <point x="432.0" y="735" type="curve" smooth="yes"/>
      <point x="633.0" y="735"/>
      <point x="692.0" y="675"/>
      <point x="692.0" y="577" type="curve" smooth="yes"/>
      <point x="692.0" y="519" type="line" smooth="yes"/>
      <point x="692.0" y="468"/>
      <point x="677.0" y="430"/>
      <point x="633.0" y="411" type="curve"/>
      <point x="693.0" y="399"/>
      <point x="739.0" y="350"/>
    </contour>
    <contour>
      <point x="368.0" y="480" type="line"/>
      <point x="368.0" y="459"/>
      <point x="375.0" y="443"/>
      <point x="431.0" y="443" type="curve" smooth="yes"/>
      <point x="488.0" y="443"/>
      <point x="493.0" y="459"/>
      <point x="493.0" y="480" type="curve" smooth="yes"/>
      <point x="493.0" y="524" type="line" smooth="yes"/>
      <point x="493.0" y="544"/>
      <point x="488.0" y="560"/>
      <point x="431.0" y="560" type="curve" smooth="yes"/>
      <point x="375.0" y="560"/>
      <point x="368.0" y="544"/>
      <point x="368.0" y="524" type="curve" smooth="yes"/>
    </contour>
    <contour>
      <point x="343.0" y="197" type="line" smooth="yes"/>
      <point x="343.0" y="176"/>
      <point x="359.0" y="160"/>
      <point x="431.0" y="160" type="curve" smooth="yes"/>
      <point x="504.0" y="160"/>
      <point x="518.0" y="176"/>
      <point x="518.0" y="197" type="curve" smooth="yes"/>
      <point x="518.0" y="250" type="line" smooth="yes"/>
      <point x="518.0" y="270"/>
      <point x="504.0" y="286"/>
      <point x="431.0" y="286" type="curve" smooth="yes"/>
      <point x="359.0" y="286"/>
      <point x="343.0" y="270"/>
      <point x="343.0" y="250" type="curve" smooth="yes"/>
    </contour>
    <contour>
      <point x="431.0" y="67" type="curve" smooth="yes"/>
      <point x="592.0" y="67"/>
      <point x="633.0" y="111"/>
      <point x="633.0" y="173" type="curve" smooth="yes"/>
      <point x="633.0" y="266" type="line" smooth="yes"/>
      <point x="633.0" y="317"/>
      <point x="604.0" y="356"/>
      <point x="507.0" y="369" type="curve"/>
      <point x="571.0" y="380"/>
      <point x="597.0" y="408"/>
      <point x="597.0" y="455" type="curve" smooth="yes"/>
      <point x="597.0" y="550" type="line" smooth="yes"/>
      <point x="597.0" y="620"/>
      <point x="548.0" y="652"/>
      <point x="431.0" y="652" type="curve" smooth="yes"/>
      <point x="314.0" y="652"/>
      <point x="264.0" y="620"/>
      <point x="264.0" y="558" type="curve" smooth="yes"/>
      <point x="264.0" y="455" type="line" smooth="yes"/>
      <point x="264.0" y="408"/>
      <point x="291.0" y="380"/>
      <point x="355.0" y="369" type="curve"/>
      <point x="258.0" y="356"/>
      <point x="228.0" y="316"/>
      <point x="228.0" y="265" type="curve" smooth="yes"/>
      <point x="228.0" y="173" type="line" smooth="yes"/>
      <point x="228.0" y="111"/>
      <point x="270.0" y="67"/>
    </contour>
    <contour>
      <point x="274.0" y="558" type="line" smooth="yes"/>
      <point x="274.0" y="616"/>
      <point x="326.0" y="642"/>
      <point x="431.0" y="642" type="curve" smooth="yes"/>
      <point x="536.0" y="642"/>
      <point x="587.0" y="616"/>
      <point x="587.0" y="550" type="curve" smooth="yes"/>
      <point x="587.0" y="455" type="line" smooth="yes"/>
      <point x="587.0" y="397"/>
      <point x="537.0" y="374"/>
      <point x="431.0" y="374" type="curve" smooth="yes"/>
      <point x="325.0" y="374"/>
      <point x="274.0" y="397"/>
      <point x="274.0" y="455" type="curve" smooth="yes"/>
    </contour>
    <contour>
      <point x="238.0" y="265" type="line" smooth="yes"/>
      <point x="238.0" y="323"/>
      <point x="287.0" y="364"/>
      <point x="431.0" y="364" type="curve" smooth="yes"/>
      <point x="575.0" y="364"/>
      <point x="623.0" y="324"/>
      <point x="623.0" y="266" type="curve" smooth="yes"/>
      <point x="623.0" y="173" type="line" smooth="yes"/>
      <point x="623.0" y="115"/>
      <point x="576.0" y="77"/>
      <point x="431.0" y="77" type="curve" smooth="yes"/>
      <point x="286.0" y="77"/>
      <point x="238.0" y="115"/>
      <point x="238.0" y="173" type="curve" smooth="yes"/>
    </contour>
  </outline>
</glyph>
<glyph name="nine" format="1">
  <advance width="1143"/>
  <unicode hex="0039"/>
  <outline>
    <contour>
      <point x="105.0" y="-119" type="curve" smooth="yes"/>
      <point x="335.0" y="-119" type="line" smooth="yes"/>
      <point x="426.0" y="-119"/>
      <point x="488.0" y="-99"/>
      <point x="527.0" y="-66" type="curve" smooth="yes"/>
      <point x="657.0" y="42" type="line" smooth="yes"/>
      <point x="703.0" y="81"/>
      <point x="720.0" y="137"/>
      <point x="720.0" y="205" type="curve" smooth="yes"/>
      <point x="720.0" y="533" type="line" smooth="yes"/>
      <point x="720.0" y="659"/>
      <point x="668.0" y="745"/>
      <point x="410.0" y="745" type="curve" smooth="yes"/>
      <point x="289.0" y="745"/>
      <point x="216.0" y="723"/>
      <point x="172.0" y="686" type="curve" smooth="yes"/>
      <point x="43.0" y="578" type="line" smooth="yes"/>
      <point x="-2.0" y="541"/>
      <point x="-17.0" y="488"/>
      <point x="-17.0" y="424" type="curve" smooth="yes"/>
      <point x="-17.0" y="328" type="line" smooth="yes"/>
      <point x="-17.0" y="224"/>
      <point x="22.0" y="161"/>
      <point x="146.0" y="144" type="curve"/>
      <point x="73.0" y="82" type="line" smooth="yes"/>
      <point x="64.0" y="74"/>
      <point x="59.0" y="63"/>
      <point x="59.0" y="45" type="curve" smooth="yes"/>
      <point x="59.0" y="-73" type="line"/>
      <point x="59.0" y="-105"/>
      <point x="72.0" y="-119"/>
    </contour>
    <contour>
      <point x="464.0" y="0" type="curve" smooth="yes"/>
      <point x="234.0" y="0" type="line" smooth="yes"/>
      <point x="208.0" y="0"/>
      <point x="198.0" y="11"/>
      <point x="198.0" y="36" type="curve" smooth="yes"/>
      <point x="198.0" y="154" type="line" smooth="yes"/>
      <point x="198.0" y="179"/>
      <point x="209.0" y="190"/>
      <point x="234.0" y="190" type="curve" smooth="yes"/>
      <point x="421.0" y="190" type="line" smooth="yes"/>
      <point x="470.0" y="190"/>
      <point x="484.0" y="201"/>
      <point x="484.0" y="250" type="curve" smooth="yes"/>
      <point x="484.0" y="272" type="line"/>
      <point x="452.0" y="262"/>
      <point x="410.0" y="257"/>
      <point x="357.0" y="257" type="curve" smooth="yes"/>
      <point x="176.0" y="257"/>
      <point x="122.0" y="318"/>
      <point x="122.0" y="437" type="curve" smooth="yes"/>
      <point x="122.0" y="533" type="line" smooth="yes"/>
      <point x="122.0" y="655"/>
      <point x="180.0" y="735"/>
      <point x="410.0" y="735" type="curve" smooth="yes"/>
      <point x="656.0" y="735"/>
      <point x="710.0" y="655"/>
      <point x="710.0" y="533" type="curve" smooth="yes"/>
      <point x="710.0" y="205" type="line" smooth="yes"/>
      <point x="710.0" y="83"/>
      <point x="653.0" y="0"/>
    </contour>
    <contour>
      <point x="484.0" y="458" type="curve" smooth="yes"/>
      <point x="484.0" y="517" type="line" smooth="yes"/>
      <point x="484.0" y="538"/>
      <point x="475.0" y="554"/>
      <point x="417.0" y="554" type="curve" smooth="yes"/>
      <point x="357.0" y="554"/>
      <point x="348.0" y="538"/>
      <point x="348.0" y="517" type="curve" smooth="yes"/>
      <point x="348.0" y="458" type="line" smooth="yes"/>
      <point x="348.0" y="438"/>
      <point x="357.0" y="422"/>
      <point x="417.0" y="422" type="curve" smooth="yes"/>
      <point x="475.0" y="422"/>
      <point x="484.0" y="438"/>
    </contour>
    <contour>
      <point x="288.0" y="90" type="line"/>
      <point x="464.0" y="90" type="line" smooth="yes"/>
      <point x="549.0" y="90"/>
      <point x="598.0" y="116"/>
      <point x="598.0" y="205" type="curve" smooth="yes"/>
      <point x="598.0" y="533" type="line" smooth="yes"/>
      <point x="598.0" y="636"/>
      <point x="515.0" y="649"/>
      <point x="407.0" y="649" type="curve" smooth="yes"/>
      <point x="307.0" y="649"/>
      <point x="230.0" y="634"/>
      <point x="230.0" y="533" type="curve" smooth="yes"/>
      <point x="230.0" y="445" type="line" smooth="yes"/>
      <point x="230.0" y="342"/>
      <point x="306.0" y="337"/>
      <point x="404.0" y="337" type="curve" smooth="yes"/>
      <point x="493.0" y="337"/>
      <point x="564.0" y="340"/>
      <point x="588.0" y="393" type="curve"/>
      <point x="588.0" y="205" type="line" smooth="yes"/>
      <point x="588.0" y="122"/>
      <point x="541.0" y="100"/>
      <point x="464.0" y="100" type="curve" smooth="yes"/>
      <point x="288.0" y="100" type="line"/>
    </contour>
    <contour>
      <point x="404.0" y="347" type="curve" smooth="yes"/>
      <point x="316.0" y="347"/>
      <point x="240.0" y="348"/>
      <point x="240.0" y="445" type="curve" smooth="yes"/>
      <point x="240.0" y="533" type="line" smooth="yes"/>
      <point x="240.0" y="628"/>
      <point x="315.0" y="639"/>
      <point x="407.0" y="639" type="curve" smooth="yes"/>
      <point x="505.0" y="639"/>
      <point x="588.0" y="630"/>
      <point x="588.0" y="533" type="curve" smooth="yes"/>
      <point x="588.0" y="442" type="line"/>
      <point x="588.0" y="345"/>
      <point x="493.0" y="347"/>
    </contour>
  </outline>
</glyph>
<glyph name="less" format="1">
  <advance width="1164"/>
  <unicode hex="003C"/>
  <outline>
    <contour>
      <point x="567.0" y="-54" type="curve" smooth="yes"/>
      <point x="696.0" y="55" type="line" smooth="yes"/>
      <point x="704.0" y="62"/>
      <point x="709.0" y="73"/>
      <point x="709.0" y="90" type="curve" smooth="yes"/>
      <point x="709.0" y="222" type="line" smooth="yes"/>
      <point x="709.0" y="254"/>
      <point x="696.0" y="268"/>
      <point x="665.0" y="273" type="curve"/>
      <point x="482.0" y="322" type="line"/>
      <point x="537.0" y="336" type="line"/>
      <point x="548.0" y="339"/>
      <point x="557.0" y="342"/>
      <point x="564.0" y="348" type="curve" smooth="yes"/>
      <point x="694.0" y="457" type="line" smooth="yes"/>
      <point x="703.0" y="465"/>
      <point x="709.0" y="477"/>
      <point x="709.0" y="496" type="curve" smooth="yes"/>
      <point x="709.0" y="628" type="line" smooth="yes"/>
      <point x="709.0" y="663"/>
      <point x="694.0" y="675"/>
      <point x="661.0" y="669" type="curve"/>
      <point x="279.0" y="560" type="line" smooth="yes"/>
      <point x="243.0" y="549"/>
      <point x="214.0" y="536"/>
      <point x="192.0" y="519" type="curve" smooth="yes"/>
      <point x="63.0" y="410" type="line" smooth="yes"/>
      <point x="32.0" y="384"/>
      <point x="16.0" y="348"/>
      <point x="16.0" y="286" type="curve" smooth="yes"/>
      <point x="16.0" y="214" type="line" smooth="yes"/>
      <point x="16.0" y="109"/>
      <point x="62.0" y="75"/>
      <point x="150.0" y="49" type="curve" smooth="yes"/>
      <point x="532.0" y="-60" type="line" smooth="yes"/>
      <point x="548.0" y="-63"/>
      <point x="560.0" y="-60"/>
    </contour>
    <contour>
      <point x="663.0" y="59" type="curve" smooth="yes"/>
      <point x="282.0" y="168" type="line"/>
      <point x="199.0" y="192"/>
      <point x="155.0" y="224"/>
      <point x="155.0" y="323" type="curve" smooth="yes"/>
      <point x="155.0" y="395" type="line" smooth="yes"/>
      <point x="155.0" y="494"/>
      <point x="199.0" y="526"/>
      <point x="282.0" y="550" type="curve" smooth="yes"/>
      <point x="663.0" y="659" type="line" smooth="yes"/>
      <point x="688.0" y="664"/>
      <point x="699.0" y="654"/>
      <point x="699.0" y="628" type="curve" smooth="yes"/>
      <point x="699.0" y="496" type="line" smooth="yes"/>
      <point x="699.0" y="470"/>
      <point x="688.0" y="459"/>
      <point x="663.0" y="455" type="curve" smooth="yes"/>
      <point x="376.0" y="378" type="line" smooth="yes"/>
      <point x="362.0" y="375"/>
      <point x="359.0" y="371"/>
      <point x="359.0" y="359" type="curve" smooth="yes"/>
      <point x="359.0" y="347"/>
      <point x="362.0" y="343"/>
      <point x="376.0" y="340" type="curve" smooth="yes"/>
      <point x="663.0" y="263" type="line" smooth="yes"/>
      <point x="688.0" y="259"/>
      <point x="699.0" y="248"/>
      <point x="699.0" y="222" type="curve" smooth="yes"/>
      <point x="699.0" y="90" type="line" smooth="yes"/>
      <point x="699.0" y="64"/>
      <point x="688.0" y="54"/>
    </contour>
    <contour>
      <point x="609.0" y="176" type="line"/>
      <point x="311.0" y="262" type="line" smooth="yes"/>
      <point x="283.0" y="270"/>
      <point x="261.0" y="285"/>
      <point x="261.0" y="323" type="curve" smooth="yes"/>
      <point x="261.0" y="395" type="line" smooth="yes"/>
      <point x="261.0" y="433"/>
      <point x="283.0" y="445"/>
      <point x="311.0" y="453" type="curve" smooth="yes"/>
      <point x="609.0" y="539" type="line"/>
      <point x="609.0" y="549" type="line"/>
      <point x="309.0" y="463" type="line" smooth="yes"/>
      <point x="275.0" y="453"/>
      <point x="251.0" y="439"/>
      <point x="251.0" y="395" type="curve" smooth="yes"/>
      <point x="251.0" y="323" type="line" smooth="yes"/>
      <point x="251.0" y="279"/>
      <point x="275.0" y="262"/>
      <point x="309.0" y="252" type="curve" smooth="yes"/>
      <point x="609.0" y="166" type="line"/>
    </contour>
  </outline>
</glyph>
<glyph name="equal" format="1">
  <advance width="1184"/>
  <unicode hex="003D"/>
  <outline>
    <contour>
      <point x="574.0" y="-2" type="line" smooth="yes"/>
      <point x="587.0" y="-2"/>
      <point x="598.0" y="2"/>
      <point x="606.0" y="7" type="curve" smooth="yes"/>
      <point x="735.0" y="116" type="line" smooth="yes"/>
      <point x="744.0" y="124"/>
      <point x="749.0" y="135"/>
      <point x="749.0" y="153" type="curve" smooth="yes"/>
      <point x="749.0" y="267" type="line" smooth="yes"/>
      <point x="749.0" y="300"/>
      <point x="735.0" y="313"/>
      <point x="703.0" y="313" type="curve" smooth="yes"/>
      <point x="613.0" y="313" type="line"/>
      <point x="735.0" y="416" type="line" smooth="yes"/>
      <point x="744.0" y="424"/>
      <point x="749.0" y="435"/>
      <point x="749.0" y="453" type="curve" smooth="yes"/>
      <point x="749.0" y="567" type="line" smooth="yes"/>
      <point x="749.0" y="600"/>
      <point x="735.0" y="613"/>
      <point x="703.0" y="613" type="curve" smooth="yes"/>
      <point x="181.0" y="613" type="line" smooth="yes"/>
      <point x="167.0" y="613"/>
      <point x="156.0" y="610"/>
      <point x="149.0" y="604" type="curve" smooth="yes"/>
      <point x="20.0" y="495" type="line" smooth="yes"/>
      <point x="11.0" y="487"/>
      <point x="6.0" y="476"/>
      <point x="6.0" y="458" type="curve" smooth="yes"/>
      <point x="6.0" y="344" type="line" smooth="yes"/>
      <point x="6.0" y="311"/>
      <point x="20.0" y="298"/>
      <point x="52.0" y="298" type="curve" smooth="yes"/>
      <point x="142.0" y="298" type="line"/>
      <point x="20.0" y="195" type="line" smooth="yes"/>
      <point x="11.0" y="187"/>
      <point x="6.0" y="176"/>
      <point x="6.0" y="158" type="curve" smooth="yes"/>
      <point x="6.0" y="44" type="line" smooth="yes"/>
      <point x="6.0" y="11"/>
      <point x="20.0" y="-2"/>
      <point x="52.0" y="-2" type="curve" smooth="yes"/>
    </contour>
    <contour>
      <point x="181.0" y="417" type="line"/>
      <point x="156.0" y="417"/>
      <point x="145.0" y="427"/>
      <point x="145.0" y="453" type="curve" smooth="yes"/>
      <point x="145.0" y="567" type="line" smooth="yes"/>
      <point x="145.0" y="592"/>
      <point x="156.0" y="603"/>
      <point x="181.0" y="603" type="curve" smooth="yes"/>
      <point x="703.0" y="603" type="line" smooth="yes"/>
      <point x="728.0" y="603"/>
      <point x="739.0" y="593"/>
      <point x="739.0" y="567" type="curve" smooth="yes"/>
      <point x="739.0" y="453" type="line" smooth="yes"/>
      <point x="739.0" y="427"/>
      <point x="728.0" y="417"/>
      <point x="703.0" y="417" type="curve" smooth="yes"/>
    </contour>
    <contour>
      <point x="181.0" y="117" type="line"/>
      <point x="156.0" y="117"/>
      <point x="145.0" y="127"/>
      <point x="145.0" y="153" type="curve" smooth="yes"/>
      <point x="145.0" y="267" type="line" smooth="yes"/>
      <point x="145.0" y="292"/>
      <point x="156.0" y="303"/>
      <point x="181.0" y="303" type="curve" smooth="yes"/>
      <point x="703.0" y="303" type="line" smooth="yes"/>
      <point x="728.0" y="303"/>
      <point x="739.0" y="293"/>
      <point x="739.0" y="267" type="curve" smooth="yes"/>
      <point x="739.0" y="153" type="line" smooth="yes"/>
      <point x="739.0" y="127"/>
      <point x="728.0" y="117"/>
      <point x="703.0" y="117" type="curve" smooth="yes"/>
    </contour>
    <contour>
      <point x="235.0" y="505" type="line"/>
      <point x="649.0" y="505" type="line"/>
      <point x="649.0" y="515" type="line"/>
      <point x="235.0" y="515" type="line"/>
    </contour>
    <contour>
      <point x="235.0" y="205" type="line"/>
      <point x="649.0" y="205" type="line"/>
      <point x="649.0" y="215" type="line"/>
      <point x="235.0" y="215" type="line"/>
    </contour>
  </outline>
</glyph>
<glyph name="greater" format="1">
  <advance width="1164"/>
  <unicode hex="003E"/>
  <outline>
    <contour>
      <point x="74.0" y="-60" type="curve"/>
      <point x="456.0" y="49" type="line" smooth="yes"/>
      <point x="493.0" y="61"/>
      <point x="522.0" y="73"/>
      <point x="542.0" y="90" type="curve" smooth="yes"/>
      <point x="672.0" y="199" type="line" smooth="yes"/>
      <point x="702.0" y="225"/>
      <point x="719.0" y="262"/>
      <point x="719.0" y="323" type="curve" smooth="yes"/>
      <point x="719.0" y="395" type="line" smooth="yes"/>
      <point x="719.0" y="500"/>
      <point x="673.0" y="534"/>
      <point x="585.0" y="560" type="curve" smooth="yes"/>
      <point x="204.0" y="669" type="line"/>
      <point x="203.0" y="669" type="line" smooth="yes"/>
      <point x="187.0" y="672"/>
      <point x="175.0" y="669"/>
      <point x="168.0" y="663" type="curve" smooth="yes"/>
      <point x="38.0" y="555" type="line" smooth="yes"/>
      <point x="30.0" y="548"/>
      <point x="26.0" y="537"/>
      <point x="26.0" y="519" type="curve" smooth="yes"/>
      <point x="26.0" y="387" type="line" smooth="yes"/>
      <point x="26.0" y="355"/>
      <point x="39.0" y="341"/>
      <point x="70.0" y="336" type="curve"/>
      <point x="253.0" y="287" type="line"/>
      <point x="198.0" y="273" type="line"/>
      <point x="186.0" y="270"/>
      <point x="177.0" y="267"/>
      <point x="170.0" y="261" type="curve" smooth="yes"/>
      <point x="41.0" y="153" type="line" smooth="yes"/>
      <point x="31.0" y="144"/>
      <point x="26.0" y="132"/>
      <point x="26.0" y="113" type="curve" smooth="yes"/>
      <point x="26.0" y="-19" type="line" smooth="yes"/>
      <point x="26.0" y="-54"/>
      <point x="41.0" y="-66"/>
    </contour>
    <contour>
      <point x="582.0" y="168" type="curve"/>
      <point x="201.0" y="59" type="line" smooth="yes"/>
      <point x="176.0" y="54"/>
      <point x="165.0" y="64"/>
      <point x="165.0" y="90" type="curve" smooth="yes"/>
      <point x="165.0" y="222" type="line" smooth="yes"/>
      <point x="165.0" y="248"/>
      <point x="176.0" y="259"/>
      <point x="201.0" y="263" type="curve" smooth="yes"/>
      <point x="488.0" y="340" type="line" smooth="yes"/>
      <point x="502.0" y="343"/>
      <point x="505.0" y="347"/>
      <point x="505.0" y="359" type="curve" smooth="yes"/>
      <point x="505.0" y="371"/>
      <point x="502.0" y="375"/>
      <point x="488.0" y="378" type="curve" smooth="yes"/>
      <point x="201.0" y="455" type="line" smooth="yes"/>
      <point x="176.0" y="459"/>
      <point x="165.0" y="470"/>
      <point x="165.0" y="496" type="curve" smooth="yes"/>
      <point x="165.0" y="628" type="line" smooth="yes"/>
      <point x="165.0" y="654"/>
      <point x="176.0" y="664"/>
      <point x="201.0" y="659" type="curve" smooth="yes"/>
      <point x="582.0" y="550" type="line" smooth="yes"/>
      <point x="665.0" y="526"/>
      <point x="709.0" y="494"/>
      <point x="709.0" y="395" type="curve" smooth="yes"/>
      <point x="709.0" y="323" type="line" smooth="yes"/>
      <point x="709.0" y="224"/>
      <point x="665.0" y="192"/>
    </contour>
    <contour>
      <point x="555.0" y="252" type="line" smooth="yes"/>
      <point x="589.0" y="262"/>
      <point x="613.0" y="279"/>
      <point x="613.0" y="323" type="curve" smooth="yes"/>
      <point x="613.0" y="395" type="line" smooth="yes"/>
      <point x="613.0" y="439"/>
      <point x="589.0" y="453"/>
      <point x="555.0" y="463" type="curve" smooth="yes"/>
      <point x="255.0" y="549" type="line"/>
      <point x="255.0" y="539" type="line"/>
      <point x="553.0" y="453" type="line" smooth="yes"/>
      <point x="581.0" y="445"/>
      <point x="603.0" y="433"/>
      <point x="603.0" y="395" type="curve" smooth="yes"/>
      <point x="603.0" y="323" type="line" smooth="yes"/>
      <point x="603.0" y="285"/>
      <point x="581.0" y="270"/>
      <point x="553.0" y="262" type="curve" smooth="yes"/>
      <point x="255.0" y="176" type="line"/>
      <point x="255.0" y="166" type="line"/>
    </contour>
  </outline>
</glyph>
<glyph name="question" format="1">
  <advance width="1106"/>
  <unicode hex="003F"/>
  <outline>
    <contour>
      <point x="290.0" y="-119" type="line" smooth="yes"/>
      <point x="304.0" y="-119"/>
      <point x="315.0" y="-115"/>
      <point x="321.0" y="-109" type="curve"/>
      <point x="451.0" y="-1" type="line" smooth="yes"/>
      <point x="460.0" y="7"/>
      <point x="465.0" y="18"/>
      <point x="465.0" y="36" type="curve" smooth="yes"/>
      <point x="465.0" y="169" type="line"/>
      <point x="484.0" y="176"/>
      <point x="500.0" y="185"/>
      <point x="515.0" y="197" type="curve" smooth="yes"/>
      <point x="644.0" y="305" type="line" smooth="yes"/>
      <point x="677.0" y="333"/>
      <point x="696.0" y="375"/>
      <point x="696.0" y="439" type="curve" smooth="yes"/>
      <point x="696.0" y="544" type="line" smooth="yes"/>
      <point x="696.0" y="664"/>
      <point x="616.0" y="730"/>
      <point x="479.0" y="730" type="curve" smooth="yes"/>
      <point x="156.0" y="730" type="line" smooth="yes"/>
      <point x="142.0" y="730"/>
      <point x="131.0" y="727"/>
      <point x="124.0" y="721" type="curve" smooth="yes"/>
      <point x="-5.0" y="612" type="line" smooth="yes"/>
      <point x="-14.0" y="604"/>
      <point x="-19.0" y="593"/>
      <point x="-19.0" y="575" type="curve" smooth="yes"/>
      <point x="-19.0" y="454" type="line" smooth="yes"/>
      <point x="-19.0" y="421"/>
      <point x="-5.0" y="408"/>
      <point x="27.0" y="408" type="curve" smooth="yes"/>
      <point x="165.0" y="408" type="line"/>
      <point x="73.0" y="331" type="line" smooth="yes"/>
      <point x="62.0" y="322"/>
      <point x="57.0" y="308"/>
      <point x="61.0" y="288" type="curve" smooth="yes"/>
      <point x="82.0" y="156" type="line" smooth="yes"/>
      <point x="85.0" y="136"/>
      <point x="92.0" y="125"/>
      <point x="103.0" y="120" type="curve"/>
      <point x="74.0" y="95" type="line"/>
      <point x="65.0" y="89"/>
      <point x="61.0" y="77"/>
      <point x="61.0" y="58" type="curve" smooth="yes"/>
      <point x="61.0" y="-73" type="line"/>
      <point x="61.0" y="-105"/>
      <point x="74.0" y="-119"/>
      <point x="107.0" y="-119" type="curve" smooth="yes"/>
    </contour>
    <contour>
      <point x="531.0" y="273" type="curve" smooth="yes"/>
      <point x="260.0" y="236" type="line" smooth="yes"/>
      <point x="235.0" y="233"/>
      <point x="225.0" y="242"/>
      <point x="221.0" y="267" type="curve" smooth="yes"/>
      <point x="200.0" y="399" type="line" smooth="yes"/>
      <point x="196.0" y="425"/>
      <point x="208.0" y="437"/>
      <point x="233.0" y="440" type="curve" smooth="yes"/>
      <point x="432.0" y="468" type="line" smooth="yes"/>
      <point x="452.0" y="471"/>
      <point x="459.0" y="479"/>
      <point x="459.0" y="499" type="curve" smooth="yes"/>
      <point x="459.0" y="518"/>
      <point x="449.0" y="527"/>
      <point x="432.0" y="527" type="curve" smooth="yes"/>
      <point x="156.0" y="527" type="line" smooth="yes"/>
      <point x="131.0" y="527"/>
      <point x="120.0" y="537"/>
      <point x="120.0" y="563" type="curve" smooth="yes"/>
      <point x="120.0" y="684" type="line"/>
      <point x="120.0" y="709"/>
      <point x="131.0" y="720"/>
      <point x="156.0" y="720" type="curve" smooth="yes"/>
      <point x="479.0" y="720" type="line" smooth="yes"/>
      <point x="609.0" y="720"/>
      <point x="686.0" y="658"/>
      <point x="686.0" y="544" type="curve" smooth="yes"/>
      <point x="686.0" y="439" type="line" smooth="yes"/>
      <point x="686.0" y="327"/>
      <point x="626.0" y="286"/>
    </contour>
    <contour>
      <point x="419.0" y="0" type="curve" smooth="yes"/>
      <point x="236.0" y="0" type="line" smooth="yes"/>
      <point x="210.0" y="0"/>
      <point x="200.0" y="11"/>
      <point x="200.0" y="36" type="curve" smooth="yes"/>
      <point x="200.0" y="167" type="line" smooth="yes"/>
      <point x="200.0" y="193"/>
      <point x="210.0" y="203"/>
      <point x="236.0" y="203" type="curve" smooth="yes"/>
      <point x="419.0" y="203" type="line" smooth="yes"/>
      <point x="444.0" y="203"/>
      <point x="455.0" y="193"/>
      <point x="455.0" y="167" type="curve" smooth="yes"/>
      <point x="455.0" y="36" type="line" smooth="yes"/>
      <point x="455.0" y="11"/>
      <point x="444.0" y="0"/>
    </contour>
    <contour>
      <point x="300.0" y="340" type="line"/>
      <point x="516.0" y="370" type="line" smooth="yes"/>
      <point x="547.0" y="374"/>
      <point x="573.0" y="383"/>
      <point x="573.0" y="424" type="curve" smooth="yes"/>
      <point x="573.0" y="537" type="line" smooth="yes"/>
      <point x="573.0" y="610"/>
      <point x="525.0" y="628"/>
      <point x="479.0" y="628" type="curve" smooth="yes"/>
      <point x="210.0" y="628" type="line"/>
      <point x="210.0" y="618" type="line"/>
      <point x="479.0" y="618" type="line" smooth="yes"/>
      <point x="520.0" y="618"/>
      <point x="563.0" y="602"/>
      <point x="563.0" y="537" type="curve" smooth="yes"/>
      <point x="563.0" y="424" type="line" smooth="yes"/>
      <point x="563.0" y="389"/>
      <point x="539.0" y="384"/>
      <point x="514.0" y="380" type="curve" smooth="yes"/>
      <point x="298.0" y="351" type="line"/>
    </contour>
    <contour>
      <point x="323.0" y="80" type="line"/>
      <point x="333.0" y="80" type="line"/>
      <point x="333.0" y="123" type="line"/>
      <point x="323.0" y="123" type="line"/>
    </contour>
  </outline>
</glyph>
<glyph name="at" format="1">
  <advance width="1317"/>
  <unicode hex="0040"/>
  <outline>
    <contour>
      <point x="570.0" y="-210" type="line" smooth="yes"/>
      <point x="584.0" y="-210"/>
      <point x="594.0" y="-207"/>
      <point x="601.0" y="-201" type="curve" smooth="yes"/>
      <point x="730.0" y="-93" type="line"/>
      <point x="731.0" y="-92" type="line" smooth="yes"/>
      <point x="739.0" y="-85"/>
      <point x="743.0" y="-74"/>
      <point x="743.0" y="-57" type="curve" smooth="yes"/>
      <point x="743.0" y="-29" type="line" smooth="yes"/>
      <point x="743.0" y="3"/>
      <point x="731.0" y="15"/>
      <point x="699.0" y="15" type="curve" smooth="yes"/>
      <point x="687.0" y="15" type="line"/>
      <point x="693.0" y="19"/>
      <point x="700.0" y="24"/>
      <point x="705.0" y="28" type="curve" smooth="yes"/>
      <point x="834.0" y="136" type="line" smooth="yes"/>
      <point x="879.0" y="174"/>
      <point x="892.0" y="232"/>
      <point x="892.0" y="304" type="curve" smooth="yes"/>
      <point x="892.0" y="564" type="line" smooth="yes"/>
      <point x="892.0" y="715"/>
      <point x="822.0" y="821"/>
      <point x="509.0" y="821" type="curve" smooth="yes"/>
      <point x="350.0" y="821"/>
      <point x="254.0" y="793"/>
      <point x="198.0" y="746" type="curve" smooth="yes"/>
      <point x="68.0" y="637" type="line" smooth="yes"/>
      <point x="14.0" y="592"/>
      <point x="-4.0" y="529"/>
      <point x="-4.0" y="455" type="curve" smooth="yes"/>
      <point x="-4.0" y="45" type="line" smooth="yes"/>
      <point x="-4.0" y="-105"/>
      <point x="68.0" y="-210"/>
      <point x="380.0" y="-210" type="curve" smooth="yes"/>
    </contour>
    <contour>
      <point x="245.0" y="568" type="line" smooth="yes"/>
      <point x="245.0" y="574"/>
      <point x="245.0" y="580"/>
      <point x="246.0" y="586" type="curve"/>
      <point x="281.0" y="593"/>
      <point x="326.0" y="596"/>
      <point x="380.0" y="596" type="curve" smooth="yes"/>
      <point x="400.0" y="596"/>
      <point x="418.0" y="596"/>
      <point x="435.0" y="595" type="curve"/>
      <point x="386.0" y="591"/>
      <point x="352.0" y="577"/>
      <point x="329.0" y="558" type="curve" smooth="yes"/>
      <point x="245.0" y="487" type="line"/>
    </contour>
    <contour>
      <point x="699.0" y="-91" type="curve" smooth="yes"/>
      <point x="509.0" y="-91" type="line" smooth="yes"/>
      <point x="209.0" y="-91"/>
      <point x="135.0" y="8"/>
      <point x="135.0" y="154" type="curve" smooth="yes"/>
      <point x="135.0" y="564" type="line" smooth="yes"/>
      <point x="135.0" y="711"/>
      <point x="209.0" y="811"/>
      <point x="509.0" y="811" type="curve" smooth="yes"/>
      <point x="810.0" y="811"/>
      <point x="882.0" y="711"/>
      <point x="882.0" y="564" type="curve" smooth="yes"/>
      <point x="882.0" y="304" type="line" smooth="yes"/>
      <point x="882.0" y="182"/>
      <point x="846.0" y="100"/>
      <point x="658.0" y="100" type="curve" smooth="yes"/>
      <point x="469.0" y="100" type="line" smooth="yes"/>
      <point x="333.0" y="100"/>
      <point x="293.0" y="159"/>
      <point x="293.0" y="246" type="curve" smooth="yes"/>
      <point x="293.0" y="439" type="line" smooth="yes"/>
      <point x="293.0" y="527"/>
      <point x="333.0" y="586"/>
      <point x="469.0" y="586" type="curve" smooth="yes"/>
      <point x="694.0" y="586" type="line" smooth="yes"/>
      <point x="712.0" y="586"/>
      <point x="720.0" y="578"/>
      <point x="720.0" y="560" type="curve" smooth="yes"/>
      <point x="720.0" y="211" type="line"/>
      <point x="772.0" y="211"/>
      <point x="782.0" y="249"/>
      <point x="782.0" y="302" type="curve" smooth="yes"/>
      <point x="782.0" y="568" type="line" smooth="yes"/>
      <point x="782.0" y="655"/>
      <point x="729.0" y="715"/>
      <point x="509.0" y="715" type="curve" smooth="yes"/>
      <point x="289.0" y="715"/>
      <point x="235.0" y="655"/>
      <point x="235.0" y="568" type="curve" smooth="yes"/>
      <point x="235.0" y="150" type="line" smooth="yes"/>
      <point x="235.0" y="64"/>
      <point x="289.0" y="5"/>
      <point x="509.0" y="5" type="curve" smooth="yes"/>
      <point x="699.0" y="5" type="line" smooth="yes"/>
      <point x="724.0" y="5"/>
      <point x="733.0" y="-4"/>
      <point x="733.0" y="-29" type="curve" smooth="yes"/>
      <point x="733.0" y="-57" type="line" smooth="yes"/>
      <point x="733.0" y="-82"/>
      <point x="724.0" y="-91"/>
    </contour>
    <contour>
      <point x="490.0" y="237" type="curve"/>
      <point x="557.0" y="237" type="line"/>
      <point x="557.0" y="458" type="line"/>
      <point x="500.0" y="458" type="line" smooth="yes"/>
      <point x="462.0" y="458"/>
      <point x="456.0" y="440"/>
      <point x="456.0" y="422" type="curve" smooth="yes"/>
      <point x="456.0" y="271" type="line" smooth="yes"/>
      <point x="456.0" y="251"/>
      <point x="463.0" y="237"/>
    </contour>
    <contour>
      <point x="509.0" y="-50" type="curve" smooth="yes"/>
      <point x="683.0" y="-50" type="line"/>
      <point x="683.0" y="-40" type="line"/>
      <point x="509.0" y="-40" type="line" smooth="yes"/>
      <point x="230.0" y="-40"/>
      <point x="190.0" y="50"/>
      <point x="190.0" y="150" type="curve" smooth="yes"/>
      <point x="190.0" y="568" type="line" smooth="yes"/>
      <point x="190.0" y="669"/>
      <point x="231.0" y="758"/>
      <point x="509.0" y="758" type="curve" smooth="yes"/>
      <point x="787.0" y="758"/>
      <point x="827.0" y="669"/>
      <point x="827.0" y="568" type="curve" smooth="yes"/>
      <point x="827.0" y="302" type="line" smooth="yes"/>
      <point x="827.0" y="210"/>
      <point x="798.0" y="170"/>
      <point x="720.0" y="170" type="curve" smooth="yes"/>
      <point x="644.0" y="170" type="line"/>
      <point x="644.0" y="527" type="line"/>
      <point x="500.0" y="527" type="line" smooth="yes"/>
      <point x="370.0" y="527"/>
      <point x="369.0" y="475"/>
      <point x="369.0" y="422" type="curve" smooth="yes"/>
      <point x="369.0" y="261" type="line" smooth="yes"/>
      <point x="369.0" y="189"/>
      <point x="393.0" y="160"/>
      <point x="458.0" y="160" type="curve" smooth="yes"/>
      <point x="720.0" y="160" type="line" smooth="yes"/>
      <point x="804.0" y="160"/>
      <point x="837.0" y="202"/>
      <point x="837.0" y="302" type="curve" smooth="yes"/>
      <point x="837.0" y="568" type="line" smooth="yes"/>
      <point x="837.0" y="673"/>
      <point x="801.0" y="768"/>
      <point x="509.0" y="768" type="curve" smooth="yes"/>
      <point x="217.0" y="768"/>
      <point x="180.0" y="673"/>
      <point x="180.0" y="568" type="curve" smooth="yes"/>
      <point x="180.0" y="150" type="line" smooth="yes"/>
      <point x="180.0" y="46"/>
      <point x="216.0" y="-50"/>
    </contour>
    <contour>
      <point x="458.0" y="170" type="line" smooth="yes"/>
      <point x="399.0" y="170"/>
      <point x="379.0" y="197"/>
      <point x="379.0" y="261" type="curve" smooth="yes"/>
      <point x="379.0" y="422" type="line" smooth="yes"/>
      <point x="379.0" y="471"/>
      <point x="382.0" y="517"/>
      <point x="500.0" y="517" type="curve" smooth="yes"/>
      <point x="634.0" y="517" type="line"/>
      <point x="634.0" y="170" type="line"/>
    </contour>
  </outline>
</glyph>
<glyph name="A" format="1">
  <advance width="1180"/>
  <unicode hex="0041"/>
  <outline>
    <contour>
      <point x="214.0" y="-109" type="curve"/>
      <point x="344.0" y="-1" type="line" smooth="yes"/>
      <point x="353.0" y="7"/>
      <point x="358.0" y="18"/>
      <point x="358.0" y="36" type="curve" smooth="yes"/>
      <point x="358.0" y="57" type="line"/>
      <point x="386.0" y="57" type="line"/>
      <point x="386.0" y="-73" type="line" smooth="yes"/>
      <point x="386.0" y="-104"/>
      <point x="401.0" y="-119"/>
      <point x="435.0" y="-119" type="curve" smooth="yes"/>
      <point x="586.0" y="-119" type="line" smooth="yes"/>
      <point x="600.0" y="-119"/>
      <point x="611.0" y="-115"/>
      <point x="617.0" y="-109" type="curve"/>
      <point x="747.0" y="-1" type="line" smooth="yes"/>
      <point x="756.0" y="7"/>
      <point x="761.0" y="18"/>
      <point x="761.0" y="36" type="curve" smooth="yes"/>
      <point x="761.0" y="300" type="line" smooth="yes"/>
      <point x="761.0" y="341"/>
      <point x="749.0" y="392"/>
      <point x="721.0" y="464" type="curve" smooth="yes"/>
      <point x="634.0" y="691" type="line" smooth="yes"/>
      <point x="625.0" y="718"/>
      <point x="606.0" y="730"/>
      <point x="575.0" y="730" type="curve" smooth="yes"/>
      <point x="306.0" y="730" type="line" smooth="yes"/>
      <point x="287.0" y="730"/>
      <point x="273.0" y="726"/>
      <point x="262.0" y="716" type="curve" smooth="yes"/>
      <point x="134.0" y="609" type="line"/>
      <point x="133.0" y="608" type="line" smooth="yes"/>
      <point x="126.0" y="601"/>
      <point x="120.0" y="593"/>
      <point x="116.0" y="581" type="curve"/>
      <point x="30.0" y="355" type="line" smooth="yes"/>
      <point x="2.0" y="283"/>
      <point x="-10.0" y="232"/>
      <point x="-10.0" y="191" type="curve" smooth="yes"/>
      <point x="-10.0" y="-73" type="line" smooth="yes"/>
      <point x="-10.0" y="-105"/>
      <point x="4.0" y="-119"/>
      <point x="36.0" y="-119" type="curve" smooth="yes"/>
      <point x="183.0" y="-119" type="line" smooth="yes"/>
      <point x="197.0" y="-119"/>
      <point x="208.0" y="-115"/>
    </contour>
    <contour>
      <point x="405.0" y="510" type="curve"/>
      <point x="358.0" y="358" type="line"/>
      <point x="515.0" y="358" type="line"/>
      <point x="468.0" y="510" type="line"/>
      <point x="463.0" y="522"/>
      <point x="457.0" y="527"/>
      <point x="449.0" y="527" type="curve" smooth="yes"/>
      <point x="424.0" y="527" type="line" smooth="yes"/>
      <point x="416.0" y="527"/>
      <point x="410.0" y="522"/>
    </contour>
    <contour>
      <point x="348.0" y="36" type="line" smooth="yes"/>
      <point x="348.0" y="11"/>
      <point x="337.0" y="0"/>
      <point x="312.0" y="0" type="curve" smooth="yes"/>
      <point x="165.0" y="0" type="line" smooth="yes"/>
      <point x="140.0" y="0"/>
      <point x="129.0" y="11"/>
      <point x="129.0" y="36" type="curve" smooth="yes"/>
      <point x="129.0" y="300" type="line" smooth="yes"/>
      <point x="129.0" y="340"/>
      <point x="141.0" y="390"/>
      <point x="168.0" y="460" type="curve" smooth="yes"/>
      <point x="255.0" y="687" type="line" smooth="yes"/>
      <point x="263.0" y="710"/>
      <point x="279.0" y="720"/>
      <point x="306.0" y="720" type="curve" smooth="yes"/>
      <point x="575.0" y="720" type="line" smooth="yes"/>
      <point x="601.0" y="720"/>
      <point x="617.0" y="710"/>
      <point x="625.0" y="687" type="curve" smooth="yes"/>
      <point x="712.0" y="460" type="line" smooth="yes"/>
      <point x="739.0" y="390"/>
      <point x="751.0" y="340"/>
      <point x="751.0" y="300" type="curve" smooth="yes"/>
      <point x="751.0" y="36" type="line" smooth="yes"/>
      <point x="751.0" y="11"/>
      <point x="740.0" y="0"/>
      <point x="715.0" y="0" type="curve" smooth="yes"/>
      <point x="564.0" y="0" type="line" smooth="yes"/>
      <point x="537.0" y="0"/>
      <point x="525.0" y="11"/>
      <point x="525.0" y="36" type="curve" smooth="yes"/>
      <point x="525.0" y="176" type="line"/>
      <point x="348.0" y="176" type="line"/>
    </contour>
    <contour>
      <point x="245.0" y="303" type="line"/>
      <point x="245.0" y="339"/>
      <point x="251.0" y="369"/>
      <point x="261.0" y="396" type="curve"/>
      <point x="325.0" y="560" type="line"/>
      <point x="338.0" y="594"/>
      <point x="349.0" y="620"/>
      <point x="389.0" y="620" type="curve" smooth="yes"/>
      <point x="487.0" y="620" type="line" smooth="yes"/>
      <point x="524.0" y="620"/>
      <point x="535.0" y="594"/>
      <point x="550.0" y="559" type="curve"/>
      <point x="619.0" y="396" type="line"/>
      <point x="629.0" y="369"/>
      <point x="635.0" y="339"/>
      <point x="635.0" y="303" type="curve"/>
      <point x="635.0" y="272" type="line"/>
      <point x="245.0" y="272" type="line"/>
    </contour>
    <contour>
      <point x="635.0" y="90" type="line"/>
      <point x="645.0" y="90" type="line"/>
      <point x="645.0" y="303" type="line" smooth="yes"/>
      <point x="645.0" y="340"/>
      <point x="639.0" y="371"/>
      <point x="628.0" y="400" type="curve" smooth="yes"/>
      <point x="559.0" y="563" type="line" smooth="yes"/>
      <point x="543.0" y="602"/>
      <point x="531.0" y="630"/>
      <point x="487.0" y="630" type="curve" smooth="yes"/>
      <point x="389.0" y="630" type="line" smooth="yes"/>
      <point x="343.0" y="630"/>
      <point x="331.0" y="601"/>
      <point x="316.0" y="564" type="curve" smooth="yes"/>
      <point x="252.0" y="400" type="line"/>
      <point x="241.0" y="371"/>
      <point x="235.0" y="340"/>
      <point x="235.0" y="303" type="curve" smooth="yes"/>
      <point x="235.0" y="90" type="line"/>
      <point x="245.0" y="90" type="line"/>
      <point x="245.0" y="262" type="line"/>
      <point x="635.0" y="262" type="line"/>
    </contour>
  </outline>
</glyph>
<glyph name="B" format="1">
  <advance width="1175"/>
  <unicode hex="0042"/>
  <outline>
    <contour>
      <point x="51.0" y="-119" type="curve" smooth="yes"/>
      <point x="435.0" y="-119" type="line" smooth="yes"/>
      <point x="504.0" y="-119"/>
      <point x="554.0" y="-105"/>
      <point x="587.0" y="-77" type="curve" smooth="yes"/>
      <point x="716.0" y="32" type="line" smooth="yes"/>
      <point x="751.0" y="61"/>
      <point x="768.0" y="104"/>
      <point x="768.0" y="164" type="curve" smooth="yes"/>
      <point x="768.0" y="256" type="line" smooth="yes"/>
      <point x="768.0" y="350"/>
      <point x="733.0" y="401"/>
      <point x="660.0" y="417" type="curve"/>
      <point x="663.0" y="419" type="line"/>
      <point x="688.0" y="439"/>
      <point x="701.0" y="472"/>
      <point x="701.0" y="519" type="curve" smooth="yes"/>
      <point x="701.0" y="567" type="line" smooth="yes"/>
      <point x="701.0" y="677"/>
      <point x="639.0" y="730"/>
      <point x="499.0" y="730" type="curve" smooth="yes"/>
      <point x="180.0" y="730" type="line" smooth="yes"/>
      <point x="166.0" y="730"/>
      <point x="155.0" y="727"/>
      <point x="148.0" y="721" type="curve" smooth="yes"/>
      <point x="19.0" y="612" type="line" smooth="yes"/>
      <point x="10.0" y="604"/>
      <point x="5.0" y="593"/>
      <point x="5.0" y="575" type="curve" smooth="yes"/>
      <point x="5.0" y="-73" type="line" smooth="yes"/>
      <point x="5.0" y="-105"/>
      <point x="19.0" y="-119"/>
    </contour>
    <contour>
      <point x="564.0" y="0" type="curve" smooth="yes"/>
      <point x="180.0" y="0" type="line" smooth="yes"/>
      <point x="155.0" y="0"/>
      <point x="144.0" y="11"/>
      <point x="144.0" y="36" type="curve" smooth="yes"/>
      <point x="144.0" y="684" type="line" smooth="yes"/>
      <point x="144.0" y="709"/>
      <point x="155.0" y="720"/>
      <point x="180.0" y="720" type="curve" smooth="yes"/>
      <point x="499.0" y="720" type="line" smooth="yes"/>
      <point x="630.0" y="720"/>
      <point x="691.0" y="672"/>
      <point x="691.0" y="567" type="curve" smooth="yes"/>
      <point x="691.0" y="519" type="line" smooth="yes"/>
      <point x="691.0" y="463"/>
      <point x="672.0" y="428"/>
      <point x="632.0" y="411" type="curve"/>
      <point x="718.0" y="403"/>
      <point x="758.0" y="354"/>
      <point x="758.0" y="256" type="curve" smooth="yes"/>
      <point x="758.0" y="164" type="line" smooth="yes"/>
      <point x="758.0" y="52"/>
      <point x="697.0" y="0"/>
    </contour>
    <contour>
      <point x="369.0" y="550" type="line"/>
      <point x="369.0" y="442" type="line"/>
      <point x="454.0" y="442" type="line" smooth="yes"/>
      <point x="480.0" y="442"/>
      <point x="492.0" y="455"/>
      <point x="492.0" y="482" type="curve" smooth="yes"/>
      <point x="492.0" y="510" type="line" smooth="yes"/>
      <point x="492.0" y="537"/>
      <point x="480.0" y="550"/>
      <point x="454.0" y="550" type="curve" smooth="yes"/>
    </contour>
    <contour>
      <point x="369.0" y="288" type="line"/>
      <point x="369.0" y="170" type="line"/>
      <point x="499.0" y="170" type="line" smooth="yes"/>
      <point x="525.0" y="170"/>
      <point x="537.0" y="183"/>
      <point x="537.0" y="210" type="curve" smooth="yes"/>
      <point x="537.0" y="249" type="line" smooth="yes"/>
      <point x="537.0" y="276"/>
      <point x="525.0" y="288"/>
      <point x="499.0" y="288" type="curve" smooth="yes"/>
    </contour>
    <contour>
      <point x="255.0" y="90" type="line"/>
      <point x="524.0" y="90" type="line" smooth="yes"/>
      <point x="636.0" y="90"/>
      <point x="655.0" y="131"/>
      <point x="655.0" y="190" type="curve" smooth="yes"/>
      <point x="655.0" y="254" type="line" smooth="yes"/>
      <point x="655.0" y="320"/>
      <point x="636.0" y="369"/>
      <point x="525.0" y="369" type="curve" smooth="yes"/>
      <point x="525.0" y="369" type="line"/>
      <point x="582.0" y="384"/>
      <point x="589.0" y="420"/>
      <point x="589.0" y="460" type="curve" smooth="yes"/>
      <point x="589.0" y="524" type="line" smooth="yes"/>
      <point x="589.0" y="582"/>
      <point x="569.0" y="630"/>
      <point x="458.0" y="630" type="curve" smooth="yes"/>
      <point x="255.0" y="630" type="line"/>
    </contour>
    <contour>
      <point x="458.0" y="620" type="line" smooth="yes"/>
      <point x="559.0" y="620"/>
      <point x="579.0" y="578"/>
      <point x="579.0" y="524" type="curve" smooth="yes"/>
      <point x="579.0" y="460" type="line" smooth="yes"/>
      <point x="579.0" y="412"/>
      <point x="568.0" y="369"/>
      <point x="458.0" y="369" type="curve" smooth="yes"/>
      <point x="265.0" y="369" type="line"/>
      <point x="265.0" y="620" type="line"/>
    </contour>
    <contour>
      <point x="525.0" y="359" type="line" smooth="yes"/>
      <point x="626.0" y="359"/>
      <point x="645.0" y="314"/>
      <point x="645.0" y="254" type="curve" smooth="yes"/>
      <point x="645.0" y="190" type="line" smooth="yes"/>
      <point x="645.0" y="135"/>
      <point x="624.0" y="100"/>
      <point x="524.0" y="100" type="curve" smooth="yes"/>
      <point x="265.0" y="100" type="line"/>
      <point x="265.0" y="359" type="line"/>
    </contour>
  </outline>
</glyph>
<glyph name="C" format="1">
  <advance width="1078"/>
  <unicode hex="0043"/>
  <outline>
    <contour>
      <point x="494.0" y="-119" type="line" smooth="yes"/>
      <point x="508.0" y="-119"/>
      <point x="519.0" y="-115"/>
      <point x="525.0" y="-109" type="curve"/>
      <point x="655.0" y="-1" type="line" smooth="yes"/>
      <point x="664.0" y="7"/>
      <point x="669.0" y="18"/>
      <point x="669.0" y="36" type="curve" smooth="yes"/>
      <point x="669.0" y="155" type="line" smooth="yes"/>
      <point x="669.0" y="187"/>
      <point x="655.0" y="201"/>
      <point x="623.0" y="201" type="curve" smooth="yes"/>
      <point x="422.0" y="201" type="line" smooth="yes"/>
      <point x="389.0" y="201"/>
      <point x="371.0" y="211"/>
      <point x="371.0" y="239" type="curve" smooth="yes"/>
      <point x="371.0" y="408" type="line"/>
      <point x="494.0" y="408" type="line" smooth="yes"/>
      <point x="508.0" y="408"/>
      <point x="519.0" y="412"/>
      <point x="525.0" y="418" type="curve"/>
      <point x="655.0" y="526" type="line" smooth="yes"/>
      <point x="664.0" y="534"/>
      <point x="669.0" y="545"/>
      <point x="669.0" y="563" type="curve" smooth="yes"/>
      <point x="669.0" y="684" type="line" smooth="yes"/>
      <point x="669.0" y="716"/>
      <point x="655.0" y="730"/>
      <point x="623.0" y="730" type="curve" smooth="yes"/>
      <point x="379.0" y="730" type="line" smooth="yes"/>
      <point x="292.0" y="730"/>
      <point x="228.0" y="713"/>
      <point x="187.0" y="678" type="curve" smooth="yes"/>
      <point x="57.0" y="569" type="line" smooth="yes"/>
      <point x="15.0" y="533"/>
      <point x="-6.0" y="480"/>
      <point x="-6.0" y="406" type="curve" smooth="yes"/>
      <point x="-6.0" y="95" type="line" smooth="yes"/>
      <point x="-6.0" y="-50"/>
      <point x="74.0" y="-119"/>
      <point x="250.0" y="-119" type="curve" smooth="yes"/>
    </contour>
    <contour>
      <point x="623.0" y="0" type="curve" smooth="yes"/>
      <point x="379.0" y="0" type="line" smooth="yes"/>
      <point x="211.0" y="0"/>
      <point x="133.0" y="65"/>
      <point x="133.0" y="204" type="curve" smooth="yes"/>
      <point x="133.0" y="515" type="line" smooth="yes"/>
      <point x="133.0" y="655"/>
      <point x="211.0" y="720"/>
      <point x="379.0" y="720" type="curve" smooth="yes"/>
      <point x="623.0" y="720" type="line" smooth="yes"/>
      <point x="648.0" y="720"/>
      <point x="659.0" y="709"/>
      <point x="659.0" y="684" type="curve" smooth="yes"/>
      <point x="659.0" y="563" type="line" smooth="yes"/>
      <point x="659.0" y="538"/>
      <point x="648.0" y="527"/>
      <point x="623.0" y="527" type="curve" smooth="yes"/>
      <point x="422.0" y="527" type="line" smooth="yes"/>
      <point x="380.0" y="527"/>
      <point x="361.0" y="511"/>
      <point x="361.0" y="477" type="curve" smooth="yes"/>
      <point x="361.0" y="239" type="line" smooth="yes"/>
      <point x="361.0" y="206"/>
      <point x="380.0" y="191"/>
      <point x="422.0" y="191" type="curve" smooth="yes"/>
      <point x="623.0" y="191" type="line" smooth="yes"/>
      <point x="648.0" y="191"/>
      <point x="659.0" y="180"/>
      <point x="659.0" y="155" type="curve" smooth="yes"/>
      <point x="659.0" y="36" type="line" smooth="yes"/>
      <point x="659.0" y="11"/>
      <point x="648.0" y="0"/>
    </contour>
    <contour>
      <point x="568.0" y="100" type="line"/>
      <point x="401.0" y="100" type="line" smooth="yes"/>
      <point x="281.0" y="100"/>
      <point x="251.0" y="132"/>
      <point x="251.0" y="219" type="curve" smooth="yes"/>
      <point x="251.0" y="499" type="line" smooth="yes"/>
      <point x="251.0" y="588"/>
      <point x="283.0" y="620"/>
      <point x="401.0" y="620" type="curve" smooth="yes"/>
      <point x="568.0" y="620" type="line"/>
      <point x="568.0" y="630" type="line"/>
      <point x="401.0" y="630" type="line" smooth="yes"/>
      <point x="273.0" y="630"/>
      <point x="241.0" y="594"/>
      <point x="241.0" y="499" type="curve" smooth="yes"/>
      <point x="241.0" y="219" type="line" smooth="yes"/>
      <point x="241.0" y="126"/>
      <point x="271.0" y="90"/>
      <point x="401.0" y="90" type="curve" smooth="yes"/>
      <point x="568.0" y="90" type="line"/>
    </contour>
  </outline>
</glyph>
<glyph name="D" format="1">
  <advance width="1196"/>
  <unicode hex="0044"/>
  <outline>
    <contour>
      <point x="580.0" y="-66" type="curve" smooth="yes"/>
      <point x="710.0" y="42" type="line" smooth="yes"/>
      <point x="752.0" y="78"/>
      <point x="773.0" y="131"/>
      <point x="773.0" y="204" type="curve" smooth="yes"/>
      <point x="773.0" y="516" type="line" smooth="yes"/>
      <point x="773.0" y="661"/>
      <point x="693.0" y="730"/>
      <point x="517.0" y="730" type="curve" smooth="yes"/>
      <point x="180.0" y="730" type="line" smooth="yes"/>
      <point x="166.0" y="730"/>
      <point x="155.0" y="727"/>
      <point x="148.0" y="721" type="curve" smooth="yes"/>
      <point x="19.0" y="612" type="line" smooth="yes"/>
      <point x="10.0" y="604"/>
      <point x="5.0" y="593"/>
      <point x="5.0" y="575" type="curve" smooth="yes"/>
      <point x="5.0" y="-73" type="line" smooth="yes"/>
      <point x="5.0" y="-105"/>
      <point x="19.0" y="-119"/>
      <point x="51.0" y="-119" type="curve" smooth="yes"/>
      <point x="388.0" y="-119" type="line" smooth="yes"/>
      <point x="475.0" y="-119"/>
      <point x="539.0" y="-101"/>
    </contour>
    <contour>
      <point x="398.0" y="372" type="curve" smooth="yes"/>
      <point x="398.0" y="199" type="line"/>
      <point x="381.0" y="199" type="line"/>
      <point x="381.0" y="407" type="line"/>
      <point x="393.0" y="402"/>
      <point x="398.0" y="390"/>
    </contour>
    <contour>
      <point x="517.0" y="0" type="curve" smooth="yes"/>
      <point x="180.0" y="0" type="line" smooth="yes"/>
      <point x="155.0" y="0"/>
      <point x="144.0" y="11"/>
      <point x="144.0" y="36" type="curve" smooth="yes"/>
      <point x="144.0" y="684" type="line" smooth="yes"/>
      <point x="144.0" y="709"/>
      <point x="155.0" y="720"/>
      <point x="180.0" y="720" type="curve" smooth="yes"/>
      <point x="517.0" y="720" type="line" smooth="yes"/>
      <point x="685.0" y="720"/>
      <point x="763.0" y="655"/>
      <point x="763.0" y="516" type="curve" smooth="yes"/>
      <point x="763.0" y="204" type="line" smooth="yes"/>
      <point x="763.0" y="65"/>
      <point x="685.0" y="0"/>
    </contour>
    <contour>
      <point x="371.0" y="529" type="line"/>
      <point x="371.0" y="189" type="line"/>
      <point x="490.0" y="189" type="line" smooth="yes"/>
      <point x="522.0" y="189"/>
      <point x="537.0" y="204"/>
      <point x="537.0" y="238" type="curve" smooth="yes"/>
      <point x="537.0" y="481" type="line" smooth="yes"/>
      <point x="537.0" y="514"/>
      <point x="522.0" y="529"/>
      <point x="490.0" y="529" type="curve" smooth="yes"/>
    </contour>
    <contour>
      <point x="253.0" y="90" type="line"/>
      <point x="495.0" y="90" type="line" smooth="yes"/>
      <point x="633.0" y="90"/>
      <point x="655.0" y="149"/>
      <point x="655.0" y="226" type="curve" smooth="yes"/>
      <point x="655.0" y="491" type="line" smooth="yes"/>
      <point x="655.0" y="568"/>
      <point x="631.0" y="630"/>
      <point x="495.0" y="630" type="curve" smooth="yes"/>
      <point x="253.0" y="630" type="line"/>
    </contour>
    <contour>
      <point x="495.0" y="620" type="line" smooth="yes"/>
      <point x="621.0" y="620"/>
      <point x="645.0" y="564"/>
      <point x="645.0" y="491" type="curve" smooth="yes"/>
      <point x="645.0" y="226" type="line" smooth="yes"/>
      <point x="645.0" y="153"/>
      <point x="623.0" y="100"/>
      <point x="495.0" y="100" type="curve" smooth="yes"/>
      <point x="263.0" y="100" type="line"/>
      <point x="263.0" y="620" type="line"/>
    </contour>
  </outline>
</glyph>
<glyph name="E" format="1">
  <advance width="1104"/>
  <unicode hex="0045"/>
  <outline>
    <contour>
      <point x="515.0" y="-119" type="line" smooth="yes"/>
      <point x="529.0" y="-119"/>
      <point x="540.0" y="-115"/>
      <point x="546.0" y="-109" type="curve"/>
      <point x="676.0" y="-1" type="line" smooth="yes"/>
      <point x="685.0" y="7"/>
      <point x="690.0" y="18"/>
      <point x="690.0" y="36" type="curve" smooth="yes"/>
      <point x="690.0" y="153" type="line" smooth="yes"/>
      <point x="690.0" y="185"/>
      <point x="676.0" y="199"/>
      <point x="644.0" y="199" type="curve" smooth="yes"/>
      <point x="506.0" y="199" type="line"/>
      <point x="595.0" y="274" type="line" smooth="yes"/>
      <point x="604.0" y="282"/>
      <point x="609.0" y="293"/>
      <point x="609.0" y="311" type="curve" smooth="yes"/>
      <point x="609.0" y="418" type="line" smooth="yes"/>
      <point x="609.0" y="439"/>
      <point x="603.0" y="452"/>
      <point x="590.0" y="459" type="curve"/>
      <point x="676.0" y="530" type="line" smooth="yes"/>
      <point x="685.0" y="538"/>
      <point x="690.0" y="549"/>
      <point x="690.0" y="567" type="curve" smooth="yes"/>
      <point x="690.0" y="684" type="line" smooth="yes"/>
      <point x="690.0" y="716"/>
      <point x="676.0" y="730"/>
      <point x="644.0" y="730" type="curve" smooth="yes"/>
      <point x="180.0" y="730" type="line" smooth="yes"/>
      <point x="166.0" y="730"/>
      <point x="155.0" y="727"/>
      <point x="148.0" y="721" type="curve" smooth="yes"/>
      <point x="19.0" y="612" type="line" smooth="yes"/>
      <point x="10.0" y="604"/>
      <point x="5.0" y="593"/>
      <point x="5.0" y="575" type="curve" smooth="yes"/>
      <point x="5.0" y="-73" type="line" smooth="yes"/>
      <point x="5.0" y="-105"/>
      <point x="19.0" y="-119"/>
      <point x="51.0" y="-119" type="curve" smooth="yes"/>
    </contour>
    <contour>
      <point x="644.0" y="0" type="curve" smooth="yes"/>
      <point x="180.0" y="0" type="line" smooth="yes"/>
      <point x="155.0" y="0"/>
      <point x="144.0" y="11"/>
      <point x="144.0" y="36" type="curve" smooth="yes"/>
      <point x="144.0" y="684" type="line" smooth="yes"/>
      <point x="144.0" y="709"/>
      <point x="155.0" y="720"/>
      <point x="180.0" y="720" type="curve" smooth="yes"/>
      <point x="644.0" y="720" type="line" smooth="yes"/>
      <point x="669.0" y="720"/>
      <point x="680.0" y="709"/>
      <point x="680.0" y="684" type="curve" smooth="yes"/>
      <point x="680.0" y="567" type="line" smooth="yes"/>
      <point x="680.0" y="542"/>
      <point x="669.0" y="531"/>
      <point x="644.0" y="531" type="curve" smooth="yes"/>
      <point x="368.0" y="531" type="line"/>
      <point x="368.0" y="454" type="line"/>
      <point x="563.0" y="454" type="line" smooth="yes"/>
      <point x="588.0" y="454"/>
      <point x="599.0" y="443"/>
      <point x="599.0" y="418" type="curve" smooth="yes"/>
      <point x="599.0" y="311" type="line" smooth="yes"/>
      <point x="599.0" y="286"/>
      <point x="588.0" y="275"/>
      <point x="563.0" y="275" type="curve" smooth="yes"/>
      <point x="368.0" y="275" type="line"/>
      <point x="368.0" y="189" type="line"/>
      <point x="644.0" y="189" type="line" smooth="yes"/>
      <point x="669.0" y="189"/>
      <point x="680.0" y="178"/>
      <point x="680.0" y="153" type="curve" smooth="yes"/>
      <point x="680.0" y="36" type="line" smooth="yes"/>
      <point x="680.0" y="11"/>
      <point x="669.0" y="0"/>
    </contour>
    <contour>
      <point x="590.0" y="100" type="line"/>
      <point x="263.0" y="100" type="line"/>
      <point x="263.0" y="359" type="line"/>
      <point x="509.0" y="359" type="line"/>
      <point x="509.0" y="369" type="line"/>
      <point x="263.0" y="369" type="line"/>
      <point x="263.0" y="620" type="line"/>
      <point x="590.0" y="620" type="line"/>
      <point x="590.0" y="630" type="line"/>
      <point x="253.0" y="630" type="line"/>
      <point x="253.0" y="90" type="line"/>
      <point x="590.0" y="90" type="line"/>
    </contour>
  </outline>
</glyph>
<glyph name="F" format="1">
  <advance width="1068"/>
  <unicode hex="0046"/>
  <outline>
    <contour>
      <point x="206.0" y="-119" type="line" smooth="yes"/>
      <point x="220.0" y="-119"/>
      <point x="231.0" y="-115"/>
      <point x="237.0" y="-109" type="curve"/>
      <point x="367.0" y="-1" type="line" smooth="yes"/>
      <point x="376.0" y="7"/>
      <point x="381.0" y="18"/>
      <point x="381.0" y="36" type="curve" smooth="yes"/>
      <point x="381.0" y="114" type="line"/>
      <point x="416.0" y="114" type="line" smooth="yes"/>
      <point x="430.0" y="114"/>
      <point x="441.0" y="118"/>
      <point x="447.0" y="124" type="curve"/>
      <point x="577.0" y="232" type="line" smooth="yes"/>
      <point x="586.0" y="240"/>
      <point x="591.0" y="251"/>
      <point x="591.0" y="269" type="curve" smooth="yes"/>
      <point x="591.0" y="389" type="line" smooth="yes"/>
      <point x="591.0" y="421"/>
      <point x="577.0" y="435"/>
      <point x="546.0" y="435" type="curve"/>
      <point x="658.0" y="528" type="line" smooth="yes"/>
      <point x="667.0" y="536"/>
      <point x="672.0" y="547"/>
      <point x="672.0" y="565" type="curve" smooth="yes"/>
      <point x="672.0" y="684" type="line" smooth="yes"/>
      <point x="672.0" y="716"/>
      <point x="658.0" y="730"/>
      <point x="626.0" y="730" type="curve" smooth="yes"/>
      <point x="180.0" y="730" type="line" smooth="yes"/>
      <point x="166.0" y="730"/>
      <point x="155.0" y="727"/>
      <point x="148.0" y="721" type="curve" smooth="yes"/>
      <point x="19.0" y="612" type="line" smooth="yes"/>
      <point x="10.0" y="604"/>
      <point x="5.0" y="593"/>
      <point x="5.0" y="575" type="curve" smooth="yes"/>
      <point x="5.0" y="-73" type="line" smooth="yes"/>
      <point x="5.0" y="-105"/>
      <point x="19.0" y="-119"/>
      <point x="51.0" y="-119" type="curve" smooth="yes"/>
    </contour>
    <contour>
      <point x="335.0" y="0" type="curve" smooth="yes"/>
      <point x="180.0" y="0" type="line" smooth="yes"/>
      <point x="155.0" y="0"/>
      <point x="144.0" y="11"/>
      <point x="144.0" y="36" type="curve" smooth="yes"/>
      <point x="144.0" y="684" type="line" smooth="yes"/>
      <point x="144.0" y="709"/>
      <point x="155.0" y="720"/>
      <point x="180.0" y="720" type="curve" smooth="yes"/>
      <point x="626.0" y="720" type="line" smooth="yes"/>
      <point x="651.0" y="720"/>
      <point x="662.0" y="709"/>
      <point x="662.0" y="684" type="curve" smooth="yes"/>
      <point x="662.0" y="565" type="line" smooth="yes"/>
      <point x="662.0" y="540"/>
      <point x="651.0" y="529"/>
      <point x="626.0" y="529" type="curve" smooth="yes"/>
      <point x="371.0" y="529" type="line"/>
      <point x="371.0" y="425" type="line"/>
      <point x="545.0" y="425" type="line" smooth="yes"/>
      <point x="570.0" y="425"/>
      <point x="581.0" y="414"/>
      <point x="581.0" y="389" type="curve" smooth="yes"/>
      <point x="581.0" y="269" type="line" smooth="yes"/>
      <point x="581.0" y="244"/>
      <point x="570.0" y="233"/>
      <point x="545.0" y="233" type="curve" smooth="yes"/>
      <point x="371.0" y="233" type="line"/>
      <point x="371.0" y="36" type="line" smooth="yes"/>
      <point x="371.0" y="11"/>
      <point x="360.0" y="0"/>
    </contour>
    <contour>
      <point x="253.0" y="90" type="line"/>
      <point x="263.0" y="90" type="line"/>
      <point x="263.0" y="324" type="line"/>
      <point x="491.0" y="324" type="line"/>
      <point x="491.0" y="334" type="line"/>
      <point x="263.0" y="334" type="line"/>
      <point x="263.0" y="620" type="line"/>
      <point x="572.0" y="620" type="line"/>
      <point x="572.0" y="630" type="line"/>
      <point x="253.0" y="630" type="line"/>
    </contour>
  </outline>
</glyph>
<glyph name="G" format="1">
  <advance width="1158"/>
  <unicode hex="0047"/>
  <outline>
    <contour>
      <point x="565.0" y="-119" type="line" smooth="yes"/>
      <point x="579.0" y="-119"/>
      <point x="590.0" y="-115"/>
      <point x="596.0" y="-109" type="curve"/>
      <point x="726.0" y="-1" type="line" smooth="yes"/>
      <point x="735.0" y="7"/>
      <point x="740.0" y="18"/>
      <point x="740.0" y="36" type="curve" smooth="yes"/>
      <point x="740.0" y="345" type="line" smooth="yes"/>
      <point x="740.0" y="377"/>
      <point x="726.0" y="391"/>
      <point x="694.0" y="391" type="curve" smooth="yes"/>
      <point x="539.0" y="391" type="line" smooth="yes"/>
      <point x="525.0" y="391"/>
      <point x="514.0" y="388"/>
      <point x="507.0" y="382" type="curve" smooth="yes"/>
      <point x="378.0" y="273" type="line" smooth="yes"/>
      <point x="375.0" y="270"/>
      <point x="372.0" y="267"/>
      <point x="370.0" y="264" type="curve"/>
      <point x="370.0" y="408" type="line"/>
      <point x="500.0" y="408" type="line" smooth="yes"/>
      <point x="514.0" y="408"/>
      <point x="525.0" y="412"/>
      <point x="531.0" y="418" type="curve"/>
      <point x="661.0" y="526" type="line" smooth="yes"/>
      <point x="670.0" y="534"/>
      <point x="675.0" y="545"/>
      <point x="675.0" y="563" type="curve" smooth="yes"/>
      <point x="675.0" y="684" type="line" smooth="yes"/>
      <point x="675.0" y="716"/>
      <point x="661.0" y="730"/>
      <point x="629.0" y="730" type="curve" smooth="yes"/>
      <point x="379.0" y="730" type="line" smooth="yes"/>
      <point x="292.0" y="730"/>
      <point x="228.0" y="713"/>
      <point x="186.0" y="678" type="curve" smooth="yes"/>
      <point x="57.0" y="569" type="line" smooth="yes"/>
      <point x="15.0" y="533"/>
      <point x="-6.0" y="481"/>
      <point x="-6.0" y="407" type="curve" smooth="yes"/>
      <point x="-6.0" y="95" type="line" smooth="yes"/>
      <point x="-6.0" y="-50"/>
      <point x="74.0" y="-119"/>
      <point x="250.0" y="-119" type="curve" smooth="yes"/>
    </contour>
    <contour>
      <point x="694.0" y="0" type="curve" smooth="yes"/>
      <point x="379.0" y="0" type="line" smooth="yes"/>
      <point x="211.0" y="0"/>
      <point x="133.0" y="65"/>
      <point x="133.0" y="204" type="curve" smooth="yes"/>
      <point x="133.0" y="516" type="line" smooth="yes"/>
      <point x="133.0" y="655"/>
      <point x="211.0" y="720"/>
      <point x="379.0" y="720" type="curve" smooth="yes"/>
      <point x="629.0" y="720" type="line" smooth="yes"/>
      <point x="654.0" y="720"/>
      <point x="665.0" y="709"/>
      <point x="665.0" y="684" type="curve" smooth="yes"/>
      <point x="665.0" y="563" type="line" smooth="yes"/>
      <point x="665.0" y="538"/>
      <point x="654.0" y="527"/>
      <point x="629.0" y="527" type="curve" smooth="yes"/>
      <point x="421.0" y="527" type="line" smooth="yes"/>
      <point x="379.0" y="527"/>
      <point x="360.0" y="511"/>
      <point x="360.0" y="477" type="curve" smooth="yes"/>
      <point x="360.0" y="238" type="line" smooth="yes"/>
      <point x="360.0" y="204"/>
      <point x="375.0" y="189"/>
      <point x="406.0" y="189" type="curve" smooth="yes"/>
      <point x="503.0" y="189" type="line"/>
      <point x="503.0" y="345" type="line" smooth="yes"/>
      <point x="503.0" y="370"/>
      <point x="514.0" y="381"/>
      <point x="539.0" y="381" type="curve" smooth="yes"/>
      <point x="694.0" y="381" type="line" smooth="yes"/>
      <point x="719.0" y="381"/>
      <point x="730.0" y="370"/>
      <point x="730.0" y="345" type="curve" smooth="yes"/>
      <point x="730.0" y="36" type="line" smooth="yes"/>
      <point x="730.0" y="11"/>
      <point x="719.0" y="0"/>
    </contour>
    <contour>
      <point x="422.0" y="90" type="curve" smooth="yes"/>
      <point x="621.0" y="90" type="line"/>
      <point x="621.0" y="291" type="line"/>
      <point x="611.0" y="291" type="line"/>
      <point x="611.0" y="100" type="line"/>
      <point x="422.0" y="100" type="line" smooth="yes"/>
      <point x="287.0" y="100"/>
      <point x="252.0" y="132"/>
      <point x="252.0" y="219" type="curve" smooth="yes"/>
      <point x="252.0" y="499" type="line" smooth="yes"/>
      <point x="252.0" y="588"/>
      <point x="284.0" y="620"/>
      <point x="402.0" y="620" type="curve" smooth="yes"/>
      <point x="575.0" y="620" type="line"/>
      <point x="575.0" y="630" type="line"/>
      <point x="402.0" y="630" type="line" smooth="yes"/>
      <point x="274.0" y="630"/>
      <point x="242.0" y="594"/>
      <point x="242.0" y="499" type="curve" smooth="yes"/>
      <point x="242.0" y="219" type="line" smooth="yes"/>
      <point x="242.0" y="126"/>
      <point x="275.0" y="90"/>
    </contour>
  </outline>
</glyph>
<glyph name="I" format="1">
  <advance width="1055"/>
  <unicode hex="0049"/>
  <outline>
    <contour>
      <point x="461.0" y="-119" type="line" smooth="yes"/>
      <point x="475.0" y="-119"/>
      <point x="486.0" y="-115"/>
      <point x="492.0" y="-109" type="curve"/>
      <point x="622.0" y="-1" type="line" smooth="yes"/>
      <point x="631.0" y="7"/>
      <point x="636.0" y="18"/>
      <point x="636.0" y="36" type="curve" smooth="yes"/>
      <point x="636.0" y="155" type="line" smooth="yes"/>
      <point x="636.0" y="187"/>
      <point x="622.0" y="201"/>
      <point x="590.0" y="201" type="curve" smooth="yes"/>
      <point x="503.0" y="201" type="line"/>
      <point x="503.0" y="426" type="line"/>
      <point x="622.0" y="526" type="line" smooth="yes"/>
      <point x="631.0" y="534"/>
      <point x="636.0" y="545"/>
      <point x="636.0" y="563" type="curve" smooth="yes"/>
      <point x="636.0" y="684" type="line" smooth="yes"/>
      <point x="636.0" y="716"/>
      <point x="622.0" y="730"/>
      <point x="590.0" y="730" type="curve" smooth="yes"/>
      <point x="164.0" y="730" type="line" smooth="yes"/>
      <point x="150.0" y="730"/>
      <point x="139.0" y="727"/>
      <point x="132.0" y="721" type="curve" smooth="yes"/>
      <point x="3.0" y="612" type="line" smooth="yes"/>
      <point x="-6.0" y="604"/>
      <point x="-11.0" y="593"/>
      <point x="-11.0" y="575" type="curve" smooth="yes"/>
      <point x="-11.0" y="454" type="line" smooth="yes"/>
      <point x="-11.0" y="422"/>
      <point x="3.0" y="408"/>
      <point x="35.0" y="408" type="curve" smooth="yes"/>
      <point x="124.0" y="408" type="line"/>
      <point x="124.0" y="185" type="line"/>
      <point x="3.0" y="83" type="line" smooth="yes"/>
      <point x="-6.0" y="75"/>
      <point x="-11.0" y="64"/>
      <point x="-11.0" y="46" type="curve" smooth="yes"/>
      <point x="-11.0" y="-73" type="line" smooth="yes"/>
      <point x="-11.0" y="-105"/>
      <point x="3.0" y="-119"/>
      <point x="35.0" y="-119" type="curve" smooth="yes"/>
    </contour>
    <contour>
      <point x="164.0" y="0" type="line" smooth="yes"/>
      <point x="139.0" y="0"/>
      <point x="128.0" y="11"/>
      <point x="128.0" y="36" type="curve" smooth="yes"/>
      <point x="128.0" y="155" type="line" smooth="yes"/>
      <point x="128.0" y="180"/>
      <point x="139.0" y="191"/>
      <point x="164.0" y="191" type="curve" smooth="yes"/>
      <point x="263.0" y="191" type="line"/>
      <point x="263.0" y="527" type="line"/>
      <point x="164.0" y="527" type="line" smooth="yes"/>
      <point x="139.0" y="527"/>
      <point x="128.0" y="538"/>
      <point x="128.0" y="563" type="curve" smooth="yes"/>
      <point x="128.0" y="684" type="line" smooth="yes"/>
      <point x="128.0" y="709"/>
      <point x="139.0" y="720"/>
      <point x="164.0" y="720" type="curve" smooth="yes"/>
      <point x="590.0" y="720" type="line" smooth="yes"/>
      <point x="615.0" y="720"/>
      <point x="626.0" y="709"/>
      <point x="626.0" y="684" type="curve" smooth="yes"/>
      <point x="626.0" y="563" type="line" smooth="yes"/>
      <point x="626.0" y="538"/>
      <point x="615.0" y="527"/>
      <point x="590.0" y="527" type="curve" smooth="yes"/>
      <point x="493.0" y="527" type="line"/>
      <point x="493.0" y="191" type="line"/>
      <point x="590.0" y="191" type="line" smooth="yes"/>
      <point x="615.0" y="191"/>
      <point x="626.0" y="180"/>
      <point x="626.0" y="155" type="curve" smooth="yes"/>
      <point x="626.0" y="36" type="line" smooth="yes"/>
      <point x="626.0" y="11"/>
      <point x="615.0" y="0"/>
      <point x="590.0" y="0" type="curve" smooth="yes"/>
    </contour>
    <contour>
      <point x="536.0" y="90" type="line"/>
      <point x="536.0" y="100" type="line"/>
      <point x="383.0" y="100" type="line"/>
      <point x="383.0" y="620" type="line"/>
      <point x="536.0" y="620" type="line"/>
      <point x="536.0" y="630" type="line"/>
      <point x="218.0" y="630" type="line"/>
      <point x="218.0" y="620" type="line"/>
      <point x="373.0" y="620" type="line"/>
      <point x="373.0" y="100" type="line"/>
      <point x="218.0" y="100" type="line"/>
      <point x="218.0" y="90" type="line"/>
    </contour>
  </outline>
</glyph>
<glyph name="J" format="1">
  <advance width="1138"/>
  <unicode hex="004A"/>
  <outline>
    <contour>
      <point x="277.0" y="-134" type="curve" smooth="yes"/>
      <point x="400.0" y="-134"/>
      <point x="474.0" y="-112"/>
      <point x="519.0" y="-74" type="curve" smooth="yes"/>
      <point x="648.0" y="35" type="line" smooth="yes"/>
      <point x="694.0" y="72"/>
      <point x="709.0" y="126"/>
      <point x="709.0" y="189" type="curve" smooth="yes"/>
      <point x="709.0" y="684" type="line" smooth="yes"/>
      <point x="709.0" y="716"/>
      <point x="695.0" y="730"/>
      <point x="663.0" y="730" type="curve" smooth="yes"/>
      <point x="506.0" y="730" type="line" smooth="yes"/>
      <point x="492.0" y="730"/>
      <point x="481.0" y="727"/>
      <point x="474.0" y="721" type="curve" smooth="yes"/>
      <point x="345.0" y="612" type="line" smooth="yes"/>
      <point x="336.0" y="604"/>
      <point x="331.0" y="593"/>
      <point x="331.0" y="575" type="curve" smooth="yes"/>
      <point x="331.0" y="387" type="line"/>
      <point x="323.0" y="394"/>
      <point x="312.0" y="397"/>
      <point x="297.0" y="397" type="curve" smooth="yes"/>
      <point x="152.0" y="397" type="line" smooth="yes"/>
      <point x="137.0" y="397"/>
      <point x="127.0" y="394"/>
      <point x="120.0" y="388" type="curve" smooth="yes"/>
      <point x="-10.0" y="279" type="line" smooth="yes"/>
      <point x="-18.0" y="272"/>
      <point x="-23.0" y="260"/>
      <point x="-23.0" y="242" type="curve" smooth="yes"/>
      <point x="-23.0" y="80" type="line" smooth="yes"/>
      <point x="-23.0" y="-46"/>
      <point x="33.0" y="-134"/>
    </contour>
    <contour>
      <point x="699.0" y="189" type="line" smooth="yes"/>
      <point x="699.0" y="67"/>
      <point x="641.0" y="-15"/>
      <point x="406.0" y="-15" type="curve" smooth="yes"/>
      <point x="173.0" y="-15"/>
      <point x="116.0" y="67"/>
      <point x="116.0" y="189" type="curve" smooth="yes"/>
      <point x="116.0" y="351" type="line" smooth="yes"/>
      <point x="116.0" y="377"/>
      <point x="127.0" y="387"/>
      <point x="152.0" y="387" type="curve" smooth="yes"/>
      <point x="297.0" y="387" type="line" smooth="yes"/>
      <point x="322.0" y="387"/>
      <point x="333.0" y="377"/>
      <point x="333.0" y="351" type="curve" smooth="yes"/>
      <point x="333.0" y="229" type="line" smooth="yes"/>
      <point x="333.0" y="202"/>
      <point x="342.0" y="182"/>
      <point x="404.0" y="182" type="curve" smooth="yes"/>
      <point x="462.0" y="182"/>
      <point x="470.0" y="202"/>
      <point x="470.0" y="229" type="curve" smooth="yes"/>
      <point x="470.0" y="684" type="line" smooth="yes"/>
      <point x="470.0" y="709"/>
      <point x="481.0" y="720"/>
      <point x="506.0" y="720" type="curve" smooth="yes"/>
      <point x="663.0" y="720" type="line" smooth="yes"/>
      <point x="688.0" y="720"/>
      <point x="699.0" y="709"/>
      <point x="699.0" y="684" type="curve" smooth="yes"/>
    </contour>
    <contour>
      <point x="579.0" y="630" type="line"/>
      <point x="579.0" y="213" type="line" smooth="yes"/>
      <point x="579.0" y="138"/>
      <point x="540.0" y="88"/>
      <point x="408.0" y="88" type="curve" smooth="yes"/>
      <point x="270.0" y="88"/>
      <point x="230.0" y="137"/>
      <point x="230.0" y="213" type="curve" smooth="yes"/>
      <point x="230.0" y="292" type="line"/>
      <point x="220.0" y="292" type="line"/>
      <point x="220.0" y="213" type="line" smooth="yes"/>
      <point x="220.0" y="133"/>
      <point x="258.0" y="78"/>
      <point x="408.0" y="78" type="curve" smooth="yes"/>
      <point x="550.0" y="78"/>
      <point x="589.0" y="134"/>
      <point x="589.0" y="213" type="curve" smooth="yes"/>
      <point x="589.0" y="630" type="line"/>
    </contour>
  </outline>
</glyph>
<glyph name="K" format="1">
  <advance width="1196"/>
  <unicode hex="004B"/>
  <outline>
    <contour>
      <point x="367.0" y="-1" type="line" smooth="yes"/>
      <point x="376.0" y="7"/>
      <point x="381.0" y="18"/>
      <point x="381.0" y="36" type="curve" smooth="yes"/>
      <point x="381.0" y="145" type="line"/>
      <point x="391.0" y="143"/>
      <point x="396.0" y="135"/>
      <point x="396.0" y="122" type="curve" smooth="yes"/>
      <point x="396.0" y="-73" type="line" smooth="yes"/>
      <point x="396.0" y="-105"/>
      <point x="410.0" y="-119"/>
      <point x="442.0" y="-119" type="curve" smooth="yes"/>
      <point x="596.0" y="-119" type="line" smooth="yes"/>
      <point x="610.0" y="-119"/>
      <point x="621.0" y="-115"/>
      <point x="627.0" y="-109" type="curve"/>
      <point x="757.0" y="-1" type="line" smooth="yes"/>
      <point x="766.0" y="7"/>
      <point x="771.0" y="18"/>
      <point x="771.0" y="36" type="curve" smooth="yes"/>
      <point x="771.0" y="318" type="line" smooth="yes"/>
      <point x="771.0" y="399"/>
      <point x="725.0" y="453"/>
      <point x="653.0" y="463" type="curve"/>
      <point x="749.0" y="683" type="line" smooth="yes"/>
      <point x="762.0" y="713"/>
      <point x="751.0" y="730"/>
      <point x="718.0" y="730" type="curve" smooth="yes"/>
      <point x="564.0" y="730" type="line" smooth="yes"/>
      <point x="546.0" y="730"/>
      <point x="533.0" y="726"/>
      <point x="523.0" y="718" type="curve" smooth="yes"/>
      <point x="394.0" y="609" type="line" smooth="yes"/>
      <point x="389.0" y="605"/>
      <point x="385.0" y="599"/>
      <point x="381.0" y="593" type="curve"/>
      <point x="381.0" y="684" type="line" smooth="yes"/>
      <point x="381.0" y="716"/>
      <point x="367.0" y="730"/>
      <point x="335.0" y="730" type="curve" smooth="yes"/>
      <point x="180.0" y="730" type="line" smooth="yes"/>
      <point x="166.0" y="730"/>
      <point x="155.0" y="727"/>
      <point x="148.0" y="721" type="curve" smooth="yes"/>
      <point x="19.0" y="612" type="line" smooth="yes"/>
      <point x="10.0" y="604"/>
      <point x="5.0" y="593"/>
      <point x="5.0" y="575" type="curve" smooth="yes"/>
      <point x="5.0" y="-73" type="line" smooth="yes"/>
      <point x="5.0" y="-105"/>
      <point x="19.0" y="-119"/>
      <point x="51.0" y="-119" type="curve" smooth="yes"/>
      <point x="206.0" y="-119" type="line" smooth="yes"/>
      <point x="220.0" y="-119"/>
      <point x="231.0" y="-115"/>
      <point x="237.0" y="-109" type="curve"/>
    </contour>
    <contour>
      <point x="335.0" y="0" type="curve" smooth="yes"/>
      <point x="180.0" y="0" type="line" smooth="yes"/>
      <point x="155.0" y="0"/>
      <point x="144.0" y="11"/>
      <point x="144.0" y="36" type="curve" smooth="yes"/>
      <point x="144.0" y="684" type="line" smooth="yes"/>
      <point x="144.0" y="709"/>
      <point x="155.0" y="720"/>
      <point x="180.0" y="720" type="curve" smooth="yes"/>
      <point x="335.0" y="720" type="line" smooth="yes"/>
      <point x="360.0" y="720"/>
      <point x="371.0" y="709"/>
      <point x="371.0" y="684" type="curve" smooth="yes"/>
      <point x="371.0" y="454" type="line"/>
      <point x="411.0" y="454" type="line"/>
      <point x="514.0" y="687" type="line" smooth="yes"/>
      <point x="524.0" y="711"/>
      <point x="538.0" y="720"/>
      <point x="564.0" y="720" type="curve" smooth="yes"/>
      <point x="718.0" y="720" type="line" smooth="yes"/>
      <point x="741.0" y="720"/>
      <point x="749.0" y="708"/>
      <point x="740.0" y="687" type="curve" smooth="yes"/>
      <point x="638.0" y="454" type="line"/>
      <point x="713.0" y="450"/>
      <point x="761.0" y="398"/>
      <point x="761.0" y="318" type="curve" smooth="yes"/>
      <point x="761.0" y="36" type="line" smooth="yes"/>
      <point x="761.0" y="11"/>
      <point x="750.0" y="0"/>
      <point x="725.0" y="0" type="curve" smooth="yes"/>
      <point x="571.0" y="0" type="line" smooth="yes"/>
      <point x="546.0" y="0"/>
      <point x="535.0" y="11"/>
      <point x="535.0" y="36" type="curve" smooth="yes"/>
      <point x="535.0" y="231" type="line" smooth="yes"/>
      <point x="535.0" y="253"/>
      <point x="524.0" y="265"/>
      <point x="503.0" y="265" type="curve" smooth="yes"/>
      <point x="371.0" y="265" type="line"/>
      <point x="371.0" y="36" type="line" smooth="yes"/>
      <point x="371.0" y="11"/>
      <point x="360.0" y="0"/>
    </contour>
    <contour>
      <point x="263.0" y="90" type="line"/>
      <point x="263.0" y="354" type="line"/>
      <point x="532.0" y="354" type="line" smooth="yes"/>
      <point x="606.0" y="354"/>
      <point x="643.0" y="330"/>
      <point x="643.0" y="266" type="curve" smooth="yes"/>
      <point x="643.0" y="90" type="line"/>
      <point x="653.0" y="90" type="line"/>
      <point x="653.0" y="266" type="line" smooth="yes"/>
      <point x="653.0" y="336"/>
      <point x="614.0" y="364"/>
      <point x="532.0" y="364" type="curve" smooth="yes"/>
      <point x="491.0" y="364" type="line"/>
      <point x="606.0" y="630" type="line"/>
      <point x="595.0" y="630" type="line"/>
      <point x="480.0" y="364" type="line"/>
      <point x="263.0" y="364" type="line"/>
      <point x="263.0" y="630" type="line"/>
      <point x="253.0" y="630" type="line"/>
      <point x="253.0" y="90" type="line"/>
    </contour>
  </outline>
</glyph>
<glyph name="L" format="1">
  <advance width="1145"/>
  <unicode hex="004C"/>
  <outline>
    <contour>
      <point x="560.0" y="-119" type="line" smooth="yes"/>
      <point x="574.0" y="-119"/>
      <point x="585.0" y="-115"/>
      <point x="591.0" y="-109" type="curve"/>
      <point x="721.0" y="-1" type="line" smooth="yes"/>
      <point x="730.0" y="7"/>
      <point x="735.0" y="18"/>
      <point x="735.0" y="36" type="curve" smooth="yes"/>
      <point x="735.0" y="351" type="line" smooth="yes"/>
      <point x="735.0" y="383"/>
      <point x="721.0" y="397"/>
      <point x="689.0" y="397" type="curve" smooth="yes"/>
      <point x="544.0" y="397" type="line" smooth="yes"/>
      <point x="530.0" y="397"/>
      <point x="519.0" y="394"/>
      <point x="512.0" y="388" type="curve" smooth="yes"/>
      <point x="383.0" y="279" type="line" smooth="yes"/>
      <point x="381.0" y="277" type="line"/>
      <point x="381.0" y="684" type="line" smooth="yes"/>
      <point x="381.0" y="716"/>
      <point x="367.0" y="730"/>
      <point x="335.0" y="730" type="curve" smooth="yes"/>
      <point x="180.0" y="730" type="line" smooth="yes"/>
      <point x="166.0" y="730"/>
      <point x="155.0" y="727"/>
      <point x="148.0" y="721" type="curve" smooth="yes"/>
      <point x="19.0" y="612" type="line" smooth="yes"/>
      <point x="10.0" y="604"/>
      <point x="5.0" y="593"/>
      <point x="5.0" y="575" type="curve" smooth="yes"/>
      <point x="5.0" y="-73" type="line" smooth="yes"/>
      <point x="5.0" y="-105"/>
      <point x="19.0" y="-119"/>
      <point x="51.0" y="-119" type="curve" smooth="yes"/>
    </contour>
    <contour>
      <point x="689.0" y="0" type="curve" smooth="yes"/>
      <point x="180.0" y="0" type="line" smooth="yes"/>
      <point x="155.0" y="0"/>
      <point x="144.0" y="11"/>
      <point x="144.0" y="36" type="curve" smooth="yes"/>
      <point x="144.0" y="684" type="line" smooth="yes"/>
      <point x="144.0" y="709"/>
      <point x="155.0" y="720"/>
      <point x="180.0" y="720" type="curve" smooth="yes"/>
      <point x="335.0" y="720" type="line" smooth="yes"/>
      <point x="360.0" y="720"/>
      <point x="371.0" y="709"/>
      <point x="371.0" y="684" type="curve" smooth="yes"/>
      <point x="371.0" y="189" type="line"/>
      <point x="508.0" y="189" type="line"/>
      <point x="508.0" y="351" type="line" smooth="yes"/>
      <point x="508.0" y="376"/>
      <point x="519.0" y="387"/>
      <point x="544.0" y="387" type="curve" smooth="yes"/>
      <point x="689.0" y="387" type="line" smooth="yes"/>
      <point x="714.0" y="387"/>
      <point x="725.0" y="376"/>
      <point x="725.0" y="351" type="curve" smooth="yes"/>
      <point x="725.0" y="36" type="line" smooth="yes"/>
      <point x="725.0" y="11"/>
      <point x="714.0" y="0"/>
    </contour>
    <contour>
      <point x="253.0" y="90" type="line"/>
      <point x="621.0" y="90" type="line"/>
      <point x="621.0" y="297" type="line"/>
      <point x="611.0" y="297" type="line"/>
      <point x="611.0" y="100" type="line"/>
      <point x="263.0" y="100" type="line"/>
      <point x="263.0" y="630" type="line"/>
      <point x="253.0" y="630" type="line"/>
    </contour>
  </outline>
</glyph>
